<mxfile modified="2023-07-15T20:06:19.982Z" host="app.diagrams.net" agent="Mozilla/5.0 (X11; Linux x86_64; rv:109.0) Gecko/20100101 Firefox/115.0" etag="Mi8V3PgCrTrl9jJbCvYl" version="21.5.0" type="github">
  <diagram id="f106602c-feb2-e66a-4537-3a34d633f6aa" name="Page-1">
    <mxGraphModel dx="1659" dy="923" grid="1" gridSize="10" guides="1" tooltips="1" connect="1" arrows="1" fold="1" page="1" pageScale="1" pageWidth="1169" pageHeight="827" background="none" math="0" shadow="0">
      <root>
        <mxCell id="0" />
        <mxCell id="1" parent="0" />
        <mxCell id="5Cmd87jd1j1dDl44HN59-86" value="" style="whiteSpace=wrap;html=1;" vertex="1" parent="1">
          <mxGeometry x="980" y="680" width="170" height="130" as="geometry" />
        </mxCell>
        <mxCell id="5Cmd87jd1j1dDl44HN59-55" value="" style="whiteSpace=wrap;html=1;" vertex="1" parent="1">
          <mxGeometry x="50" y="130" width="1070" height="540" as="geometry" />
        </mxCell>
        <mxCell id="5Cmd87jd1j1dDl44HN59-29" value="" style="whiteSpace=wrap;html=1;fillColor=#241f31;" vertex="1" parent="1">
          <mxGeometry x="145" y="220" width="880" height="320" as="geometry" />
        </mxCell>
        <mxCell id="5Cmd87jd1j1dDl44HN59-27" value="" style="edgeStyle=orthogonalEdgeStyle;orthogonalLoop=1;jettySize=auto;html=1;strokeWidth=1;sketch=1;curveFitting=1;jiggle=2;shadow=0;rounded=1;" edge="1" parent="1" source="5Cmd87jd1j1dDl44HN59-25" target="5Cmd87jd1j1dDl44HN59-26">
          <mxGeometry relative="1" as="geometry" />
        </mxCell>
        <mxCell id="5Cmd87jd1j1dDl44HN59-25" value="" style="shape=image;html=1;verticalAlign=top;verticalLabelPosition=bottom;labelBackgroundColor=#ffffff;imageAspect=0;aspect=fixed;image=https://cdn2.iconfinder.com/data/icons/browsers/Firefox.png" vertex="1" parent="1">
          <mxGeometry x="541" y="10" width="88" height="88" as="geometry" />
        </mxCell>
        <mxCell id="5Cmd87jd1j1dDl44HN59-26" value="" style="outlineConnect=0;dashed=0;verticalLabelPosition=bottom;verticalAlign=top;align=center;html=1;shape=mxgraph.aws3.application_load_balancer;fillColor=#F58534;gradientColor=none;" vertex="1" parent="1">
          <mxGeometry x="555.29" y="140" width="59.42" height="62" as="geometry" />
        </mxCell>
        <mxCell id="5Cmd87jd1j1dDl44HN59-30" value="" style="whiteSpace=wrap;html=1;fillColor=#3d3846;" vertex="1" parent="1">
          <mxGeometry x="160" y="240" width="280" height="280" as="geometry" />
        </mxCell>
        <mxCell id="5Cmd87jd1j1dDl44HN59-28" value="Kubernetes" style="sketch=0;html=1;verticalAlign=top;labelPosition=center;verticalLabelPosition=bottom;align=center;spacingTop=-6;fontSize=11;fontStyle=1;fontColor=#999999;shape=image;aspect=fixed;imageAspect=0;image=data:image/svg+xml,PHN2ZyB4bWxucz0iaHR0cDovL3d3dy53My5vcmcvMjAwMC9zdmciIHhtbG5zOnY9Imh0dHBzOi8vdmVjdGEuaW8vbmFubyIgd2lkdGg9IjcwMi44NDYzMTM0NzY1NjI1IiBoZWlnaHQ9IjY4MS45NjcxMDIwNTA3ODEyIiB2aWV3Qm94PSIxMC4wMDEwMjYxNTM1NjQ0NTMgMTAuMDAwOTMzNjQ3MTU1NzYyIDcwMi44NDYzMTM0NzY1NjI1IDY4MS45NjcxMDIwNTA3ODEyIj4mI3hhOwk8c3R5bGUgdHlwZT0idGV4dC9jc3MiPiYjeGE7CS5zdDB7ZmlsbDojMzI2Y2U1O30mI3hhOwkuc3Qxe2ZpbGw6I2ZmZjt9JiN4YTsJPC9zdHlsZT4mI3hhOwk8cGF0aCBjbGFzcz0ic3QwIiBkPSJNMzU4Ljk4NyAxMC4wNmMtNi4yMTMuMzEzLTEyLjMwMSAxLjg1NC0xNy45MDYgNC41MzFMOTYuNzM3IDEzMS4zNDJjLTEyLjgxMSA2LjExOC0yMi4xMTYgMTcuNjg5LTI1LjI4MSAzMS40MzhsLTYwLjI4MSAyNjIuMjVjLTIuODEyIDEyLjIwNy0uNTI0IDI1LjAyNCA2LjM0NCAzNS41MzFhNDYuMzUgNDYuMzUgMCAwIDAgMi42NTYgMy42ODhsMTY5LjEyNSAyMTAuMjgxYzguODY4IDExLjAyMiAyMi4zMTMgMTcuNDQgMzYuNTMxIDE3LjQzOGwyNzEuMjE5LS4wNjJjMTQuMjEyLjAxIDI3LjY1Ny02LjM5NiAzNi41MzEtMTcuNDA2bDE2OS4wNjMtMjEwLjMxM2M4Ljg3My0xMS4wMjggMTIuMTk3LTI1LjQ2NCA5LjAzMS0zOS4yMTlsLTYwLjM3NS0yNjIuMjVjLTMuMTY1LTEzLjc0OC0xMi40Ny0yNS4zMTktMjUuMjgxLTMxLjQzN0wzODEuNjQzIDE0LjU5MmMtNy4wNS0zLjM2OC0xNC44NDEtNC45MjYtMjIuNjU2LTQuNTMxeiIvPiYjeGE7CTxwYXRoIGNsYXNzPSJzdDEgc3QyIiBkPSJNMzYxLjQwOCA5OS4zMDhjLTguMDc3LjAwMS0xNC42MjYgNy4yNzYtMTQuNjI1IDE2LjI1IDAgLjEzOC4wMjguMjY5LjAzMS40MDYtLjAxMiAxLjIxOS0uMDcxIDIuNjg4LS4wMzEgMy43NS4xOTMgNS4xNzYgMS4zMjEgOS4xMzcgMiAxMy45MDYgMS4yMyAxMC4yMDcgMi4yNjEgMTguNjY3IDEuNjI1IDI2LjUzMS0uNjE5IDIuOTY1LTIuODAzIDUuNjc3LTQuNzUgNy41NjNsLS4zNDQgNi4xODhjLTguNzc3LjcyNy0xNy42MTIgMi4wNTktMjYuNDM3IDQuMDYzLTM3Ljk3NSA4LjYyMi03MC42NyAyOC4xODMtOTUuNTYyIDU0LjU5NC0xLjYxNS0xLjEwMi00LjQ0MS0zLjEyOS01LjI4MS0zLjc1LTIuNjExLjM1My01LjI1IDEuMTU4LTguNjg3LS44NDQtNi41NDUtNC40MDYtMTIuNTA2LTEwLjQ4Ny0xOS43MTktMTcuODEyLTMuMzA1LTMuNTA0LTUuNjk4LTYuODQxLTkuNjI1LTEwLjIxOS0uODkyLS43NjctMi4yNTMtMS44MDUtMy4yNS0yLjU5NC0zLjA3LTIuNDQ4LTYuNjkxLTMuNzI0LTEwLjE4Ny0zLjg0NC00LjQ5Ni0uMTU0LTguODI0IDEuNjA0LTExLjY1NiA1LjE1Ni01LjAzNSA2LjMxNS0zLjQyMyAxNS45NjggMy41OTQgMjEuNTYzLjA3MS4wNTcuMTQ3LjEwMS4yMTkuMTU2Ljk2NC43ODIgMi4xNDUgMS43ODMgMy4wMzEgMi40MzggNC4xNjcgMy4wNzcgNy45NzMgNC42NTEgMTIuMTI1IDcuMDk0IDguNzQ3IDUuNDAyIDE1Ljk5OCA5Ljg4MSAyMS43NSAxNS4yODEgMi4yNDYgMi4zOTQgMi42MzkgNi42MTMgMi45MzggOC40MzhsNC42ODggNC4xODhjLTI1LjA5MyAzNy43NjQtMzYuNzA3IDg0LjQwOS0yOS44NDQgMTMxLjkzOGwtNi4xMjUgMS43ODFjLTEuNjE0IDIuMDg1LTMuODk1IDUuMzY1LTYuMjgxIDYuMzQ0LTcuNTI1IDIuMzctMTUuOTk0IDMuMjQxLTI2LjIxOSA0LjMxMy00LjguMzk5LTguOTQyLjE2MS0xNC4wMzEgMS4xMjUtMS4xMi4yMTItMi42ODEuNjE5LTMuOTA2LjkwNi0uMDQzLjAwOS0uMDgyLjAyMi0uMTI1LjAzMS0uMDY3LjAxNS0uMTU1LjA0OC0uMjE5LjA2My04LjYyIDIuMDgzLTE0LjE1OCAxMC4wMDYtMTIuMzc1IDE3LjgxM3MxMC4yMDMgMTIuNTU3IDE4Ljg3NSAxMC42ODhjLjA2My0uMDE0LjE1NC0uMDE3LjIxOS0uMDMxLjA5OC0uMDIyLjE4NC0uMDcuMjgxLS4wOTQgMS4yMDktLjI2NSAyLjcyNC0uNTYxIDMuNzgxLS44NDQgNS4wMDMtMS4zNCA4LjYyNy0zLjMwOCAxMy4xMjUtNS4wMzEgOS42NzctMy40NzEgMTcuNjkyLTYuMzcgMjUuNS03LjUgMy4yNjEtLjI1NSA2LjY5NyAyLjAxMiA4LjQwNiAyLjk2OWw2LjM3NS0xLjA5NGMxNC42NyA0NS40ODMgNDUuNDE0IDgyLjI0NSA4NC4zNDQgMTA1LjMxMmwtMi42NTYgNi4zNzVjLjk1NyAyLjQ3NSAyLjAxMyA1LjgyNSAxLjMgOC4yNjktMi44MzkgNy4zNjEtNy43MDEgMTUuMTMxLTEzLjIzOCAyMy43OTMtMi42ODEgNC4wMDItNS40MjUgNy4xMDgtNy44NDQgMTEuNjg4LS41NzkgMS4wOTYtMS4zMTYgMi43NzktMS44NzUgMy45MzgtMy43NTkgOC4wNDItMS4wMDIgMTcuMzA1IDYuMjE5IDIwLjc4MSA3LjI2NiAzLjQ5OCAxNi4yODQtLjE5MSAyMC4xODctOC4yNS4wMDYtLjAxMS4wMjYtLjAyLjAzMS0uMDMxcy0uMDA0LS4wMjMgMC0uMDMxYy41NTYtMS4xNDMgMS4zNDQtMi42NDQgMS44MTMtMy43MTkgMi4wNzItNC43NDcgMi43NjItOC44MTUgNC4yMTktMTMuNDA2IDMuODctOS43MiA1Ljk5Ni0xOS45MTkgMTEuMzIzLTI2LjI3NCAxLjQ1OS0xLjc0IDMuODM3LTIuNDA5IDYuMzAyLTMuMDdsMy4zMTMtNmMzMy45MzggMTMuMDI3IDcxLjkyNyAxNi41MjIgMTA5Ljg3NSA3LjkwNmExODkuNzcgMTg5Ljc3IDAgMCAwIDI1LjA5NC03LjU2MmwzLjEyNSA1LjYyNWMyLjUwNi44MTUgNS4yNCAxLjIzNiA3LjQ2OSA0LjUzMSAzLjk4NSA2LjgwOSA2LjcxMSAxNC44NjQgMTAuMDMxIDI0LjU5NCAxLjQ1NyA0LjU5MSAyLjE3OCA4LjY1OSA0LjI1IDEzLjQwNi40NzIgMS4wODIgMS4yNTYgMi42MDUgMS44MTMgMy43NSAzLjg5NSA4LjA4NSAxMi45NDIgMTEuNzg3IDIwLjIxOSA4LjI4MSA3LjIxOS0zLjQ3OCA5Ljk4LTEyLjc0IDYuMjE5LTIwLjc4MWwtMS45MDYtMy45MzdjLTIuNDE5LTQuNTgtNS4xNjMtNy42NTQtNy44NDQtMTEuNjU2LTUuNTM3LTguNjYyLTEwLjEzLTE1Ljg1OC0xMi45NjktMjMuMjE5LTEuMTg3LTMuNzk3LjItNi4xNTggMS4xMjUtOC42MjUtLjU1NC0uNjM1LTEuNzM5LTQuMjItMi40MzctNS45MDYgNDAuNDU3LTIzLjg4OCA3MC4yOTktNjIuMDIxIDg0LjMxMy0xMDYuMDYyIDEuODkyLjI5NyA1LjE4Mi44NzkgNi4yNSAxLjA5NCAyLjItMS40NTEgNC4yMjItMy4zNDQgOC4xODgtMy4wMzEgNy44MDggMS4xMjkgMTUuODIzIDQuMDMgMjUuNSA3LjUgNC40OTggMS43MjMgOC4xMjIgMy43MjMgMTMuMTI1IDUuMDYzIDEuMDU3LjI4MyAyLjU3Mi41NDcgMy43ODEuODEzLjA5Ny4wMjQuMTgzLjA3MS4yODEuMDk0LjA2NS4wMTUuMTU2LjAxNy4yMTkuMDMxIDguNjcyIDEuODY3IDE3LjA5NC0yLjg3OSAxOC44NzUtMTAuNjg3cy0zLjc1NC0xNS43MzItMTIuMzc1LTE3LjgxMmMtMS4yNTQtLjI4NS0zLjAzMi0uNzY5LTQuMjUtMS01LjA4OS0uOTY0LTkuMjMxLS43MjYtMTQuMDMxLTEuMTI1LTEwLjIyNS0xLjA3MS0xOC42OTMtMS45NDMtMjYuMjE5LTQuMzEyLTMuMDY4LTEuMTktNS4yNTEtNC44NDEtNi4zMTMtNi4zNDRsLTUuOTA2LTEuNzE5YzMuMDYyLTIyLjE1NCAyLjIzNy00NS4yMTEtMy4wNjItNjguMjgxLTUuMzQ4LTIzLjI4NS0xNC44LTQ0LjU4MS0yNy40MDYtNjMuMzQ0bDUuMTg4LTQuNjU2Yy4yMzctMi42MjQuMDMzLTUuMzc2IDIuNzUtOC4yODEgNS43NTEtNS40MDEgMTMuMDAzLTkuODc5IDIxLjc1LTE1LjI4MSA0LjE1Mi0yLjQ0MyA3Ljk5LTQuMDE3IDEyLjE1Ni03LjA5NC45NDItLjY5NiAyLjIyOS0xLjc5OCAzLjIxOS0yLjU5NCA3LjAxNS01LjU5NiA4LjYzMS0xNS4yNDggMy41OTQtMjEuNTYycy0xNC43OTctNi45MDktMjEuODEyLTEuMzEyYy0uOTk5Ljc5MS0yLjM1NCAxLjgyMy0zLjI1IDIuNTk0LTMuOTI3IDMuMzc4LTYuMzUxIDYuNzE0LTkuNjU2IDEwLjIxOS03LjIxMiA3LjMyNi0xMy4xNzQgMTMuNDM4LTE5LjcxOSAxNy44NDQtMi44MzYgMS42NTEtNi45OSAxLjA4LTguODc1Ljk2OWwtNS41NjIgMy45NjljLTMxLjcxOS0zMy4yNjEtNzQuOTA1LTU0LjUyNS0xMjEuNDA2LTU4LjY1NmwtLjM0NC02LjUzMWMtMS45MDQtMS44MjItNC4yMDMtMy4zNzctNC43ODEtNy4zMTItLjYzNi03Ljg2NC40MjYtMTYuMzI1IDEuNjU2LTI2LjUzMS42NzktNC43NjkgMS44MDctOC43MyAyLTEzLjkwNi4wNDQtMS4xNzctLjAyNi0yLjg4NC0uMDMxLTQuMTU2LS4wMDEtOC45NzQtNi41NDgtMTYuMjUxLTE0LjYyNS0xNi4yNXptLTE4LjMxMiAxMTMuNDM4bC00LjM0NCA3Ni43MTktLjMxMi4xNTZjLS4yOTEgNi44NjMtNS45NCAxMi4zNDQtMTIuODc1IDEyLjM0NGExMi44MiAxMi44MiAwIDAgMS03LjU5NC0yLjQ2OWwtLjEyNS4wNjMtNjIuOTA2LTQ0LjU5NGMxOS4zMzQtMTkuMDExIDQ0LjA2My0zMy4wNiA3Mi41NjItMzkuNTMxIDUuMjA2LTEuMTgyIDEwLjQxLTIuMDU5IDE1LjU5NC0yLjY4N3ptMzYuNjU2IDBjMzMuMjczIDQuMDkyIDY0LjA0NSAxOS4xNTkgODcuNjI1IDQyLjI1bC02Mi41IDQ0LjMxMy0uMjE5LS4wOTRhMTIuOTEgMTIuOTEgMCAwIDEtMTcuNjg3LTIuMzc1Yy0xLjc3MS0yLjIyMS0yLjcwMS00LjgzMi0yLjgxMi03LjQ2OWwtLjA2Mi0uMDMxek0yMzIuMTI2IDI4My42Mmw1Ny40MzcgNTEuMzc1LS4wNjIuMzEzYTEyLjg4IDEyLjg4IDAgMCAxIDEuNjI1IDE3Ljc1IDEyLjg5IDEyLjg5IDAgMCAxLTYuNjg3IDQuNDA2bC0uMDYyLjI1LTczLjYyNSAyMS4yNWMtMy43NDctMzQuMjY1IDQuMzI5LTY3LjU3NCAyMS4zNzUtOTUuMzQ0em0yNTguMTU2LjAzMWM4LjUzNCAxMy44MzMgMTQuOTk3IDI5LjI4MiAxOC44NDQgNDYuMDMxIDMuODAxIDE2LjU0OCA0Ljc1NSAzMy4wNjcgMy4xODggNDkuMDMxbC03NC0yMS4zMTItLjA2Mi0uMzEyYy02LjYyNy0xLjgxMS0xMC42OTktOC41NTItOS4xNTYtMTUuMzEyLjYzMi0yLjc3IDIuMTAyLTUuMTEzIDQuMDk0LTYuODQ0bC0uMDMxLS4xNTYgNTcuMTI1LTUxLjEyNXptLTE0MC42NTYgNTUuMzEzaDIzLjUzMWwxNC42MjUgMTguMjgxLTUuMjUgMjIuODEzLTIxLjEyNSAxMC4xNTYtMjEuMTg3LTEwLjE4Ny01LjI1LTIyLjgxMnptNzUuNDM4IDYyLjU2M2ExMi44MyAxMi44MyAwIDAgMSAyLjk2OS4yMTlsLjEyNS0uMTU2IDc2LjE1NiAxMi44NzVjLTExLjE0NiAzMS4zMTMtMzIuNDczIDU4LjQ0LTYwLjk2OSA3Ni41OTRsLTI5LjU2Mi03MS40MDYuMDk0LS4xMjVjLTIuNzE2LTYuMzEuMDAyLTEzLjcxIDYuMjUtMTYuNzE5IDEuNi0uNzcgMy4yNzEtMS4xOTcgNC45MzgtMS4yODF6bS0xMjcuOTA2LjMxM2ExMi45IDEyLjkgMCAwIDEgMTIuMzc1IDEwLjAzMSAxMi43NyAxMi43NyAwIDAgMS0uNzE5IDcuOTM4bC4yMTkuMjgxLTI5LjI1IDcwLjY4OGMtMjcuMzQ3LTE3LjU0OS00OS4xMjktNDMuODI0LTYwLjc4MS03Ni4wNjJsNzUuNS0xMi44MTIuMTI1LjE1NmMuODQ1LS4xNTUgMS43MDEtLjIzIDIuNTMxLS4yMTl6bTYzLjc4MSAzMC45NjljMi4wMjQtLjA3NCA0LjA3OS4zNDEgNi4wMzEgMS4yODEgMi41NiAxLjIzMyA0LjUzNyAzLjE3MyA1Ljc4MSA1LjVoLjI4MWwzNy4yMTkgNjcuMjVjLTQuODMgMS42MTktOS43OTYgMy4wMDMtMTQuODc1IDQuMTU2LTI4LjQ2NSA2LjQ2My01Ni44MzkgNC41MDUtODIuNTMxLTQuMjVsMzcuMTI1LTY3LjEyNWguMDYzYTEyLjkxIDEyLjkxIDAgMCAxIDEwLjkwNi02LjgxMnoiIHN0cm9rZT0ibm9uZSIgc3Ryb2tlLXdpZHRoPSIuMjUiLz4mI3hhOzwvc3ZnPg==;" vertex="1" parent="1">
          <mxGeometry x="130" y="192" width="63" height="60" as="geometry" />
        </mxCell>
        <mxCell id="5Cmd87jd1j1dDl44HN59-34" value="" style="whiteSpace=wrap;html=1;fillColor=#3d3846;" vertex="1" parent="1">
          <mxGeometry x="445" y="240" width="280" height="280" as="geometry" />
        </mxCell>
        <mxCell id="5Cmd87jd1j1dDl44HN59-35" value="" style="whiteSpace=wrap;html=1;fillColor=#3d3846;" vertex="1" parent="1">
          <mxGeometry x="730" y="240" width="280" height="280" as="geometry" />
        </mxCell>
        <mxCell id="5Cmd87jd1j1dDl44HN59-37" value="Node 1 - europe-west2-a" style="text;strokeColor=none;align=center;fillColor=none;html=1;verticalAlign=middle;whiteSpace=wrap;rounded=0;fontSize=16;" vertex="1" parent="1">
          <mxGeometry x="205" y="240" width="190" height="30" as="geometry" />
        </mxCell>
        <mxCell id="5Cmd87jd1j1dDl44HN59-38" value="Node 2 - europe-west2-b" style="text;strokeColor=none;align=center;fillColor=none;html=1;verticalAlign=middle;whiteSpace=wrap;rounded=0;fontSize=16;" vertex="1" parent="1">
          <mxGeometry x="483.6" y="240" width="192.81" height="30" as="geometry" />
        </mxCell>
        <mxCell id="5Cmd87jd1j1dDl44HN59-39" value="Node 3 - europe-west2-c" style="text;strokeColor=none;align=center;fillColor=none;html=1;verticalAlign=middle;whiteSpace=wrap;rounded=0;fontSize=16;" vertex="1" parent="1">
          <mxGeometry x="776.8900000000001" y="240" width="182.81" height="30" as="geometry" />
        </mxCell>
        <mxCell id="5Cmd87jd1j1dDl44HN59-46" value="" style="edgeStyle=orthogonalEdgeStyle;rounded=0;orthogonalLoop=1;jettySize=auto;html=1;" edge="1" parent="1" source="5Cmd87jd1j1dDl44HN59-42" target="5Cmd87jd1j1dDl44HN59-45">
          <mxGeometry relative="1" as="geometry" />
        </mxCell>
        <mxCell id="5Cmd87jd1j1dDl44HN59-42" value="" style="whiteSpace=wrap;html=1;fillColor=#5e5c64;" vertex="1" parent="1">
          <mxGeometry x="180.01" y="277.5" width="240" height="100" as="geometry" />
        </mxCell>
        <mxCell id="5Cmd87jd1j1dDl44HN59-43" value="" style="whiteSpace=wrap;html=1;fillColor=#5e5c64;" vertex="1" parent="1">
          <mxGeometry x="180" y="390" width="240" height="110" as="geometry" />
        </mxCell>
        <mxCell id="5Cmd87jd1j1dDl44HN59-40" value="" style="dashed=0;outlineConnect=0;html=1;align=center;labelPosition=center;verticalLabelPosition=bottom;verticalAlign=top;shape=mxgraph.weblogos.java" vertex="1" parent="1">
          <mxGeometry x="280.63" y="420" width="38.75" height="70" as="geometry" />
        </mxCell>
        <mxCell id="5Cmd87jd1j1dDl44HN59-41" value="" style="shape=image;verticalLabelPosition=bottom;labelBackgroundColor=default;verticalAlign=top;aspect=fixed;imageAspect=0;image=data:image/png,iVBORw0KGgoAAAANSUhEUgAAAjoAAAIACAMAAAC8dzY5AAAABGdBTUEAALGPC/xhBQAAAAFzUkdCAK7OHOkAAALHUExURUdwTPz8/P////z8/Pz8/P7+/v////////////z8/Pz8/P////z8/P////39/f////z8/Pz8/P////////////////z8/Pz8/P////////////////z8/Pz8/Pz8/P////39/fz8/P////z8/P////39/f////////////z8/P////z8/P////39/f////39/f39/f////////z8/P39/fz8/Pz8/Pz8/P////z8/P////39/f////////7+/v////39/f////////////39/f////39/fz8/Pz8/Pz8/P39/fz8/Pz8/P////////////////////39/f39/f////////////39/f////////z8/P////////39/f39/f////39/f////39/f////////////////z8/Pz8/P////////////////////39/f39/f////////////7+/v////z8/P///1PB3lTB3v7//1bC3/z+/ljD3/r9/l7F4O/5/GfI4lXC3uT1+rrm8vf8/VzE4Nry+OL1+en3+2nJ4nPN5M3t9Zja6/j8/lvE4Nzy+H3Q5pDX6vL6/WvK46ff7vn9/tTv9+H0+avh72DG4XHM5P3+/3fO5crs9cPp87Lk8G/L48fr9GTH4ef2+qXf7mPH4arg78Lp89bw9/T7/bTk8YDS51fC32HG4XvQ5q/j8O75/PH6/ILS51rE39Du9obT6IjU6Ob2+oTT5+v4+1nD393z+XnP5XTN5Nfx97zn8qLd7YzW6cjr9a3i7/X7/W3K46Pe7Z/c7bfl8fv+/pLY6o7W6Zrb7Jzb7JbZ67/o87Xk8ZTZ63/R5l/F4JTY6uz4+77n8qHd7bjl8YvV6Z7c7PP7/cTq9M7t9mXI4XXN5WjJ4nbO5d/z+ZHX6svs9YrV6Or3+8bq9Kng7tLv9tjx94nU6IzV6ZzBoCcAAAB2dFJOUwDyCev6ogcBAv71FvYLkCPl9xogHQ3T3xA5NXDp+/0YlsI+/HmzW2lX0HLOBJ4TpahtSe6M2dbhf+dNvHwqiV65BnbwtkacxsjEk+/LD0A7Qi6DmSZkdK0SUeIwJ76xMYZjj0ssYETd+WZTHyXAhLBPM1WrzOPBbLv2AAAgAElEQVR42uxd+VdVxx0XCQqKLAoqIoooKriyVChuuDVqGz2Ke+NJQtRoU2Nt7Nz3Hj7WJwcUV1ZBRTYBWQR97BKkLgUk4BJF0VhrbKs9/SN6rJq4zJ3lrjj3fn5+c+f7nft5M991br9+OnTo+DDR323u7z18fDx2r3L+RF8NOTD1j4EBnztF2H3ru3nZnp277JxCPeeHjfpwF9veOSwgeP2eTY7gDXiN9tsVGbBtuv66pcECH3/v2SPGAyh+vTPCM3CY/Ye1z6z0t5viCBD4i+8Ej6n6mxdJm9DNyEV+CdeP5wW6fxAKDZ7s7ecFSGCzeNJQnQAC4TyHhDavMWaK08a+vdP3D1w+HNDAYem6sToNqOG+dhmghsOsYI+BfVOfoTt8B9ErBLx8N9rrZKCxIZfMcAQC4bJ8RZ9b7KEByxyE6gNCPIfojCDdcOa4AFGwjVjSh4zMkTtE8Ob/CFqtu+0kGDIhCIhHUMTuvrF/Bs50lUId/wE6M3Cm5EJbIBH2rO2v+kEV6iKVNpsm6+RAEsd/NJAQi5ZvUVObbeu9pNQm3FknCC/CQoDUWDZfpZ1+wNpZUuviOkF3tuBw2wXkgO0cFWzM6aGj5dBlqb7xwDDfBsiERd8oHCp0c3KUSZVBa3WivOfBzgQyYlCwglHZYRHbZVTFrr9OlrcwahOQF9u9v1aIONO85NXETz+03jqsXIHs+GiaAms+1Psj2RUJWqET5uewWSRQBNsjR8psHAe7KqLHRJ0zL7HgW6AUgjxlTFAMWLhIITUcFuqseYEhs4GC+GqjTGoMnBiioBrf6Lzp1++T3wFlMU6W5JaHwmrM05njvhQoDYcZblJrMdbOQWktNM+dIeOACnCcI6nJM9XfRgUlJmibOVMXA3Uw3EM6JXxmqaPDF5qmjjdQC2O8JSqDnz7NQSUVxodpmDnrgIpw+ZMUKmy1VU8Dm7maZU7gGKAq1otuVnHerKoCX43UKHPcbIHKsJkkqn3C3nOQygqEa7OAZ8FSoD6Wichrffqx+vKHapI6waAvwEaon2K/0LUPiD9+pQaZ4+MA+gbWbxAi/rBxfUP6EO2ZO0NGCF6t9Ji6psyG0ijJXK1t9OKvFR8ETI+3tlzu6bp+v7a2teP7rIQDdTlCHjNDj+jg0Z5ZfKk+9Xg59wp7K67W99573mAUnZmIpCx9H+wraj5jXXFPfayBexem7K6WOuqnBWqMOR6Ux5WxpCfbxMHR2Nz5sEpkcHkVjfBLRJSst5dklUVzCCR3ZtD9Fza5a4o59n40ixNlTSniMEjuSIgXUz3lSeymLwgWbKUltdU3cnjEFjbQPNVbU9QJoFiZK1nHOTIk95QIP7zCCbsm1kwROEHms9McKUzXmyhyKqs0xJwN5OV0xwqjOQoUpViFms+bRpGIPlFYFDDpzFWOCobrBcQP36mHdN5H6aVDHC2iO0oEHlqTsIL3/42QB1sSKjl6mArNpBP8WTsZCNI+peIiThBO51YLIg+ux2mNn4CHHu66IEwLLjWDcIoRmrl30I5sQaprOcEob7UKMXvQPU6T6YM57d3/EK4EZ0gjDPVM0ghznMcTLUdJPicKyecs9Nz57Ze8Yk91on5adZZIHbgjZNuni0ZaQiOIViPBxIlFdGEMfXhwNU8yejB15uFOb6NoFbhUshihpyaYM5TE0jH2clJgb0oBNXnCoTktD9o7lgpulkuiQnQi0bazQHevXjGng5MIhtYmWu6MgBTf7aC8gSDppkkqDfZ9RzLhVi3kPQliOjlHOQlRk0lbiLHkXTOHMuN2J8UkofwX/kMw5ayB7FNnEsE6pHCSwnA0ie7Ve73tsUynKyMtvdYorfy3SVIsX7JPneH4VXjGSY3yXspAT+QbxvIWqvqQ9tzbkosfS5DdDWeeOT74RTjFyYBDz+hcdd+fr7kOo4rmnEyVQ/pKfHbFYZgeDnzSyMmCijaqUqopr9ol/GnaNjLL5JGd68TP/TnrRjI2e2hJ5uRCcyINd1w+e1EdQmMgW3rjZJP939jZRzOejdiKXYEfOPlguElj8gwK6+dO09h8Kl9G0W/jzR3Gm0GxvkoeJyui2yhSW2NCh5P/uKBMXsnPYyWYyTRzBuMMhytFnMygO7WICxkvC7PQGpObK8uOnEglSK5342RwZLrSFBvU6cQdOVeP9pzNy3j+49O8lrSfKiG14fhTq+uK5Mw5vJ9ajPyatIdNv0hSZc26hY4jVpTipJjPMnVwd781IalwoaP73RPfYs2qraB9a48OSEsccyGleRx7sxsWpCxtOy3Ky1rMMHM24K4UvoX612U94BlVd7aMMtXYUSrllpNNteldPMcfHDaeeowoG8Ql0bcz/Mm1iRjdnyLW7Rmy3NKS13Gc6riQbOOJotlyDCdyMZ7SwU7+jfc+TpaN7FIHEw808v99k/HGbVRerUn5jSe+maLm/hJJMuoUv8GNWwQ7ZpkzENP69lfeNbtFlkWoPttsUHTjMbYRO1aGsjzCaHYJbw9ILWakLbN3pnyG0Zz3D3wkndzwOEpu9qSki2ROdT2xE95J0RGcyOeqG3DlI6NYpc5CtN5W3uTfQZr3WVVIbPVkZ4pijpU0CMVv4cNxgM98OooZyOytppiofg2fK/uA8pWaE0j7LBsTxNjHhIdj7A3q3e0yn7OAKbaezShz7NH1gUk8byJOQEeesZiUPPeFWst3CNvyHt0T0o56nudpZ9DDXBntjFiFVvsaz2o9E2bAFhN26sYK6xW1kp2KFWfNgh5fxWMq52N46MMmddB3FOTw5J33C72BgJQ8cWfoZzCmER1Wh9IsQo/DBJ5HPkUPY/STNTPQpiGPU2EV4TonkOUoymjbjKuJsuRxXTEiZOdxN/+LHraLTer8Cqn0dfhS1YvygSzX9hIdWnQNN02xJA+99USU6Bk8nWVo22w0k8xxR95oZIZfaWGKB+KQ1EpytOztpnhkNwkdY/PEhht5drYW9CgmK5RXCIkkt4qP+H53gqj4l9QPivqehIqF6aLlLhG0Df+BReqsQ6rM07RXIp46wNhGcrtTJdl1hA9ukVwyEC+B2AB+R0Y5utpoteZynznw5qVmabLbVSSnVj5Jg248QdH97RZppC6GP74YOciXReogv3CYCF+mu1KVRvxI8MpN9/AZgn0EQcYYiWRuPy4gGRHCYtoc2UaTBi9CN0tFHZB+jaAioxOT287Fb15FeZKJDOC3fVSgw1AM3t4+DKnwRUHZPio8ISjmq0eF8HI68Q+4/kBCiQ/D50BHEjzYo04gsjYOviWclJI6IKoQv/Fk899YbMFXWBx/KKnAAN6EfBk5hsHa9gD6eotDZmnfBEjEpyby+f7Td/CbVn2MxPIWCnDPGfwCuhO9qdMKpEZ6L9ZaaYRvdU8eYWM5NyQXF+48RCONnZnsUceXPnJaDKTH88fYStBc2DCsayWybAwekYLn4JAZDj/2qDMLtUTQmJ3hjgzUAaX38YWn70WWT+GqVg0pZjmEhd+LhwwiBLFHHZRvXgfvggDyoG0vraOFdcr3PZRH1LvQ2W4ixzDXjDUSpe1D6Ar9IBN1wBOstfz3ary1+mZNUYFMkjbAp0OOYe4L1nPpPYluuagDDv6EI0PqL429OV24H3eZZZMUWt5hQs63hDXqbENpCy9oLwDy4S7uaomi11ZvO842amyRUc5W6JSHUUO+YI0681HaQhNM+4CciMcdWtEvs6Hp5zG/e9wkp5i59PvxHNaog+rBOgi1Qi/KSh1wpQa3m7wobb2C63soOyarlPCinWuoIZGsUWceymyFu8jyUgdfml6eB45hOsoNPUZ5hSyFyliDGsLcJ4inIZSFXwLXBuTGSUycL+5GtoR1qcIAPctTUSPCWaPOLoSy52QrEBRr8GBM6UT5RYQeqybUXjeFNeqgPgkEv9e/Wv73AiwivtbG7W9QQMIe6NT/QowYwRp1hiOUhVYzXABKwNhjEMqcGosSAsJb+TIQI2xZo04IQlmoRXEaKAOhn2zrNCoiXgZ14e121qhji1AWmvw8rxB1gHWfAOLEnVVIuiTo9FmoIazd2u7Kr6oZHt1XijogM5aaOY0nlRIuKo76MtMNbDHHnjrHl6UYdUAM7VeBKxKVEy6W+mY4N7ao445QtUnh5Of7SP8nFXOS6xSUDdq7egI1wpkt6gxGGRvQ93NAwddD95Xa/TFKilZLXcrEWNXFWISqxYIuepUY54id9EqLooKlUKeGV7FFHTeEqvegbyheWeqAbkInvdasrFzwWibU5Qq72aKOM3UeIkZh6oADRFcgd+QoLFYudaidsSa+NdT/K7PS1EFcdU3oFcsCeHkyylBfyRZ1PkWoCjVR9wLl0YS9P65QeaFOUjcPa2jXgdb+FqlAHRCP/gSjIUsFmazUZQUe2rF1oDXmsWpQh+9Cw9d+TZ0KIiVShy4Yow7qnotWJZuwkPgbrg65SnmZMqGSoD5AzNiHIr6mDXpdVYE5WfiLMEoVF6qAuqeaMeccFdepV7Pm4s3yC4Ko4MV0paVqoK662KKdRASUOtmKM+d/7F33c1TXFRa2RYtDC2YCGGwDNhMDpngISYwZx0ASxYwdgj2BJAaHGcfYSYxTZveprCS00qotoFXv0qouEkhCDdiVIoOQogKsEBEqFNEEYuCPSAgpQO65+8599923uuj8vO/tLd+75TvfOeeUqmp6DaJ5nRpiM6xPjw+L5v6s1TEBJYLVCVPHJp8X3K5kdMaCWXJBZzkWOrmCZyg2XK0PK1Vswy4RG0FTmkmm1wlYjITOsNgJ6lMv91KsfgAdWhoo2QobUXKkNBh/1jmNqTcdkmj8hkUJUpsy6enRJt9DR6nxttBeM8bqDvozdCZIhpyAz5CUoFA22YGN3bstrm0R2GOydEm3lyEnTqQPq8SMtcLTBvM6lPPWHNmg8zHS/RkuDjktDFF8laGiWleMVW4HyQadvUjRhVuca5ophk8YvRNF/HtK7kLpCowEIvcLxf8IncetWlD7DmLz2AfKBp1pWK+joNNEBC2PcgLFN6GcEsRyE//9CvyAdKmZ1sN9rSAOTpyQibE00Xyd+2ke0TqPkBYmYqVeS2SDzlLKMZWh/govo2m7Ci/RdRiRQtQ7d7AJ26VLQ/kFxWVNHJy7IualjIaMfyWLp1X6zBUhvW/Brsk/kA06i+C+kvOAOEV80ZT9KOthIFjwSVr1KwFtrMYG00hXEIuScvsGWpHCyTyUyCu37d8/6kyiYKfVKL6Sst5JV656O5Yv1f/yG0HxlofcUuUaVfRPlmLHsl4TZYMOJcFOGnFW+vWek84mlcIKmiAjRvf4ZqyHT7p8cFT/JzGtlkPvOTmvOlQvg5L3K0VvoXsSssCIhPWwguDeEktcJuk8JT20wHKEr6JW55yChUQXGvz7TfJBZxXc2yoDBDvpIRjfJs1D2q5vQ4nFzimlLbfJB53dcG9HxPs/b2fhFBUUXYaiK40QSgTtWfiB9fJBZz7cW3L98Es6TkhaM1bHddKgo/IJLCnwmnzQ2QH3tpU4PBk6TohDBaHzhLMrF36kTcc8XzZsBN8H8kFnF9zbcqxzWKsVMGw/NBbonn5NdWLH5iX5oPNtrCdCPzrZFcLCD2ccMIJV7kF6P2dOkg86ARvB7haLTYNUU6r+Wv6o5cHXrH26OWv7kS6s70qInIDvwLwucU4G9bqzUFjkqk68J/JhEm69BBiDyNvnJhmhQ1EnRyIZU01GkVHE+yik1EWRhemkc7+OzCCzW0bobEBygjpVNSqHt50YX5c62jVrSCAjSCGTl8oInY+wX7Mue0BUnRY3eE2RYGYwWkGGY7wvI3QoYq9RdKpFVttfqO2aZINTqYTrUZedrGUqgx+YJSN0ZmGJHT1Kz1O4wJOqXnAR3u+addCb3kGmg5sQIKVNRVKmOtzOrZTAGZWp3s7Ar9ChvHYrsn7GMjmhA4edHyIO0Aj3ifDA203WbbV3+yr4uHNZkKgIvggGygkdSgDoESGyi+gUWFCqntM7ehW+onE/7jQh4/HflRM6S5C3c2U/53mgeL8LMB5JeO0a5s3uhCPzLK6REzpfwT22iyiJNQAjx8HrxMSZ3anBtna2nNChJPuvEOAAzYAXi2xkNmSYVVb4Jou7i7ybb5QTOQGT4aAIcg2NszxnIQ1mdMKx8e2WBPi4zZXI7EBmSAmSFDqUKxZ5YeaqbOe6UsTBmVV6ecrczyFFcNtkhc4K5HGQZ2avcr6JkG/BzCDPykdEn5kCU4+fywodijyZHJ3bx20O4mI4R8O0w/d8fqf74ANI0mKerNB5H+7zELrqE06jA7u8I5OZ3pgDh6LHc5MqFyOp0gXPyAodisa0Rd+1X4c1ouYIk9QQZWRh8ij4+zkB0to62EVAHKRGTlOQrvjgAoPTkmuKYz02V31injO/3NtitQ50PLQBq7XFW57vzEusd9k8scV9yfsf7nD1YLY4JZ9Tu0uQ6WMCpUXOC1vg6y5RaV7EZwYOwcEM+6oSUq6Gh+HS3yph4VfbmpPgW1b4CT4NJ1bPoFQbni8pq7N55fOUUcrWUe01aBZtSXxu6MQ90Q2/e858CUNp3t4wg8VFrC1LaHRUvbd6qLvKLN6abn5dcNkVp03B00d+Ne2RxW99+oJMuHlj9V8YHUztTLxxVL019e+VbQfMhpuSldBgby13xTHV7iMnWTzj46mZq9ZMlgM3y3fsfU6NO5oc3IK6gR+7MtB//3qWYvY/C7mW1FXm/StuA25nFU/O2PDrsQ+c2Z+8qG6YOg8T93VVIgZLbF61vTdyn9n/zZ19r9+arhJBvRqyAv/ko2+OZdxM2rxzsTbO3Zfu4qjLOnQ8fixg5glN2LAj0xnr47vIIQZvHFYrCZqwbdeYJQDnr8WszuTIOrDGZUR9j73qgnlMW0jbSOplGEDkaIjriDHdMiaXnl0/msrDP0mIHrZ4WoZ6s8zSWFj2zer6o6pvDmdQo/re7jFWunr5az/GOyjJeZIe+83p9IKb2SFmGa3oeInzCdkQOfDHixzXKZvWjJ3kF8+sXsdyFS2lUqfRd6tPxitmuS28st35PyL6GpJLBm3t0rHhFt3+vWfZCLARSGQa6unoapMdNY8stI2tdx/43smp4C4wje2zX/o/zTx72lQTo5FTbSW1V7nNT53ty7Z7yePRwDi6e1a87d/uhsDnTMxmM4+bb2PPHzblF3/0W+DMe3WKJjmWexwYvk1TDod3/DMPxtadWv3EvePA8E0FpWkb46Df+h1wpq9cqFliUDaODN8eec2j/MrP/OtwvG0BDy3fODJ8WjuHcf7DIv/RVOyeqb0/NS2DMePI8Gm5HTzK6W7a6h+q0Z9P0Bwz4hkdVsZhodKyS2yaNYgLVxpfq2/Sb17U2IvQ+jNXx/GAZA3PJWrNILZn2nZjkTN3i7YOWPK6wg2bACUmsjC3t9FhHyrJLBi4mH8q8a7LdiPjWNyJmoijyYdOP7RDyUcjak7EHcu4YXPdTTyVf3GgILNkyO5o7M0tjIwxbLGM6XZqvGy9OX+5ccB5KVATkZPm7BauAS097hgq6/EmujL6onlIz4OjT2S4bnkrRocctUWC++IevKwtA9Fao+paL39XyyEnNNFhgHY45KBJP6NkYdENPd15mpJBvfOhEchZs1ZDkz1DRwxZ5lNNelqrEV26YHdpWD73fCLcqT77VQ338IJs/UbycEptF3gAaQ7VFTrBYGS7MthUpN+xKLJEQw7DdTvEIudz5r0qLf+4PlLiuoT77S3pt4MpxRYPZ5j0tShwy8p8EONzq+JMrU5C6qoW9hwJOwWm6f7WW8wblZ0/77cvvuGxIIOMEMr86WzglhX2X4VWZ1Re9fkm/vdK93kba6snLBWkI5y0mlGSY/HmcgZN20hq/g2L2l1jOEd36ARfh/78yQxlEekd9irOAMruYS26HiREzDP9FbbWFffzlKKX1n7t9RBpsR7Dtiv6LYsYedd3pdrBU2ztPudha/fM13WPGJ38+vMsLcvJq+V1SlTauqvrI+AzOLgjlplEWCZ4EwJTrFs8LWf5SSGbyjvZFh6dQyd+F8TSquiCa5xQ46hwRbMonP9pCaFCoBMKJjel52YOjvWezeVDDBVlMiUqm6prKa2v3mRoUkQJjy29tLG1/rTvP8sDyUCPSYx5oP1HqfeNO88AFwG/285Uen3vG3oB54fTGJpzzM7jUzquUmqwH0zCVGISZWDyuRR1LsvkxC4OC3Qjy31rhk4C1OkMrk7bCJ8jjtpKI/3QCwotwqBjAYuYjKp8wygfqochiefCL/U4LX+xEd0QVxK3q4O6BfgGuFm4TOIMzFwYpjL8jhfZnuDEuyg+/gZv4Ex8Gb/iVHK8jKtj88Ay1GdMIs0ONaNSHY3Bz2WRfQcNnhkfcHZZLUOfFhu4sl3Nav6zBXTyRAuFzmlQfqGq1lo1V5owD9v6BVyTWc7DSgFjB1m/nPBm8o6j4pycDHGOyi2TWHOC92Y1GCbT4cxLUW49tvmBE7kh509IGvC2g62fSna7KyeC/KyKWmfnoPfeN4m2RqgpKuplxZEHoOLg6HVG+PRiiYkgXgeeJTgt4P5Uput4SGVPHOXA4jsAyQYNbHiEcOicgDjtEN/eEHKsufIgA0aNtYFpbBUHMo7il7/iwuYE4hyAXhaRet2I9xB9q1d8ZbEOboZebjWJtwrwysy4Xw3/58O8080iPgjrxx33JmzmEGSF83baGJzjMY5Tjyq0j7HtWAPsk6WHC30Yak452371yBWzM5ElFuBIC+qyteBTrcj5/WeY/6u5id6N3SedFlW0Rq6PMzKUV/BwrBHQMXn2MZ6Uq9UQW6GJjjo0eIZxBPN6jVlPvo/50nqwQvWQWi9hIFPJO9ZtNi6lxGSMDUEN6qc/R953C//vd2nlDVi1hnLuEqYHP9UiANuKSdAVhU2on1BAPr+SM3eaq2l/fhD6yOMtBkEnGjrzHaYy48B2TdTjJ3dg71xZXsyutYLdK7EL4SgPzcSd/bOGboDvSsGzghCPzLkCMMYuQ12vpT0FpPuABiuqHRn91Yu5a61iDfKb9x7ieIzyuyi1Tpp6hqxLVygeIC/0T4Mm46wWahStaEob8Yk2+IGcPNzG5S5ALDx72bAzV33Ug6Ufs3CWlvhAvgfreI6GPr0DfQZCpzgMv4keZDmw1ZShCJEmRBLUP7PsWYvUIycKseQoTeW+5XopyE8PlMgUmIy0Ubwz92/kB3wRiTnOSsTH6x5Q34eVeOzMVR/2YFWvqw3rUsWJA5FUUNRvHPR5Z4caCh1QuVMH1RcJLlV5vyJ8v3bEdb1WfYmcFVjkfKj6bnXoH8xd+1NV1xW2UzOmk3RqOh2T2olpO2lq2vQRp9qHaeOkvzRtmozt9DnttDP9xem0nWk7OfdcLly4vCpoBEQgPLSAgCAP71UBuWqIEfAZUfCRqKhotBL/iQoXEGSvvb69z94b9q9w9z57nXX2Xo9vfesIHpW6m8DmvKmWAOpaCCgd0dhEHQVUY9mRIBixlj1Z+KsYgTfxIzXNeQyOBH4MI9ZLc3A/uVZsJIkNvDFfC0g+n2lQn4jOibn9fRRpHBmETQf/Enwiv6hE1Q9jSfegdbCHlUBHhJUg/FTClLjyMudddTZSd7k4Np4r/vdChRX3F6NGzyH00lqxUqHYCuUiyChBH1MxvEIExoTHSM7CtJEZS3mXQoxhj9KS7xwAlae9HJzxieWw6qBg0jiY6+wYUxa5OByfFKQtcim6ldrIAlCdjALi6a6JOLnEWG5fte/ywS5MeWLox7UUJTR4BQ0DYoHM0RENkYtBK6LqW8ox98cCvfNIvKJ5bP9Yc0U8mAZuVyiPIJLmQ+qrFnViynMSrBR9DWPhWQUiu3ZAmYfa7VoSj/sggOJOuuk4cji79/JQ1oP1YzdaLw92a9MfUTHl5NyzZBv8vQDuC1aN0gH6vI8gmvNZ0C2HuNWv9eqKfAiEKJ+i3swdrWUTg0fE6I32ksErWjNmt6EOeljsW6f36UlwpBB5QwVgaPlXgIn8R2yqY8BjbXlbn2TzYgjKIJOoUh3qt4xde2UOY1rnVZ00/CXqRn04Orpf/H9HtI/Pi0h+ojIfM5V5lu6XsKc6A0QOTsY9/UH4qVkPnWIU0CNLXWnjA3wX2soGdYc/t5GYrBg7QAOUc5Q1AYH+JLbAaq4D7Zeh7tIRIII8mu8FGoQgZ1eGvKcL45wzejZj+ee208ofBFkeNtsMvCK22toDmek9R3h7OQ2qDvN+Kdec374JHex8ed5wTlBW4k3iiU/Nyvr1U3EkxcX6LrXhebgGxYJAEnDfP0srdmuX30hHeS3vpGOtaFdJVQfqaZXBVgT7JQkv6KgWu/7pM43VDxTj/NS73aFGxVtfp7aVZurLPzvzv6rUQF54mOEoe2v5kBO39CmJ5rwMvdPb3JNkjXgGBmFe7gasiJNKC2Wq1zh/mDBx+YYqZ5xfRP/KQgOS3Mh/69AFL0mi/xyqD97MPcZmMxXeFeJvtYqP8u9TMkc26bB/1ysFHO8kecz9OfZLCTB6ueqb2P+AWT5FN9KCqJe2cUfOmGdoEKVM05dRJlWA0aRyWWmS2fhHVYw5iso5OY1i7BNrV1vCjCzjBzjzH3ltayi86XrEuzrOPEJJnynNoSyZ81N/P23AMS+7HdIdJQpBnreonM15Rq7msNU5TKVTHmJUvUKoDlLnWSf39fJ2eeZGi9hbTU4q507Kmx5UWOJQSH8UK1zMlIMeq5AbyQYLOnaOMncwgOP+hJjH4Dkkqi5X3cJuz+QgrMvjqb9SgI/D+E2SKAwFGTV4aiJMrTTZ8r45BEVAg7laTPHBdeC0/qmwEeNS4NyVxwjOGS6XIyLzKUP5JiEHvxye/0pQ5rVR/NyhoIyTINgSc+kUmUcgj5ef4mdY/DeB6vwCWPqWNFRmnlGCALtMSLtT/hkjBkjwvgMd+HLsRWUAACAASURBVMfSKcMLJsR3s3/HsEA3yi8tAL/z7bma82mg0jNHijn72LjmUNTnJZIwWxrMGFzdFQo+TsE3SjZlmo3HF4m2JHuNSzRD+vWn8aHUFXOPnS/wyx6UAXSqesxrjhcXJ7LTE3TeczM8+bshEwMPBFDxsNowBbcI1VmQ6X9l4IACvj/JnLjgC7/nrSyZodNqh+iROOWPUlUnoX1wZrvOiOaEfDhynqAolXopKGG9lVY622V5CT4Ov/hz6ikIWXvCEks44I8Ix6N6NChMp8dUQ6H2zIDXbyiLSgpa4nfJl4XPeVDnQ3VZS5bxFpZEWa3RElMnOUWF344efuGhkKnRiZo7ZRTy6ozYbov1WJJqt6TUr5G9sj45m9/0L/x6e+nlBjxro0ntNZ6FY6shcwMOg/Yq6qQ1qV7oD3IMvDxLdXhU6VV6sXftaY4XVyIAKUDvzUyTfSQr0chguFZpXovUQHH6SXyWFeDVWVB2tgiijC6cuezZHPesfP9nQiYHLIGPlL6DsEWxZtLnDg+Tm9l07UX2v8/SFrJVzaEiyuIAASrsCrONo2Nwr2gVzrw9VuXak6VvKb+kkvg8QS7UarvGshQXNgwA/zBkdsDQsnxcZ9O32pVr97D2F7jmgeY8s0Lbqqzts6w5VB2oKCuATllhWHNCPnzs3DOvjrqjmYzwsjD3B/2Jv8pGA6nK6Wi37Q16LSjxE86mc8606uDRiWzY7M+3LtlB6ggc5X75Ndy/olge/TrP/kBfNJzwSbQZV51kn+nd1DiQLAkVLmd+uHaah4lFB3a4DgXOSp1h9oFfZP4KxAeMGugBOYJ3OZBshOpGwBWcbpgq51vJbpd4ef1lLlTHw5B89+D5qiyoDn5IHIPma3TC8NJNGAMsInqq+ch3uBWItgX+O040RxaNnPEwFeh02SEbA2ayTkDRyCY3oqViLlwdxvdQU+dwUHxDwHMV4fE5BU/3thXVwSnEkBKM9IQb0YZr9JzVdZOqw5Gyd4unz9vqSHWQRFYM7wl/yIrqtMLr51YuAM98ahSJbRGOSOxnqc4jn9G8r952tT0Kfjlz3IIn6/OtqE4bbvfxbWH9m85kW6Jn9qdAO//iZhcDMaMOu/ie52SdhseXRkJ2Bs7RXNbIzTXkTrTdMa37P2Un/5mbvd4lDkk4bvrmDvhtllTnaHDjVAFvZW6IK5bqmV+lGlqvY/4rLj5TNzrcnscAs9J24lN1WVId3E6XZARTozTsULTNWh7jFydU53lmbjFwttil5tA8oKlxXmGqG5ZUp1bhGRig2QdOZduvc/B9ZUJ1vstM3aDl+Rt2IvtNHToZviXVSVc4KsicYAo6VuZUtg06TtBrE6rDNS8Sk791O90e3U9Y1ZXdGbI1VJhZpFBTx91K83Vk+uYEZSk3tRCU3O52e16ZJBgSU1HjZmuqU6TwFNUSFFK649YWkaRGnGrDRCNzburrgdLUdo9VVQPVWPmVYOxXeYxBep4zrkVbo2O6PYpEBAvmMwkxPTLJsKCv1Mi815rq7PCMHDt+tmvRCqOCjcyPxnPny7mZhbVu21zvjwaX3DZnNAUag56RY6fLuWSFufwo86Nv3led1znnxg8YADMV9qRYRg4qTbPbmuqoEX1UU07WmHPJCoOkbcyPnrmvOm9wM8fmN4E1NXK3GEkyH7emOmpdQFrygkelDQ0hb8MW4NRhLyzhK7vsfIMktm9AaZoca6qjhusjoReNGa4lu1nHhR63ddZzMzcuiBs5Qgbv81pU5rlqTXWUejnkRhdILPn+EJIlFDA/egHxsIQseKWu9yfxZu+qzLPfmurkqzyGBG9WUO1YtPUaYK+nJzgEuZmFHDd+wvH+JIBiJfhHhTXVUckH5w6b8vKDj406wbLvTyQiHmemPr0Q9ic9LFRs9lxbmuNHzBw6Zrj9A0e6GA6K5ydU50mtSMgRt/uTko0Pqxw7lZZU54apQ0cxLh14dOpEqVKVWK8yU4uzPslcl9vLlue7VY6dIUuq02nq0FHBORsYW8Vhegbi+q0J1fkG94nE5t8RYFqaVCro8WVLqtNg7NBRjXLaCHqkM62IU9U0z3KTjwaGNgX+Mri6c4Vjx5Z3vt3YoWOdeAaIanPo6OcmVOd33OyXxPurc7e/o5ysFaydHkuqg7ucfSwDZlqPM9EO6n2Ln59QnT9oejdVzhC0Eb5zbhM+W6kVzVFwiwBg/SVXoj1RoBekSjXkW/Jj7s1FTSRtAgzgjoniIeXL82zqbAUqh51VKhE1YdeYY+HJyerPtdz8RJlXe4uj/R0y+urK5zmWDLHEO4J+xwk15lKU/55UnX9wC2yaXzxbEYJEz4Ntjep2C5qDc0ZmJs3OF2hQlUVcv49nJ1VnFStsgi/AdxO7Ogm9PNw8OGZBdXDo2/vYhE6cECoxWMX98PWppjQbuP+kgMHXrjjYXwIjM0rCFQkWWFLwgsY7IDVThwPJ7szTvC4fnyZs/zvr0KbNIxryKPj6cIox8wFlPJSMEsI5CAtmHNaFsayb5hJkg4Jks0TL5L7jI5wFCrsN/vI3GVedcvjEg2ko7fOk3NK++x90j2XRXt5NapXYiO0Nvge/P5goJVxoWHMOwUYtzthsnZ2J5GppY6/+9Q+Ik1drm+KhqO3aj1ZY2DGYE267YdWBoehFCmXLTXbletXXvvlXz2BrZ91z7z/kQjfiVnfYrSBs2PIKdxjVnL1h899BKFRvlYlyjDTXt7DVpzM7YvE3lsRDrrIaGVTxpH24/ehBk6QFOBmdGrrVJpouf0sAvO7yma1plmnHHcdv+rcsegHDKsLGPdrTBlVnAF71cMjObtQ1h87AZrFvc82sflh8axoZA16xPVaPQUtVCblZxjSnFN79Lspe9B375xLNAcAjv56lOk89wf5A1jW2w1q2jkhfUc9SC1sd5aaurBicvSJZdY4Xu030jOUFsRcXPza7+ecjgKpKuhzXWLJ3iMZVyQsUlTKezW8wpDp4tSZVs1wQIeg3knakWicJaA/zTs9vHuo4/E9gyQGJAKvs+FlEwuccyTpwDb49Iq1GNKcLPuf6KED9oBcucJg/PytrdH6V//0bDzc657t/ehmy5go3bMR3MqKUEUAe/jjUNGEC81WLHwwDkkuWqIrutxCcl8KVAKqinzysOXz6fDy4I8MLRC1QNBBGco3EfsbBF1538LqaRrxuj2xJM54jb9kXMMEBH33SqqRSwGZdOUd1AP+c4TVKyzGuOsXUCX//66kKnAX1ioL2HY5W4ItRgbFUTxui5MN0tVu2lM4zHSCJX/3oXNX5a5D9p+6R04bjn0QkeThDlkxIU7g5m4PpTjQfX4oMQo7J/IE2s4msOvl+L3pah86iJV9HjI9ReRDLLINigxT9eMgAECQ/GkBz2lU6OVBAj6lyvY6g/hs/TrwvD0gcA+ZYtkSgOpC1412Q9zeobza41bDYA58i22umaL5UDITsAm3N6VfhJ9jOwXII6L5BRpHu6/L9HEAYNn6wSDi+BH2ncmhtWpM5UC0Bq5nmie8knqFQ5RESxbo5TxWEZKSUc2mopl/GnI/eLfL9FCJh3bVizVn0pxXQ98OEYYsvmNosgW2ZZs+qiAWOC46/s0taiNIGJRac3Tw87a62uwx9IbeZDRUgtsbTPyRUZ9H/2bv2p6iuO37AKFrTKKkaraZOMmrSSaI1amNs0sRXZ9TomDFtmiYzrXY68Yd02qRT9rIu6y6PFV0MQURgWVx2XUR5LO/XoiKCCLoCigRF1ER84OOPaCZJR5Hz3fv9nnv2AeHzK8u953zv5zy+7y2oUahV4+vulzPbffzGwMZHBdOgXkcumj/2Wj6ZOSaa1nwVulI9lrRSxo8fNEgJ/3aqZYGUoHolPAMxhy3cgBqHWlM8JU2KAb1LVdo90OFJLJV/ldr43NdCe8F5jBHqAf83XRK2nHNqDrtu1I1/6kaQOuwlbXbRR8v+lgTq8CMUhrSHhfxQ3jvEdx2hhEPYLcSngwHJQ0zfQI83m2ZBdqqaPo04H/0KmDks6gVtq+ixjUezQQKwdAzpCg220SSb0nIKsG6JvH6yIlCHcrhBjqxUbXKsVffVGXGvWMT84YNo3HjU87azOzVSB8ivTcAcajqFbiTYUYAJdrf304tEggkYT4ioWbN5fDgy3Op5X0j71JyFfqnDVsVIOrO+U7V2aZkzYNR5opgYqPTuEbARxN6/VOl3RkkdFoHH7jiNHONO/rlmbBeXYj8ios2Ea+wz6XX/zGET1yEHhegWru/VEAEGhPE+mZ0EptqIOdQynGlQRGvJwCmxYthQrfDhadeAAn1XVIYNmOh9rGVzG1PDLyKQ40owIxzLXwsbCAeQrmRIOtmiWl5OauG5vKH3LHNeWluD6Ex2Qn6juuFWAv4Pq8Ve3HMB8YV0HqTy/8pKVeqwBdihncJkT98Q9Exk8G2fw2uIg5lNmq4IcbVVnY79rWda9zs6qw61a3kUpPjrh5/nQKKrXsQzmNiKqqjxELmTLpnCEBiPHZ0FU21EqRGKAQMiwAfR25NOnxkTDrBQqA3U+3LQV14pLhbJjdxLf7UWwxwWOQM7wGQbZnj6DgHXBN8/pXBsnqBd0BMW1LFDCjHPepHM5xm1BveONheKOF603X8Vw+Gz1ehdsQ41RMMZqpXnajGeDWCPl4IwYA4YHMffSYrUzaCqaL+M7MdtQifrLGJYrJiE1mfduJyUylYaeRIIalMGpIC6EkPOnBbIPZa+g3JOtxJuaV3YDLOKfdhn/nMCmjpsOX6op5CBdl+epFz2+IFRhhaKvHGxS4EFaDoFEuUy+NI0YdW7lmasK1fBR8f8diYjYBHB0G1DDtZ7Hl0NuIyvVj4Efn4sXG/KmZDzCqxo3cH/PU5PLTuJDpjNx9fymzqNwhw2YR1hi0zBjlc/gPyWhaSlCmsxob4pQ2FkZtD0D7RhxzR4bhgoRntwq/H3h3FvMxomf0qQ0EE02ZUKFNv520g3GDV/FuklCjLAhHk/Nie+DzRbLWEgNvciPhPa0Iafw4aPGRVT5hBklEyoV2NLULVC1SvEpQdabINW2pmrf0L3jm4/FlxAX7T6V0hLKSHWdoKlLWIWo+Pj1QQpxTbr8UPv7k0W8vr4OfDBMhwpIaQOeEf2F70FJBD5K3ZnueQlEEeflRNg5jD2YjRFTg02wvCVOmss+bzyV3we9E4rlvC7I9ty6DbEJGirbmmjCF6nu0HJAFryORPD69spktoxqKdMwXQY1Ld6FLqqXaUIfadA4phYLFEbRUW4l+YlEcfroIhjzvtMFCtI3Im5SStaZa67207Rr/zvHw9oZtvAA2yorhLBWM5fgZwWWcmHqUlkFZTUsZjnPmEsWNzJcXxJm0q3j8cHD9JpPgR3oOVXWR8S5pRni46nDnViXb3soRaXMtGaB7wyl2nBv2nciamvoaalnD785ErYaRYyxoN5GtUhoQ6U6KOeCtypfmLtPVhTTBW0vpWWYvTuz5k2rP0ZUWS3yFVrFHthGWKnV/PVxYEvvhsC5kBZzbp01eCfRIP/+MgMZ5NXR0Z1LW0CW15lWjFrA1FocVn0iSmerjKVDXu36out0NdytQSdOWDhRQVR3Z5/bTN+bxVsOXilks4bnY3YQ+j5xUwC3p9DlVt9mkCJR8VeWutv0SGcx7fDx7gDRm7XIP4ZqFxQFdNzuaJYgDe6/MtENXPJZiYFU5aRJWcRq4aed/JEbMxd4Wyk+kp5qTXaUAvF3noxKk4Gf9v+9rhY0dWkw9TgkxlTmCQsXEcXnlOwUF92Gp9132BeCtqUT7cHlzpg1hyu0uFDnTwUnycnU46PZNIQ+R+B0z7BJFEAqs0of3gnaFh1B5U5oNszHUdhea3Y9R13qIOP/iOTiajfCwgwzpEtjzq4IwfUa/Q3g8gc0KSDbXi51ytHaOYLyeTBL/uYScaCaAEZJjbLIk8JMqQNLFlxIzZ41EkTtCMjTOOko6rjEH3sWyKZdHw+NSaE5MGWvN8Hvq40aMwB3WlJ6LLkjdol5u0TyENZ8hELBOauExJkouO6BOp0ar5mGGqDxJwM0LGEq71e2+nbo9cqr263SKWRNc+ywODVbWKybG+UUBbddKX5HipsC2wJ6wnSkXUGGoB6BYWyXHeFUcJC290l0mZq9VYWOHwUISbNWOcxGaeWkt5UWqW2mkCTSmAaLgw3aUGJ3v472CQ791fny7kXevqF4kzWTGOBxJRfC0v0ilmOYJTr1e7++BwBQ27loSAwB7YPQPHIGZbGvq+MktQJXfFZsUpO495hAcaEbZNEhZrcK00+391c9qQ15x6KpX28r4JAHTAVlZNPGJfZv/92usxWkqYswZrnry1kgcfaN8UvkI2Sm0R7bU2DBalPfpP7ikhMsBxkFqPc9+UnGltr0vVypaFU5wpGRC57kQUFk+drEO2JAYNONpR8z6WsfsujNFhfyI6snG9VgobKLQWDaXajTj6uu+8IDjpi1UoWLGyN0CDdo4U2XWCQtOdBX2Fuw1E/fT0DrWWBTjR9bm5hX43tywBNvfjKNdEQ7Enj57IgYtq7mgR8vyNJF0BU5sHes8AGKscbdKHA8ULxcrHvzWJBxksRmmScUVCkhETKhvgAMif2WAhmZGrVUO3zjQVRLOiYNl+jnOubbaHgzg3r/V09sounJJbtum8t6Dob9Nl0dxzQcARv+NMEFhJ88aZWiWe6v9GFBmajKc9edPtsSu9gaVtjwalrRywN8Yfqy4/ubYc/xY69R8t7kuMbLAeuOQsSHFnuvktNdZ49u4360Ewi6axVS+u6p5f+mYUKG7dM0rzFW86YdGEGc7E3yZhdku9yua6brrtc+SXZxqRKg1kJq1EaB3LjtEh++/q5LJT45XsSLgiW1nTdGEhwpVRpa5X5/B+msRAjaus4KYa0LLsyRggkbG6LRhPD9i1TWBhg5vrnpdw0yxJqKsdogUCfVklHr5/GwgSfzJekp8RdGiOGOuzahByxdC4LI2x6RQ53isaIoQ59hgYJT121kYUXot55Q0a8gneMGAiI95Gd8Y+VLPywcvEczdSxjNECgywx6U5aszaKhSci523QSJ3SMVoMCQhI5yczVghdcdZ/wMIYM5drIw+/vsrFG/qfHm2SitzW8ph6/t/oqvmy2dNZmGPjW0s02Ab5eTC1MXGWwrTTPxm7j8Hu64z/kR18Pw2xjvhTv9nERgKmzxO2EdZy5ZT/fw/jAUdannl0s8Zr9zU2PG4m5vtTSf0Fn5s3mY0URC7+VIw6/AyqpqER4Ak+T9IoJI3iqms9GD/sJOIXqepAi/TpRZuj2EjCxJeF7Dz8dgGccOI71tKB46NGkTd6UtqOAD1idvE9Edgorpc2spGHzfPpTnV++A5UBi422eq44Mke0TtNka/tnt8MhlhuELOCCTf6y9/eZiMUn60nxhEmKiLqxFVL5/5z9u6RxZkSz9ms/gZMgmYF9wGqVT9Wv7Ypio1gTJ9NuvTwW7IUIWPlG5ylKXV5YX6KefPqfA7nTUKMIj+ry3+AdfSHX0SykY6otf/Cu9X5fSGIJZXKU52FvU3HTGFlCjK77Ff6HHctAtl1/O7VfvpFbJ+/YDobHXh2+X+RUjrHlZJV0Ea0s8GaMJhSY98dso3InL+n4pK7zWmp1xCVVa7Q7slvzWSjCBNXfPgURkrcUEFlX4xWJB66nxt8l7xilZPxxS24ogdDSxewUYbJs9WrHBzlrq90OdEcO0sCwQ5DUgADsn5EE0ntjFnKRh/++oyKZ/0AV0bnJH0BK+zHKN3XU5tpOVJ1y1nwdUKXozRr0O0+2dvX5/Ol/ACfr6+vt9U9mNXs6Er4usBprTqSuit5Z2IOnKCss8VJGjjfJdwI/fx3bDRi4trx/tT1QgFdggD4KxtSRZ/pBPlokFb0soq2p41joxSRLz8HyuiCmAUDHbwK5wvuFuzxmAwXHZBXt7CcaLJ4drRyh80A53xc2G6KQzysaol1rmkHi1roLkosisCt9OUCf/730cqcCaCZJ8cQwFuyH1fi92gWeR7Y2FPXXSZx2Hx78v/Iu/bnqqorfHgHKCXtKCh1gBJRiFAE28ECYlVaLdQ6SqetVka0xbZO7YxDe87NzYM8gZBEExIIeZEEyIvcBPK+5EHkEXkHEsSQNBAIEAvkj6hIUwLstfZe5+59bmff/fO556yz9nfPXo9vrQV+KF/WFTqfwB8FpoYGJe4B4Kx8G4KplWnouKTOUOpiPuMgdPkYXaHzPqihXpk0XPY6Ck87zCIP6tsNGzodMoUGqCggZecfukJnJTFZc13qLmyE0xO5xPEjkXBnu7YUqUJ/xnxIF3T5hHGaQgdu2s2exTIgdRcw3nw77U7t4I08TXJlTmEejPXg9ZM1hc4rNLJOlCl51cHYifP9FJEbiRpaTH5yAXj5Ej2R8wj4wjnMxp/NsrdhK9yRJWKj+G36YUe/WrbIbBfLkxNgLtbPiZT2dun7cAs2d3YJu9RlsL1dVCVdZHYQABxWtFpP6ITCOSZnPv4QK+juN07QVA7zwhnRWvkSH2c+CaweXqMndOYTM1iX5G+EicxhF/Sq/w3fQcWsv1paAjRYT+i8RsxOblawE8hpI9bMHUnCV+YoEHg3DaTjR2oJnVVEW1BJf+wmuLexW6CJRAMcC8y6oELecKZ5lgZe/6aOyJkI6yed5oGqSmZlcQcBxBcgxEA18jI/k5Xg5W/rCJ03YMvTTYt7+baQ5mEFvFQ9MpTzc0XiMmfDRYOXh+oInXXg6+5n7sUxRXuBZBEsL35IFlvOGjogk8kNyrlSR+ishcMt9q1WySQtnFScB5vIWftVScv26MDKnNk6Qmc9qJ2dTO3kqdoMzEtyIRmJzASpvA3B1Upjts/VETrPEPOSmcp2Azt43CAItiJ+fbE6WZNopIJXdITOc8Rge7y67cAig1HA8JrwVNsmkk+rnxYTNB/TDzmPwtrpZnYqUIgcM74NxkFiFZFoYV3ZqlDUKiIp9gX9oPMmrJ1mB8M6/12xSP1dcyQt+0XJutMXO3IBm/Mf6gedJUROSrVS6GDekjX48PmTFyOJ60Nfu2jh5Bf1g85CWDnM3MCXajcEM5UfJnD2I1M7VQuaTftjacjYWQ4bHo6loe9bN5B68uMPxCyRqV1XIxXLyWy20Ade/l39oDMGDtExt2SvauikIBMkY+4LKm3rg6+sOKBazkO0ErX1+kFnDfiy7A7/O1VvibkZaUXYOMz0DUM4ze5S5WIy+3NmgZdrSPb6CTHodVP5npilHiSL3sBhEynOltxbe5iQBS+foh904D4X7AKDfvWbYrYiblbiBr5brtxEhmPtYLnXT7VDziRYN+eYujngwK4gleOWteVuOLsXgRe19M/Wush8NEigH60ddCbDutnheB7inhnjRbCTesd32g6zCglVFL6sEiL79nXdoDMN1k0X7TCXm5FA3CzrRpiZGSVmSitch5kP3wRer10B6CKiCxHlDHTMgSIEO+0HLiPBnxJnJGTXRMCwfU836LwI6yaNRqGUvDZi/XGRb476mOWQH0hseDZLN+iEEsO6BU5BB7WDkXXbMWwTYxfalZ3D9FKTaarmOgYd84gd5LRsc0q8JubzYVqids2TZ8K6SaWVi8hf7XTk7LrgmHSZxD72T+sGnQWwbnL9wLm4b+VUU5FT0+ScdLFE5rZ2qfPZsG765PUVteuibyEOgMgz/Q2dw+D1z+sGnY9h3TD37YaT0EFZFc704JD31VmrG3TmErlM3Y5Cx4yNIiDntOl/6MC2jnaDIuDEucms4z7kLHTM0ghh5NSFOSoZ1UyeqRt03iFC55TD0DELRUdh921zVrAmYvOh+bpBZxTxwBp0GjrmcbHQYGKVw3LdIoYEtWu7PYJoJt92HDpmhghyhlHAHFrbiTks7aAzmuic1zsPHWDUuj+y5cNXEpEJt0Az5Iwz/49DgkMrrJuHHHeS81KxhyDEBgx05iG66fR3IuJ/6wRnSqir1Q9CtRJJlM9qBp2XTGL686o/oGPGJ6LQ6fCHTGxu9NGAgc5YRDfd/iVdDF/7cC8rIs8PMjGtd1dYwBxYIxHdnGTp5rI/kJPB88/dO50X6jSRRDk/gKDD1M2nfkBOj0DiM85xqQaJJMrVAQQdZo2aK8fpLQr7UiSu49rntFxMOlMLfL1ujSiDyHag00HbyNuCiYgvHBaM2VTaC1//gW4hwelU7zPT2Q2KTxVOf3Y4+0GsYclwEr5+uW7Q+Qv8rnn+qjkftvZTyF71kQ5KVkb99C0LoBwWm/Jf4iRyYq+QqF6V/3JOtH5qC5kfBFDmfICpHCfN0dLzRG5ywWbHZGN/kwvhH7yvG3QWIwaqv6l4JREWdRV95t9gMpKFnaMbdKYg2snyL6+92E4NX41TgeVkWqN/01ykG3ReQ7TT4s9MxIlrtoo/rRiHuO1Mz68R4bg+rht0liLaYUZUIpxhAFc1W3ZXsiNOegXr0dnID/6mG3R+R04AOGKJ9kdb9lf1UfUCbrCo9SLadfr/BfKy52gTNCSuwhrLl1Wgnm1aS+2yETJON+isJavniPqs1R6OgVyQlIVfEFWrWkZ2J8Gz8A9G6YYcrEkKENhJUx6n9fK6WVSZmUV+Npa7aeOwdOxgug779zfSukpLMnMSOchpLvvmqt28OPMptWVZTFssBsmE/Ew76PwR0w+zJsKl1ghtbeRgovxuf9kLBZzrsncrlPKARQ1caFfBZ7yHKaid2H3I97Wtg2cCdw81tq3q41wZpTA6yG5fipXGvqUddCZiCjrOVFCGwnRnNg857feCNvHlPPrX58oiPO3kTht/1Q46GOsC6LSYqgw5X3F98vu838hBbipdVQdltqV1ywygPIRhTMWOD+akuQhFBmj8KS6L9IGhRmGneb+oUFPb18Am12N8oXf1g84PTWoWy1KzHQd5npUV8TClYQcXbcfCHUubf5VCQAAACbtJREFUYy06Q17SDzrzMRWx/9VnFGxGeIabh4LzB1lnHPdnfQpCy5VkdvRU/ZBjLKM7Egrabsde5WYX0tkQqE3g8jAuSk9gxRB765jmUg2hMwfT0X6LSmiyl3nI55O6KqHJ0/27+P2+NsiVl53cc2OTV2ZqCJ1PUCWx425dko1OAYLFNXhO0QU+9T2rV6rAuRa5k8NCDaHzKKqkM2wap8x4Sc4R/ifHtQN1zer50DsksX4s1kXPC/9aQ+hg3QSh/kMyiRdNLQKs0cOcA6+Lf48KeWXpQCEzWqH2Ix2hswJ740h2RskrLZZzzM3f9Sv8ssFWgdvUSRoCkBJFdx6e0BE5yKDzO4t9FrgkOby9l0Wqq0TOmtIK/o0S8qWQY9lGstVjBpiDZRhP4bkBhc2QYssFgGP1iMX0BkTqRFsk+Ibh0TbczuVaQudPOO+KPTja4/v02LIegUPGajwrnHQ/JNIQo8NnczmOfedo9Iv2kZbQCRph48TC6vLF/rvnsoS6IVNGzewT6c4dle9bZmJbtJ1GG49oCR08iwU06rRifJt3/nW6WO/+MtJdb1aI3LTNJx5PMXDXhsCzkg3jx6iqIoG672YfTM7aq0LAidlHfcaFXKEbd9ovL94MkBjxzq6zNYXOR7aiGNY5u9rfLtgyZ1cp/d4nzgjd2tUda1N4yLLHTbLfagqdGbiyMiED1p72b3YKFlN57Rm0hQlCd3eftBVf2AsFHPHWPtM0hQ422OjOgvY6O56e5yzMFQSOx3YMZneL2BPc1+jg2QjlTHDS7YggXaGzGtdXEthFi7i7KRfTBYFjtfkwxDOyR/AhrtvEMA84FNCDE1lX6IocTlDQDAPLVkgeesMx8Yl6ySk++W9JFaLgqSwkwL8MJN0nmwFp6hjGxPH4m5eAqk8TjZFE9naKd8sp8pnBukF8VvGVI6JknirwJHQP4L98QVvoGM9wPjttoOJThfR+K5kywvO2BH5E2LlG4ed5BpNESCSx8Gnbjv/yHX2RY7zFy1IiX4hC3ibe6iI1PDkvqc9l7FXCQ4t6uFbPWdhza+Sk5FdrDJ3HeduP+UVeJL5WVthRROtvUi+NCxpe7KY8OLqnFjl9m8pFi8MY622NoRM0iueU4rZmK6vp7P7CY30xNNxYWVJb6/a30J6eUL83k2U1h1/3YoZaESdIMWGkxtDhuefAlJphdmJuV0nTEH5SGm7GdVUTvzZ3PTbJUwTCd3ioIiSUf1HSPwwL4Zvi0jiGGo9+uF5n5Bgfcr0LkTy3pyIx8UpFhGVzpStoBL+p0o4krvPZnd1pJ9NuVKbzDz3uSMs5WkOHe2IhDrqkFZGhpB45LC5KrdwJvN6K35mkNXT4J5Z5SO0O1CnrhrPhlFLBuVS0Z/VGjvEGP5QarVD/6dQSi1WkjGuBOskHuU9fpDl0eCnQO3E9jyr1R+WfICLn49+HTqeYy/kJqjDPbXEWHKQ7dJ7kb0CrGu3HnCb7VfNfMowlE0inVnKMCtk/3cR98nLdkWPMCOHrv0eF9rvJ1IfxT34r8R/+SfpVZrV82V0CVNV3tYcO2rZ9yFuRbyqX06tbvjfk7M74Fe2Hl1pkSy8wq3ap/sgxZonQNyX/cyttRHKC7zHuRo4hOuq96VLFLxZ45pIAgI4xV4Q7Uedn4Jivzhguc2gI7dfhrYny5N8h8MCpQYEAnXVCupd2ZnltkNa/MZDHPhAGf46am/hK0pfHJdQPPjQQkGPMWyz00d8jQ+/uNFuDi0Menp85eQo5sVWyRcIbRAh17Bk1KSCgYzwtpvqSGl/VnrXHXs+JJ2YxpJ60gH6j2nJfX6FIzLxfFhjIMcYGC5KMffNUWlptzpT+5ffZci8cTb9XZnKjT6etWChqxGMBAh1joaDeT2TYDiwnJNsudfhgHshUC7Zxu7L8NrsvUbNXkAv/90BBjjHvz8LszU47Ko+pPmu70mEERl2YuMbWPUtP2vr01A0I3n/U6wEDHV4J8X3xNaqt6WrO96Hr/tzf4KSR50Ns3Ta+xOumnreXhO8eagTQepUQX7tOsDU95Rd9mtawciw3ohls89ZVcV7C8Zv7tXjd1uKxgQSdadNJtmaPEIs0/fR13yryVonwwieusH3/+N6Oy0I2zrWDlNs+ZQTUmklTek7tf3YL7wjbmvtn7lB8OYynMFFOZ9fKoGQl6onT+JNP39PzpO2xjx1ZKYfB15LkQO+4c2sd5srligebbjX3nyyjGLDYED2WH2hGmVU7D03Z2olt78PMHTNekuoVFtsRlnTwn/uPG9xuO9S87PqZixd7zlyfcePOig5q3QdjVkiC45kUKLewtr27ecq5g5v2PNy7d8+mpz3L9q8ga5+GHcOIAwZlgwkokLiHKdlykDjcjGnkJR0JgcGTcMzTSHZ+xOBI+rJSDCMQuHIOkoTDqSBKjvuLmAeB24MYRiRIGBwpRzyATPdz5w+42z10RmbS4bAeBAlHmY+C9QpZMgPreGMRhhEK9KIGPOVoF1LkAwndAa1pjRhGLIhmHNiEwyVN8brMgPTRhs6AACPZgUw5xdQo75ksMgbI+QbsIznpMIQO4IhIAJX8kOMwME1kJoaRDZwGKOEwSlOxc6JRSn8PpHMzjHSgMhAJRzmYugHPZMFDZx9EZTOMAhv6pxxV6k8ZitB3dFmAfzThAIGhHH0TTgltbuX196CfFyxtR5MNpKlAzz6KWRbNOiaRpvRq54yWOTDgR7fpoHQ1Wu6w1cmky5yupvxokoGDbG36JJxEWs/5MGnRfm7CwXc0wSAHOSvtE46YGj329DM50bgINeEYTS6oQM2ZxiNoBfQafOXVomG1xWM/mlQwKy1FGo7jFPvT0ytsmbSa2dKMGU0oWACHujdtwpsxSZjuftGgRVed08RxNJlgB9z6NAhv7cyBOUFE0oDac7tmSqNJBE94e1J5WYXbAC7eFQqiZqNH0Ga0yMEPrMSoFthy1vYDfGQRh5ULlYbKOQ1GhwEJAvYCd+q0KFUGxfJLERUzKnjGOn40YRAFlPIpbSZoq+QMHu/EJ1FWcXHG+Y+mCaKBvIo42SGd4WA42Ap3Dv8kc/Kba6NznSTWW/585ORVMwWrQbp6rtDCnYzDeTxCRUfTAhmpRzLIg4TQVtZU0BjcS+ckNIJJmlz3UQkZTQXkh3akiSLhCz5kzQy0lIbGWl3uIi8PYpYUyhiEji4EpBjoBKoFFYth3XgjZ57LaqFhO8Q2QXIEppq4iOPstjN68tmPTjhQE4japmlkhgWZmCTxedlZOKmrpQXKD+WNs0y2rqEWbuGxmuICzN6MxgLpYorFChap/qOrcUbB8AYAJ7w9KMvM28IAAAAASUVORK5CYII=;" vertex="1" parent="1">
          <mxGeometry x="272.18" y="310.75" width="55.66" height="50" as="geometry" />
        </mxCell>
        <mxCell id="5Cmd87jd1j1dDl44HN59-44" value="Front End - 34.160.50.79/" style="text;strokeColor=none;align=center;fillColor=none;html=1;verticalAlign=middle;whiteSpace=wrap;rounded=0;fontSize=16;" vertex="1" parent="1">
          <mxGeometry x="201.41" y="280.75" width="197.18" height="30" as="geometry" />
        </mxCell>
        <mxCell id="5Cmd87jd1j1dDl44HN59-45" value="Back End - 34.160.50.79/api" style="text;strokeColor=none;align=center;fillColor=none;html=1;verticalAlign=middle;whiteSpace=wrap;rounded=0;fontSize=16;" vertex="1" parent="1">
          <mxGeometry x="196.42" y="390" width="207.18" height="30" as="geometry" />
        </mxCell>
        <mxCell id="5Cmd87jd1j1dDl44HN59-52" style="edgeStyle=orthogonalEdgeStyle;orthogonalLoop=1;jettySize=auto;html=1;entryX=1;entryY=0.5;entryDx=0;entryDy=0;strokeWidth=1;sketch=1;curveFitting=1;jiggle=2;shadow=0;rounded=1;" edge="1" parent="1" source="5Cmd87jd1j1dDl44HN59-47" target="5Cmd87jd1j1dDl44HN59-42">
          <mxGeometry relative="1" as="geometry" />
        </mxCell>
        <mxCell id="5Cmd87jd1j1dDl44HN59-53" style="edgeStyle=orthogonalEdgeStyle;orthogonalLoop=1;jettySize=auto;html=1;strokeWidth=1;sketch=1;curveFitting=1;jiggle=2;shadow=0;rounded=1;" edge="1" parent="1" source="5Cmd87jd1j1dDl44HN59-47" target="5Cmd87jd1j1dDl44HN59-43">
          <mxGeometry relative="1" as="geometry" />
        </mxCell>
        <mxCell id="5Cmd87jd1j1dDl44HN59-47" value="" style="shape=image;verticalLabelPosition=bottom;labelBackgroundColor=default;verticalAlign=top;aspect=fixed;imageAspect=0;image=data:image/png,iVBORw0KGgoAAAANSUhEUgAAAdoAAAHcCAYAAABxvWuyAAAAGXRFWHRTb2Z0d2FyZQBBZG9iZSBJbWFnZVJlYWR5ccllPAAAA25pVFh0WE1MOmNvbS5hZG9iZS54bXAAAAAAADw/eHBhY2tldCBiZWdpbj0i77u/IiBpZD0iVzVNME1wQ2VoaUh6cmVTek5UY3prYzlkIj8+IDx4OnhtcG1ldGEgeG1sbnM6eD0iYWRvYmU6bnM6bWV0YS8iIHg6eG1wdGs9IkFkb2JlIFhNUCBDb3JlIDcuMS1jMDAwIDc5LmRhYmFjYmIsIDIwMjEvMDQvMTQtMDA6Mzk6NDQgICAgICAgICI+IDxyZGY6UkRGIHhtbG5zOnJkZj0iaHR0cDovL3d3dy53My5vcmcvMTk5OS8wMi8yMi1yZGYtc3ludGF4LW5zIyI+IDxyZGY6RGVzY3JpcHRpb24gcmRmOmFib3V0PSIiIHhtbG5zOnhtcE1NPSJodHRwOi8vbnMuYWRvYmUuY29tL3hhcC8xLjAvbW0vIiB4bWxuczpzdFJlZj0iaHR0cDovL25zLmFkb2JlLmNvbS94YXAvMS4wL3NUeXBlL1Jlc291cmNlUmVmIyIgeG1sbnM6eG1wPSJodHRwOi8vbnMuYWRvYmUuY29tL3hhcC8xLjAvIiB4bXBNTTpPcmlnaW5hbERvY3VtZW50SUQ9InhtcC5kaWQ6OURERTY3N0VBMTc3MTFFQThFMURDRkI1QTk0MjgwMzMiIHhtcE1NOkRvY3VtZW50SUQ9InhtcC5kaWQ6MkU1NDI3NDkyODFFMTFFQzhBQTNGNTA0NEFCMkI1NDEiIHhtcE1NOkluc3RhbmNlSUQ9InhtcC5paWQ6MkU1NDI3NDgyODFFMTFFQzhBQTNGNTA0NEFCMkI1NDEiIHhtcDpDcmVhdG9yVG9vbD0iQWRvYmUgUGhvdG9zaG9wIDIxLjEgKE1hY2ludG9zaCkiPiA8eG1wTU06RGVyaXZlZEZyb20gc3RSZWY6aW5zdGFuY2VJRD0ieG1wLmlpZDo0Nzk1ZGZhMy03ZDJmLTRmYmUtYjVhNy02NzZjZjc1NGQyNTUiIHN0UmVmOmRvY3VtZW50SUQ9InhtcC5kaWQ6OTlGQUM5N0ExOTE1MTFFQ0I0MTA5NDBCRUNDQTY3QTAiLz4gPC9yZGY6RGVzY3JpcHRpb24+IDwvcmRmOlJERj4gPC94OnhtcG1ldGE+IDw/eHBhY2tldCBlbmQ9InIiPz5Aoi8hAAB2GklEQVR42uydB4AcV5H+a3LevFpJq5wlZ1tOGAewjW2C4YgmHNgEg8kHnIl/MsZ3RziMDxPuDAaTTDRgY8A2zjlItpWzVlpp8+7MTk7/Vz29kibsTE9P90z3zPc76kZeaXd2Xne/71W9elWWbDZLAAAAANAHK4YAAAAAgNACAAAAEFoAAAAAQGgBAACAumHHEACgK35hc4XNEdYrrFtYl7BOYe2yBYT5hHmFueSv2eXXY+ks8fMnCv47JCwlLCwsJmxK/nNI/vOU/D3jsg3LdljYNC4XANpjQdYxAKph8VwibIGwhcIWyX9mmy//vddEnycii+6gsAOy7Rc2IP95r/z3AAAILQCawV7kOmFrhK2UbYWwZbK32moEhe2UbZds24RtKuFdAwAgtAAcgUO3Jwk7URbWtcKOp1zYFyjjsCy4m2V7TjaEpAGEFoAWg/c+1ws7TdjJsq0SZsPQaE5a2HZhG2R7WthTlNsrBgBCC0ATYJM91LNkO1P2VpFx3zgywrYIe1zYY7JtlkUZAAgtAAbHIXur5wo7T35tw7AYHt77fUjYA7Kx15vEsAAILQCNhz3TU4VdLOylws6m3H4rMDd8JOlRYfcK+4ewZ2RPGAAILQB1gI/PXCrsImEXCuvBkDQ9o8LuEXa3sL9R7sgRABBaADT0Wnlv9VXCXk657GDQ2nA28x3C/izsCcL+LoDQAlA1HmGXCPsXYZdRrqoSAKUYEfZXYbfLr1EMCYDQAlCagOyxvk5+xV4rqBbe271T2O/k1xCGBEBoATxXosuFvVn2YN0YEqARXOuZ93N/KexP8HQBhBa0ElwwnxOZ3kK50LAfQwJ0hqtT/UEWXc5iTmFIAIQWNCMnCLtK2FspV3AfgEbAjRF+LuzHwp7HcAAILTA7XbLneiXlSh4CYCS4JORPhP2Ccm0DAYDQAtPwYmHXUC6xyYXhAAYnTrkEqpsoV6EKAAgtMCRcrJ/Dwu8XdhyGA5iUTbLg3kpofgAgtMAgcNH+D8sii8Qm0CxwAhXv5X5XFl8AILSgvvcO5cogfpRydYYtGBLQpPAkyaUfvy3sLvm/AYDQAt3gc69XCvuIsNUYDtBibBP2HcolUOFcLoDQAk3ppNzeK4eIcTQHtDp8ROgGYd8TNoHhABBaUAv9wv5N2NWUK5EIADgKl3j8IeXCygcxHABCC6phkbBPCXuXMCeGA4CyJIT9n7Drhe3HcAAILSjHYmGfplwFJwgsANULLlec+rqwfRgOAKEFx7JQ2Ocol+gEgQWgdsH9ibCvwcMFEFrQI+wzlKvihM45AGgLdxDi4hfXCRvFcEBoQWvBiU0fE/ZxQpITAHrDxS++KRt65EJoQZPDLeo4g/hLsjcLAKgf7NV+gXKZymjVB6EFTchrKLdntA5DAUBD4cIXnHT4BwwFhBY0B6cI+5awCzAUABiK+yi3hfMshqJ5sWIImhoODf9A2FMQWQAMyQXy8/lDwlYOPFpgKmb2YTlM3IHhAMAUTFLuiB0vjrF/C6EFBuY8yhU9PxlDAYAp2Ui5muIPYCiaA4SOm4duypWAuw8iC4CpOUl+jm+Wn2sAjxY0+hoK+1dh3xDWi+EAoKkYEfYJYT8j9MGF0IKGsIpybbouxFAA0NTcS7nqbdsxFOYDoWNzYqNcRacNEFkAWoKXys/7J+TnH8CjBTpyHOX2Ys/EUADQkjxOufaVmzAU8GiBtvCRnc8KexoiC0BLc6Y8D3xWnhcAPFqgAVwy8RZh6zEUAIBj4GIX7xC2GUMBjxaoXAgJ+4j8MEFkAQCFrJe924/K8wWARwuqoJ9yjaMvwlAAABRwt7CrhB3AUMCjBZV5NeWqw0BkAQBK4fmCM5Nfg6GA0ILZcQu7kXKts1ARBgBQLd3y/PE/8nwCDABCx8ZhrbBfCTsRQwEA0IDnhF0hbAuGAh4tILqScglPEFkAgFacKM8rV2IoILStDId2uPjEj4V5MRwAAI3xyvPLzYRQcsNA6LhxrBR2G6HTDgCgPnCi1BuF7cBQwKNtBTgr8EmILACgjvB88xQhKxlC2wLj/RVhvxfWjuEAANSZNnn++Qrm//qB0HH9YGG9VdgrMRQAAANwh7C3CpvCUEBom4E1wv4obDWGAgBgILZRLpS8FUOhHwgd6M9llGtrBZEFABiN1fL8dBmGAkJrVj4o7M+U2xcBAAAj0ibPUx/CUOgDQsf6wD0ivyPs/RgKAICJ+L4suCkMBYTWyHDSE5+PfRmGAgBgQv5OufO2SJKC0BqSBcLuFHYChgIAYGJeoNy+LVruaQD2aLXjeGGPQGQBAE0ynz0qvwIIrSF4ibAHhS3EUAAAmoQF8rz2EgwFhLbRvEnYX4V1YCgAAE0Gz2t3yfMcgNA2hPcJ+7kwF4YCANCkOIX9Qp7vAIS2rnxa2E3CbBgKAEALaMVN8rwHqgRZxyrGTNh/CPt3DAUAoAX5hrBrhUE8ILS6ruquxlAAAFqYH1EulJzBUEBotYRDxDcLezuGAgAA6KfC3iksjaGA0Golstzi7goMBQAAHOFXwt4GsS0PkqEq45RvJogsAADkc4U8PzoxFPBoaxHZX1OuXyMAAIDScL9tPmubwFDAo60GDhf/HCILAAAV4Xnyl/BsIbRqRPb1GAoAAFDEaylX2AK1BSC0ikT2/wglxwAAoFpeJ+wWiC2EthxcjIIbH78DQwEAAKp4qzyPWjAUENpScMWnd2MYAACgJt4tz6cAQpvHpwhlFQEAQCv+XZ5XWx4c78lxjbD/IYQ6AABAa95PudK1ENoW5s3CfkbYvAcAAD3gqlFcuvYXENrW5KWUa9qOs18AAKAfXMjiMmH3QmhbixOEPSisHc8AAADozpSwc4U9D6FtDRYIe1R+BQAAUB8OCDtbfm0ZWjHrmD3YOyGyAADQECfnTmqxSGKrCS0nPP2GcmFjAAAA9Yfn399SCyWgtlro+HuUO8oDgOFIZ7KUTGcpkcpQUlhC/DkljL8+8/cZ8bzyI8uvNmvuNJpdvFosFulsmt1mIYfdSg7x6rSJV7v4b/FqwcE1YDz4yM/7IbTNxQeFfRf3NmgULJrTsRRFEhmKJtKyZY68ZnR8Fp1CfD1ONptsuT/7XeLPwqDDoEF8uBXm5VYR2lcIu51wVhbUielYmoLRFIWEsE5LrzlhNSLsGfvdQnTddgp47NQm/tzmdUheMQA6ww8Ft9j7C4TW3KwR9hjhGA/Qa6bIZGkykqLJcJImhPErh4DNDgtvp89OHT6HeHWQz4V1KtAFPvZzlrCtEFpzwuL6uLDVuJeBVvAjMxVN0mhQWCghRDZJ9XiMrNbcPizvt/KebEbeu53Zt9UbDj/3BJzCHNTb5pT+GwCN2C7sDFl0IbQmgpffHC5+Be5hUCu8vzo0FafhYILGhLjW6rGyWHLSktMhzG6RXjlxicO4nNBkt1nJJl7ZrFVEcNOcQCUEOD2TSCW/coJVIilekxnpz2kNPO42j10S3r52p+T1AlAjdwh7NeXCyRBak/AVYZ/DvQvUwmI6NBmnw0JgWVwzKh4VFkkXJx+5rOR25ZKQ3C6rJLKNhL3huBDdWDyXjMWvbCzCanCLhcK8DhfNFQbRBTXwVWH/D0JrDl5LuXNayOYA1QlQlj3XBB0cj0lh4WofD7cQUq/HRj63nXzilf/bTPB+cySWpnBUmHiNiNd0lSsMSXQ73bSwyy3GAfu6oCr4Znu9sN9DaI3NCmFPEZKfQBWEoikaEOI6KKyasDALacBnp4DXLomKrQkzdWOJDE1HUhSSLH1kb1gJnES1QAju3E6XdN4XAAXwPu3pwnZAaI2JV9jDwk7GvQqUeK+DE3HaNxKVjuIogROS2oSosri2+WwNDwHX3d0Q0wV7uqFwioLConFl22m89zxfiO3iXg8FhLcPQAU2CDtHWARCazz+T9g7cY+CcvA+5L7RKO0fjSnak2SRaPfbJQsIDw2O2TFjmczQZChJk9MpKeSshO6Ak5YKweXMZQDKcLOwd0FojcWVwn6MexPMBheR2DMckbzYSlWYOCu43e+grjaHFBZGCUPlojseTErh5krwudylc7zU3+XG4gXMxjubYV5vFqFdS7l9WS/uS1BKYHceDtOhyXjFf8vlCLvahcAGHE2531ovOJlqPJigiVCq4p4uJ08t7/PSgm4PBBcUwqHj9cK2QGgbi5tylZ9Owj0J1AgsT+6dbU7q6XBIQgu0gyMHk0JsRyYSFfdzIbhgFp4TdqawGIS2cfwPtUgHCKAMPh+6/VCYDoyXfy65QERPh5O6251SkQig88InIgR3MkFT0+UTz7jZwap5Pil5CgAZ7rz2AQhtY+AqIn8gnJcFlDsDumc4SruHI2XPfvKRnDldLuoMOLD32qCFEHu441Pli4C0e+20tt8vHRECgHLNB26H0NaXfjmk0IX7D3CBiW3Ci+VJvJzAzu12UUcAE7cRSKayNDwRp7HJ8oLL1abWzPdJni5oacaFnciPO4S2Tr+3sH8IuxD3XmvD+7AvDISkrjkQ2OYVXD5itaLPK2UpIwrR0twj7GLKVZCC0OrMR4V9G/dc68KZrDuHIlKYeLZbmPdg5/W4pSM6wPjwmeZDo3GaCM6+aOJiF8ctRDi5xfmY2eZ/MwotH+V5WpgH91trwgX+XzgwTZFZsli5etOcTifN6XKSFe6P6eDCFwdHYtIRodlY2O2mNfP9SGJrTTjL8TRhmyG0+sC12x6hXB1M0GJwgtO2wbBU1Wk22HtlL5a9WWBuJqeTNDgSlwphlIKPA524uI26/fBuW5Anhb1IWMoMv6zZhPYzwr6Ge6z1mIqkaOO+IIVn8WJdTistnOMmvxd1dJsJPod7eDQuHQuabapa0uuh1fN8UiQDtBSfFXYdhFZbjqNcyBiH61oIvj13DUVo51C45ETLkeG+LpdkiBI3L1zsYmAoNms9Zb/bTictDkjN6EHLwJVoOIS8CUKrDZzXzyHjM3BvtdBTlMzQBuHFjk+XTo7hfq+L+jySNwtaA/ZsD42UrlXNDi2fu13Ug/SNFuIJyoWQ00b+Jc0itNcK+w/cU60Di+uGvUGKl+iuw54rH9dhL1ZPPHYbeWxW6WgJHyZIZjIUEb9PIpPBBWrkAiyRoX2Ho7N6t/M73XT8Qn/uuoFW4JPC/hNCWxsrhW0kZBm3DLuHIlIJxVJ3Jp+JXTzPo2tNYs5U7nTZyWkt7SmHU2kKJlK4UA2E742hsTgNjcdLbin43TY6dUk7+dwoctECcBYy17rfDqFV+fsJu1vYS3EvNT+cVbxxX4iGpko3AeC6xP29bt33YrtdDnLayoejQ8kUTSf1i1ZxaJQfTX7NFXHIHhEUfuE/H3HYLLkHxSL+j79msVikxUIr7FmzV7v3ULRkZjJ7tCcvbqM57eh72wL8k3IFjAwpaEYX2rcLuwX3UAssScVE+fTuKQpGiz1FziZd1OeuS2UnlxDYLlfl9+GnZjgap4zKx4cFNCW+OX2M8ddmXrVapfLYseDYWHzlP9uFp25vorAqj9n+w9GSzQr4U66e75MqSoGm5x3CfgqhrdKxoFwPwl7cP80NH915es9UyTrFHCpeOt9bt4SndqedvHZl4caJeJJi6cr7tSycyTRbRoirsLR2YloLLLZ2sbBwCOF12HJ/NjPD43GpslSpkeUCF+sWBNB+r7kZFbZG2BiEVjk3C7sK905zc3gyTs/tD5XsttPZ5qCFwpOtZ3Un9mZdCgWH92l5v7aUsHI5wYQQVhbXdMYcR+h4mNnb5bC5087iaz7hnY6mae9gRFrMFK3c/Q46ZWm7tKgATcuPhb0TQquMc4XdT2h/19QMjMVo00CopAcyr0f/rOJSdAiP1qPQo51MJCkqZ0WzoHKGNAtsqkmyknmvl0XXZc8Jr1nKWfJ+7W4htrF48XXgWsmnL28nlwNHwpoUnk7OF/YghLY8PMs9Jexk3DPNC2cWc1u7QngyXzTX3bBOO3ycp8Ol7L0PTscokkxTXFja3H2dFcFi6xKLEJcJRJebTnCSVDBcvG/rddno9GXt0itoSjZQrkyvYY4GGHFZdw1EtrnZOhguKbJcn3jFQm9D29lFOdyrINQ7Fk3QaDhOkUSqJURW8hSFtx6KJWl0Ok5T4vOXOuNsmInNaqFl/V7q7SjOOOZmFI/tnBSfBUe0mhTWj/fDo50dTnzis1AduFeak00Hpml/iaYAnOy0YoFXiK2+az9OAOI9WCtZJIGMptNF5zA5Q7fL7SD7LF7bVDxJ+6Zmb8/XSrBn63bYyCPMqAUiRiYSUjegooWdzULrl7dThxdNCZqQSWGr+PJDaIv5kbB34x5pLZHl4hPLhcjq2fKMBSEgxKAwo5id16lEcfYwa6zPZiO3EGXOxuXnJJpK01gkQROxJC5mCTis7HXaDJlENR5M0sDhaFE+AN9zZ67oQI3k5uR/hb0HQpvPqZRrfYQshRYSWa5XzCE+Pb0hFlcW2dn2FQvPxHLWcCSRpmgyBa9VBSy0LLguu7H2QPmc7d5DxZEI3ns+Y0W7lCgFmgpePXN9/KchtEfhyh4X4N5oPnhPds9wpOjrbT47LZnv1e1sI4eA+VyskuM64/Gk5LFCYLWDjwr5XMYS3OlIinYfjBadY4bYNi33CXsJhDbHq4X9EfdE88E1i7nNXSEBr13yZPVKXmUvtk2IrNIfPzgdo9FIHAKrh+CKhY6fa0cbJKRcTmzPXtmBbOTm4zXCbm91oeVMhOeFrcb90FzsG43S5gPTRV/3yyKrhyfL4eEOhV7sDPwEbB4JSiURgX7wsSC/y2GIpCkW210Hi8PILLIstk47drCaiG3CThDWsOQKI9xN74PINh/cGGBLnUWWxbXX7ahKZBn2ZCGy+sPHgcbCcZqOJxseOeD7kEt7FkZU+OjPU7unTFPNCyhitawzLevRtgnbJawH90LzMBFO0pO7iicrr9smnZPVo9hBwGEnv6P6kB+fhz0YiiJkXO8VPmeBu+0N37+VEqQGI0XZyL1tTjptaXtLdEBqEbgO8nJhwVb0aD8BkW0uwsIjeLqER8DnZHOerLYzF/+8buHFViuy4USKto9N04EgRLYR8P7oVDQpFb5oZIOFdr+d+vvcRV8fCSZo04EQLlTz0CPrTct5tH2yN+vDPdAccPj10e0TNB3LL7TPZxVXLfKRU+P6stx1hhu026oQb/4dB4UHi7OwxoEvX8DlkApfNAru+sNN5AtZt8BPi3s8uEhN4gfIXu1QK3m0n4HINhcb9waLRHamFJ7WIss1idmTrUZkx4X3tHUsBJE1GLzWD8aSkofbKO+Wm1h0tRVXiNpycJrGp3G/NAmsN59tJY92EeVKLbpw7ZuDHYfDtPNw/jEelsClQmT5vKyWVLsfm8xkpBBxMI7atkaHtwLaPY6GVJfiqXD3wQiFIvn3CWcgv2hVJ3mcyERuAjhswclR+1rBo/0sRLZ54AzjQpFl5govQWuR5aM71YjspPCUto1NQ2RNAnu0E5GE1Kyh7l6HWBkumecpir5wM4Vn9kxJHYGA6XE1wqtthEe7hHLnmpy45uYnmkjTw9smKFnQaJs78PCkpdmNKqyziqbsPGEfDMWkcDEw6YzIRUfcjrpn/kbjadoxECkS1kU9HjpugR8XxvwkZK92b73esBH1xj4FkW0OeI22YV+oSGS5SQD3lNXS0+gSIuu0KhNZPq+5dypCsVTa1INrD46QfWpYerVNjZB1bJissTBZUwlp5WHJZChrt/NGOKW9fsp42injC1C6o49SbT2Uap8rvt5m2iGIi+s3HslQh8dZ1yIX0v3b55b62R4L1+ruEQvIvnYE40yOU9ahup2trbdHy3uzOyC0zUGp8oo8Ia5erF2GMe/Zscg6FE603MJu/1S0oUdGVK14Q6PkOriNXIPbyDmylxyjA2RJFXvj2WSGMmIhUW40suJvJS9QjFlWCG+ydxEl5q+g+LxVwlYIQTaX+DZq33ZwJEbDE/nXgFvrvXhNF7kd2K9tAq92Ja+fmlFov0e5xu7A5IxNJ+mJnZNFX+dwsVaN26UzskJk7QpFdigcp8PTMXMMYCZN7oFN5NmzgTx7NwjPtYoTB5ksZRIZqu4AsBhDm/j/Vhsl5y2m2JKTKbrsVIrPXZ77OxPAYeR6HgHi4d0xEKZIQSZ9p88htdZDMQvT8/166VE9hXa+sD3wZs0Ph4of3DpO8WR+D9fudict7NMmZFyNyPItvD8YkRKfjI7r8E7ybX6AvDufJGu0tiI1kncrrNoJn8fLIsbVYrdQpqOHwqvOpvBx51Oyq9/w48e1krkFX93cHjG+2/aFiwqwrJrno+V9XkwG5vdql3LwopmE9r+ogZU5gHY8vz9EB8bzPUe300qrFvs1qWHMwtHtcioKF/MEuGcyQuGkcbOKOQTs23w/BZ67mxxjB7T1usSiJ8veLal7jiXRtbHoWinRv5KmT7qYIivPoqzNuO3ifE47+Vz1+/0mQknaV7Bfy7fmi1Z3oq2e+fmGsH9vFqHtEDbAC1JcV3MzGkpIdYwLJ51Vi/zkdtW+b8XSKiU+KdiP4/OxuyeMm/RkjUco8OxfKbDx72SNTev3RuIZzsSrDSWXXuFIXm5bN4VOeRmFTnoZZR1uQ46tR3i1XE2qXuw/HKXxYH7EpN1rp7NXdiKEbG74wVwobLIZhJbPLX0V19TcpOSQcawgZMxVdfq6tMnE5CM8bgUim0hnaNdEWHo1nMAmYhR45g4KbLhLEtu6IB7jTDxN2hRuzglu1t9GwdNfRaGTLxEersNw48whZH+dxJaP+mzZG6ZkKv9+WzPfR0vnIIRscj4n7GtmF1o+TLlX2BxcT3Oz6cC0dMQhb7Jz22jlIp8m6TTcqN2noJsLi+tOIbJJo4mseJb8mx+g9kd+TbbIVAPeX0uxlQXXYaF05xyaPOdNFFl9NhktccrLBUzqFEYOhlNS5ai8RZWFs5A7yYdm8WZmmHL1HaJmFtr3Ui67C5iYqUiKHtk+kX/ziDl3tUYhYxZYFlqziiwfx+m+50fkPLyrwWKvtdjmLrTFaaX4ouNo4qXvpGTnPEONfT33bEuFkHsCTjp9eTsmCXNztbAfmVVoefn7grB1uI7m5tHtkzQZyZ9g5na7JKsVrvbUpSAEyOK6w2Aia8mkqe3xP1D7U3+SjuwYgkyW0nE+a6vxsy2uk8XtpKmzX0/B017BqcuGuQ68X+upQzZyOp2lrfumKZnKH9tTl7ahkIW52SzseCLSRRD1FtpLhN2Fa2huOMOYM43zxFF4OGsW+2tOBOHjOz0uZ8Wfw+3tdo5PU9xAIuuYOETdf/seOYd2G+6a5bKRdRB+2btNLFhNY5e8n1JtvYb5zFzUoh6N5CdDyaKqUSzy567prGsFK6A5lwr7mx4/WO8l6b/h2pkbToDaNhgu+vqCXnfNIsvf3+msXMuWqzztngwbSmS9Ox6jub/8rCFFVhpb+ciO9gqepUwsTc59W2nuLz5Dnt3PGOYzB6PJukQ7uCCL35Mv6Fzze89wFBOGudFNr/QUWg4XvwzXztzsHApL3UvyPAe/nQIadOXpcFYuSMHxlr2TEYomDRKWzWao84GfUc+d3yVLMm7oa2fhMoE6nD3hH5nleyIYot4/fZPaH/0N6RRxq+7SCOOetuk6dNlZMMdTNLS7hiNFGfnAVLyMdNrm1FNoP0Jmqe0GShJNZGjfSH5hCtbF/t7az1Zy8pOSYzyDoSiFEsYoRsHHdlhYAs+aZzfE6rTqJ4FcCjKepvbH/0g9d9xQsjZzveHox1QsqbvscwJgT3t+kTs+ArTjUBgTh3lhvfqomYSWU/Degutmfm+2sDh/b6er5oYBXPEpoCDDeCyaoNGIMdrccbnEOb/9slSX2FSIsbbadVxPy6Fkz/bHac4frq/fueEypNIZCtWhHCf3W7bb8n2JgxMxCsfTmDzMy5tl/TKF0L6NUAXK1PBkcbCgzCJPKn1dtZWq5mmJQ8aVQh3hpHj/oDH2vGzT4zT3ti+Sc2SfOZfpOoWQj1FbqTKV88BW6hOLkVprOGtBTNw/0YS+gseJT4WFWqRGBPBqzYxf1i9TCO37cL3MDU8WhQnpPKlYa8yqZE+20r4sZxjvm4yQERrdscj2/farZJ8cMvX1tNj1zXu0yGJrH95Pfb/7miHEdjqeFPeSvnum3R1OchSM7aHJOAWjKUwi5kXzjj56HO85V9gDuFbmJSQmiYe25RencNgttHZpoKamAUrPy3JpxWkD7MvawhPU95uvVNfCjh8qp5usvX1kbesUf3blZCgZp0xwkjIjhygbb0wrPw7xks4FargXrtVlpdScRTT0+s9TxtXY8oTsdXZ5Xbo69GNTCRoYyr+mvW1OWr8MRSxMzHnCHjSyRwtv1uTsHi7eZ+PCFLWILH9ru4J92eFw3BAiy3uNc/74n1WLrG3eQnIcfxrZ5y4kq9cvPEmHMDtZPT6y9/WT47jTyNa/hBpRiV5vr3bGs80Kz9Yxsp96//xNsqQb27qQM5BDcX1/h652J7kK8hZGggkKxeDVwqvVR2g7hb0W18i88L4Wh76OhZOfutpr25vlkLGtgrhEkmlDNG7nak89d/w3OUb3V/V99sUryD5/sdDQ2T8n/5197gKyL13dAKG1UH0OAuTCyK4DW6n77z+gRh/94f3awiNq2i4uqGSFtN1DOFdrYljHuowqtJxp7MY1Mi97RqJF0cU5nc6apmfOMq7ULGCmebsR9mU77/8puQc2Vfcg9cwlmzDFnm9nD9mE4DZGbOuhtUJsxaLNu/1RanvyTw2/pkE+8qPjzdXR5ijKxj80GZOOyAFTwiunNxtVaK/C9TEvvOo/MFacaVyrN6ukWcDhcIziqcZPSv4X/kn+5+6u8imySp5stbDQWurcYJ3Dx3VbzGRyTek7HvkNufc/39DrysfUpnUMIfPypbfTWbR43DsSwcRiXjTTMy2F9gRhp+HamJcBIbKFVXV6Opw17c1yUQqntfxtxlWfRsKNr7LEHXg677ul+oco0EEWR/V9UVlkLe2ddXZpuRdA/faHs+mMZD13fU9KLmskfJ/pWaKxu91RdK6Wn6lkOovJxZycJuuaoYT2SlwX8yKFbgt6zfJRHhbaWgg4yntsPAUNhKINDxlzVaOeO29Qlbxj8frUv6+3/sfN65EUlXeNhVdrjQQNsV+rZyEL7k1b+LzwwnVwPIYJxry800hCy7Pp23BNzMtIKFFUp7WrrXiFXg0e4c1WOjM7FkkYoo5xx8O/JsfEoMq736H6fTkjue5Ca7XUWe5y+7UcPva/cF9DrzOf0dazkAULbWEu3MAYhNbEvEXWN0MI7UXC5uCamJeB0eIMSQ6F1YK/gjfLkx7vzTYa1+A2CmyooTtWsoYykakGHH+pc/hYgvdrU1nqePBWsk03NoTMx8cyOmVG8cK03e8o8KJTNBFOEjAlc2R9M4TQoq6xieEV/nAwXyy8bht5XOp7e7oVeLN8lKcenVbKC0Cauu69mWoJaWYi0+q/NzzdkI9tsdX/HG82mSFrPEadQmwbCRfpCet4VrvUdsv+UXi1JvdqGy60XPrlNbgW5uVAiT2kWvdmK3mznGE8Hm18wwD2ZB1jB2qbuENTlElUn8yVTQnPamq8MULbkAblWcoIsfVuf4zcBzY3fHGp1yKPe9W6nPlT6+HJOJKizMtrZJ1rqNC+iucrXAvzMjieLxJcto6bW6uFSy06Kkzkh4Q32+hpxxoNUfsTf9DCRaL0gT1Vf1vq4F7urdagD2+RyiXWXWr5CFeGQ8i/oEYnRunq1Ra20BP3yNBknIApCcg611ChfTOug3mZiqQoUpAc0ilEthaHp1JxCq4ANRVv/J5V+5O3a9bWLTMxSqnDyj3j9Mghyowebujnt1gb8J7ivmKv1jm8h7w7nmjo5+eKUSmdvNrONkdRUtTgBMLHJqYmnav1UWOlvwTXwLwcKvHwc5UbtdjF7OKq0NB92ABnZm3hyeoLU1QST+GhJvfvpGx6dk8pmxGTu/B+U/t3NXwMGhM+plxilLBcNKGxXm1EJ6+Wk6IC3vztk/HpJMWTqBRlUi6hGiK3tQrtywklF00LT3GDBeEs7tLDe0xq8TrKf280ZQxvNvDMHboUvM+MHKbE809RamA3pafGKROLUFZYOjghhYqTLzxN6aGDxrgBLJbG3XtCcLhAiGfPhoZ7tXrt1RZuv/C7HEb42Kywzr1C9cKrxjd/PcbfvEyUWGF31rA3y9O2x2YzvDdrjYcp8Pw9+r2B8GjTw4Piww4a+wawNvC9WdyE8YInuvSUhg5DNJkiv8uh+c9t99ultcyxJ4kGJ+K0uNeDycecsN79qt6PGt8tl2HszcvQVLziKryqJZ/dVnZvN5HO0FSs8d6sb/MDZEnCs7A00KOVtFYs8twHtpBjvLEePhdM0eNcLScVtvvyn6fJSNIQNb2BKi4lldnHtQgti6wPY29eRgrOzjrtVun8rFq8FfZmRyMJA3TnEV7Uc//AxZdDEI3IPD5yJfi4i/if//l7G3tHZHMhZD1gr7boOQgmcO+ZE58stnUV2ssx7uYlEk9TOJ4/ubT51e8kcK9ZZxmhZY9hPNb4CcY1uJ3sk0O4AY54tY19bz7u493+CGeJNdyr1YM2n71oKTMMoTUzqnRPrdBaCWHjpvJmZyYFtXgqFKqfjCUbXwWKl6RbHsLFL/BqG+pNCq/WFgk2vI0e35sJHTr72GwW8hYkF46GErr2xgW6wgnAVYf91Art2YTaxqamcFXNe6t+bw1CWyEJyghVoNhr8u54HBffUEqbCx97dz7Z8JHQq9lA4QI2JRYXqH1sWnpl/auL0L4S421e2LEcL3jQWWTVHqvks7Pl6hrHhacQNkCHHm4ewBnHwDg6O+PV5o75NNbNS6TSuniapSJF7NUC01L1MR9rvd4IGIepSJIyBWHcQA3erLtC2HgiaoxJxbP7WVx84+msVLyCm8I7Rwca+3vwojCl/YKQm3MUtpuERwuhrcQi0qjrPGgMpR5yn6eWTj3lv3ciZoxJxT2wCRffiEorL/pcDW40wMRS+kRe/J78hexkOEUZ7NOalRNkHdRVaF+GcTY+yVRGSnhiK9x74lJweTeB1UIelcd6rBZL2QYCnM2pR5JJ1b9nPCI8pn24MYyIvE/rOrit4b9KQjw3epypLVzI8ntwZCkYTUnn2Xnxm4bymomqSg+riRdehDE2LvywbjsUpv2j0bz9pg6fg9b1+6nNaxer6Xyh9QmRVevYVKprbIRyi4zz8A5CqqeBtVbct66hXYb4XVhs3Q6bpj+zVMTo2b3BvMpsvOBd1O2mVfN8UrELYGhYB3+kl0drhdAaF14lP7FrivaNRIs0hcX1sZ2TNDgeK+qLWUvY2GUtfwsF4ylDjI1zGN5sSSyGuXnJFhoja2y64b+KHpWbOGJkLRDPwvKnnDexVzy7T+ycKsqhAIYUWsX6Wa3QniqsG2NsTHYPRYu81cIHefPBaUWrbcUCZpt9puaQcTSVNsTYOEf24gYxskcr60qjE6Jy96329yw/JT6F2zNcpnHnUAQ3hbHpEnaaXkJ7McbXuAyMRSv+m1S6eKXMWZFq4CM9tjKlhaYTKcOMjWPiEG4QI7u0stLaJw8b4lfRI6/A41I+3RZu/QDDerW6CO1LMbbGhPeVYip6XTrs1qKjB4q9xAph45CBhNY+NYybxMA6S/Ktaw8OG+Z50l5olS9oeXsnlkzj/jQ2F+ohtNyG4kUYW2OiNmOxmlV20Q1RIWHDKB6tNRoiSzKGm8TQ5DKPbcFRQ/w2SR08WrfLisvcXHCFKKfWQrueVLYIAsZFbdi4kkfLobeUQRI6bNEgLrTRPVpJa7NkM0AyFJMS96/Wd6/bacP91lywHirap63meM/5GNfmQ+0qm7dmy5VdDBso7GWNlp+8s2nuIsNhAfnPmZyDxeHM7DGfl2Sz2I4xh8HESm8tzFhy48KvWcuRkG82e8wgWOTme/z/rNnc2PGrLVtJZ6Xog0H8a0lsHTbtvFDpmbFZSuZJANPCuviolkJ7Lsa0CYXWqW4icVjKf18kaYywMTcV9215oGgWzSTEC1tSWYe2Y6fGbEFit8WeE1yrK/fn5lJWXnxYhVkkU+TmCdE98s/SlrxvYbGdMRbfIo92etwwHz2psdAyNghts3GesOu1ElqOebwYY9p8OB3qJhJ7hf3ZqEE8WvvEIfJvui83jwvtz8SExUnT+vX8c6WfHZW9XCG4Vrd4NfGWnCSsyZzAav5z5Z9pYS/XzpbJeb+svQYJHTN6bH2gEEXTcY6sj2kthPZ4YW0Y0+aCH3q1D36lRKhoKmOQD+mQPNd0tNgT1UeghEWE6EZyYmv15MTXqFgKvfWUhTJCYCmjvyBw+DmbEO8j3o/FNrflbxwhSumQEGVFPlSz0Sbr48ay113hDzsT4wlvVqlHy4lQGQMcAnQc3k/+O39FqWB9RLYQ9p5TE0Lkp6nRHeAUeZrpqE14+7a6iGz+m5PkPadDwoMOCw83ZYyynezRan3Z4NE2JWdVXGAp/EFnYCybD1ctQmsp33+2oV5aIkZtf7mFem76LNkP7W/4OLPgJsdzr4YT2Az/XjbJ6i6wpcYqnKbeG64l187nDTE+aY3vZQhtU1JRH5XOtGdhLJsPh0PdQy8lkZYT2gaWXXQc2isE9nPke/zvXHPSQIqW82zTQeN4txxST01ZNN+HrVmMJoap65brqe2un5Ml3dikupTGkRkrhLYZqRjxVbJH2y5sLcay+VBbEarSqjzRoKxK7xP/oLY7b616crbY7WTrnU+2vvlk7ZpDVrebLC6PEKAUZeMxykYjlB4eFHaQ0hNjNXUBkrKdJ8QYtjU2QzkdziVvqY4auNxizOaJMesnW2e3NF4Wp4uyqSRlYxFpzFJDYryEZYKTqt7D9/Cd5NyzhSbe/FFKd/Q0Zpw0ToiyQGebkbWyTk7VIrSnk7q+taBZhdZSSWjr7EkKz7Xtr7eS77G/Kf/sC5aS65Szybn6RLIvWy1Ez6HsraaDlNz+PCW2bKD4M49QJjRVvSeZYU9SjKM/dySo3p51KpTzZqtVCMeK48h18pnkXHUC2RctV6wa6bHho2P27KPS4kVxhGJwD/X84PM0/rZPULJ/Wd2fEXTRAUoCFbJO3j3r45OtvDr/hLD/wlgaG27uft/m6s4gLpnvoQ6/o+r38tpt1O6cfY22Y3yaIvU63iNEtuN3N5HnuUcUeWGecy8h94svIfv8RRq8d5oSm56hyL1/ocTmZ1R5upLYuusoslNycQ6lM4i/jTwXXk7usy8kW1dv7b9CMiGJbfSe2ym5Z7vy7xMe8/hb/o0Sy46r63PltFmpw+vU7OcdHInRyISyVc4F67rIg2pSZuHacjqpxKM9FWPYrB6tukBFpW2mupVeVCiyFoeTvJe8ThIMqy+g4TrWRs4TTpcsNbCbwrffSvHnnqjqR0gZyZY6eLZViiyPk/eVbybPeZdK46cV/LPcZ5wvWWLrRgr/4adCcLdV/r54lLpu/QaNX/lpSixaVbdnJI0WOkAZZXVSiUe7RdgajGPzebRrlvhVVYZqE96szz77Svu54am6tPhqu/On5Hu0fLjYdfJZ5H/Te8jW3VeX65B4/ikK/er7lB6prt2bnfdsnfr9XpLIKjk1Y7EIr/9S8r/2HWTx+uvgZWcp9sg9NP27m6WwfMW1ldtLY+/5IqXm9NflenLSX49fu1UQPNqmZSuVyWWqNMv6hK3EGDYnahMgreXnzbqIrPeJu8uKLCfmBP71Q9T+/s/VTWQZ5wnrqevzN5L7zAuqE8JQrtiFLl7ZtDKRtQY6qONDX6DA2z5QH5GVhd19zkXSmPF+ecXfMRYRnu1/VaxfrVnQBB4tUMYqWS9VCS3f+VhSNSsqhdZSJgmmHqE2x8Hd1C682dmwdfVQ56e/Je3HNmRYXW5qe9cnKPDW9ysvBZTV5+gPl5tUcn6Xk5u6Pn8DOY9f35hFX0cXdXzsa+S9+F8q/lvbxAh1/PZ7VK/O6BBboND/OEmt0J6E8Wte1B6eL/dtek9KlmSCOm+7kSsJlBaM/iXU+alvitfFDR9fz/kvp/b3fUbyrhVpbTp37EYrOLs5rcDxcx53KnV+4nqytnc1eOFnIf8b3kWBK66umNHs2r4xd1a6LkKLuQIo4kS1QrsOYweKHeHZJ0G9F//+f/6ebONDpRcOff3U8fHrhHfUbZix4j3i9vd+Sjqrq2hSj2lXLlJJ6UcO13J43eL2GGbMPC+9nAJvurrivwvcfRvZgvXo9gOlBYo4DkILSnim2p+ez+g4KdmHDpD/4TtLfxbhjXWyyPqN1/uCs5IDb/+I8nOnGmw/csi40llZDhe3f+BzmmYVaye2ryLfq95SfsEXj1HbHbfoL7PQWaCMdRBaUDxRmaxKDZfk47Orxa6sXfIajeTJFuI+6yXkvfDVyib2dG1VmyShrRCC5mSn9ms+IzxZr2HHjIWWFyllx3XzU1L1KPizwKxC2ylsHsauedFjP1Uv7XYM7CTXzudK/p3/Nf9KjhXGXxP6X38VOZYqOwNai9BK4ecKxbnarvq3umZjq6X9XR+XktvKEbj3dzq7tJgrgCLmCuuqVmiPw7g1N3qExKw6ucmzTaYc/lSSqWoIrDYKvP3D0mvFa5NR3+2nkki71p9LrpPM0fmSPW//Fe8r+2+ce7dIpp/OQmlBbV5tOaFdjTGD0BoB+9jh0t6sEPXA2z5oqm7anBXtvfBy3bxaqWlBmfO4fPQo8Kb3mOo+5YQy14nlO5H5Hv+HfmKPTgBAOaurFdrlGLPmRm3B9HIrfJsOk5Ln2QdLT8DCK3MsMV89Fe/L3ygJXsVxTldXl1j6ngpesOclr2r8MR4V+F79trJJBa4tT5M1GsZDDRpNSd20Q2iBlp6w5o2txZt5NpQW2kpZqdUyNTVFf/zjH+n++++nwcFBcrlctGLFCrrsssvowgsv1Myz4TrCnpe8kiJ3/bbyYiiWazygbOWU82jLebPeS16r6ZgdPnyYfve739Gjjz5KQ0ND1NHRQatXr6bLL7+czjjjDM3ex75wmbSwim94rPRnS6fI/fwjFDnjYu09WjzyQDkrqhXaVRiz5iat2qMtD3u1WlWI4kbutqmx4q8vWyNNvlpx44030he+8AWamJgo+rtvf/vbdPLJJ9MPf/hDWr9em8pJnvMvo8jfflcxfs/CqbQ0W6bCcR7XaS/WrKlCKpWiL37xi/Stb32LYrFiN/q6666jiy66SBqzJUuWaDNmF7xiVqFlOANZF6GF0gLllAyxlQsdL8OYNTcplQ3aK2Ur2zX0al27NpWeVF90oUYOc5auvvpq+vCHP1xSZGfYsGEDnXvuuXTHHXdo8r6c8etcdbwiL1VpDeRKhS48L7pIk989kUjQy1/+cklMS4nsDHfffbe0MHn22Wc1eV/n2pPJ2jl7BrJz/3aypJKaPycW+LRAOcuqEVpuPNmGMYPQlhanCl6oTbvkJOeu50u6GK5Tz9Hk57NH9r//+7+K/m08Hqc3velNtHXrVm0WEevPVTbeCpu0Z8pojDXQTg4lwq6AD37wg5KIKmF8fFwKI5dbxFTjWrpPfdHsf51MkGNgh+bPiRUuLVAO62afUqFdgvFqftIqhTZdIXjs0NCjdR7YVewxL1ymSQWo4eFhKfxZDZFIhK699lrNPDRFQqsgIUo6N1vm7KxzjTZly59++mnFC5MZDh48KHm/WuBYU37MnAM7tfdoobOgOhYpFdqFGCt4tLN6ThX2drXyaK2hSanhd9FkuuoETX7+r3/9awqHq89U5fAxJ/7Uim3OfKlrTUURVRI6rvBvHApa0CnhlltuUf196XTtfQCdq48vq3z20UF4s8A0QrsIYwWhnXVOr/BtLo2EdrZJk8+iasFDDz2k6vt4X1ft9xZ9lvmVuwwpEdpKXq99vjaPNGdkq2F0dJS2bKm9qASXjLR19c7+OUe0FlptnznUTW4JFioV2gUYq+YnkcyoFNrys4XLrpHQToyU9gTn9mvy8/loiloOHTqkye9gm6sgeMTDXeFSVSq5aJunTZCqls9dy3jnj9ns05NtfFjTZ0Tr42pqt2tAcwotPNoWIK6X0Npsmvx+lljp0khaNQ8IBNQfdeHzoppM5J3KPktFT6jM33N3Hq2O9XR2dqr+3rY2bfIry4XbLYmYps+ITeOqY2k0t4XQwqOFR6uUVJkJg4/3aHHExxKPlJ5oPT5NPv9JJ6lPEDruOG1KgSvuA1uL0CqoQqX357bb7bR27VpthLbM9ZeO92TSmn1erSudZSC0rYDiPdo+jFXzw15SMqV2n7b893nstXu11ni0NnGqwGtfq65K0qpVq+iUU07RRmidLk2ENltWaLVr6v6GN7xB1fddeumlNUUQ8q9/+dZ+1kRcs89r1Tp0nCHQ/MxRKrRojwevtizJCitzr6N2oc06S3ti2XhUk89+2mmn0ete97qqv+8rX/mKdoudlMJixhb1f53VsIgDnyOuNhJgtVrpS1/6knZjVuH6Z+0Ozd7LrrnQwqNtAeYqEVqurOrBWLUGsYS6MFsqU16gPRoIbWYWTywbi2r2+X/wgx/QypXKGxNcc801qr26mhYNFvV/n41FNPTwrPSrX/2qqr1aLmGpVQSg4vW32jQTWo4aIxkKqMAj62hZoZ2LcWodonGVHm2F0LHPYa99Qp1lbzETDmn2+bu6uuiBBx6QyiuWw2az0ec+9zn67ne/q+n4Z6YUVkyqNN9by4l5jLIahlO5acDDDz9M69atK/vv3G43/ehHP6IPfehD2o7ZdHD2v1MailfkzWqfCAWPtjW92lJ3Ui/GqJWEVq1HW74dNofc3DXu06YDpb2m1KEBTcegr6+P7rvvPvrNb34jderxeo/uAfb399N73vMe2rhxI335y1+WPDpNJ9+hg8p01lrb3yt9H6WsWbNGqmF800030XnnnUcOx1EvkjsefexjH6OdO3fSu971Ls3v2fThA7MLbXu3Zu+jddg4FscGbQuRt09rh0fb2tTy8CfTGXKWKU7hd9oollKfAZqa01/1RKsWboHH+7Uze7ahUEgSD/bK9CSl4LNYlKxXKvyb1KH9mnY7Ynh83vve90rGTE5Oks/nyxNd7VU2Ranh2c/ypnq0Sy+x27RdVKld1AJT0lfJo+3AGLUOHMpSmxCVqBAG8ztrCx+n23soayv+Gckdm3QfF86Q1VtkM6EpRZ6mEqGt9G+SOzbrPmZ8tlhXkeXPsWe7JLazCm1vv2bv5dRcaOHRthBdEFqQRySmbqWdqJAQFRBCW9MxRKuVUnOLa6ckd22hbDJh+nFPbN2oqCafRcF6RRLaMmOd2LKhKe7VSp8jOW+xJu/DNY61ToSCR9tSdEJoQR5hnYSWJ6tak6Liy4oLJLDIJjY9Y37RKNPEPE9EFTqJ5f5denhQl5B7vYlvfLzMAFgosVSbohgOjb1ZLlQRrfI5c9qtBCC0wEBwfWGlK3C3I/+yT0fUCS07Y5XEtt1VWygxsbx0D9XYI3eb+nplo2GKKxFai3KhtVb4d9FH7jH1mKUO7qXU/l1lvNkllPH4DSm0vJitJt+4w+fQ3KMGdaWjktB2YozMB1ew6e+qvKfY2+ak7oAzX7TiadWl4eIVSt20u2sU2sWrSx7ziT//FGWCE6a9XrHH/qko/G2tYvgszkrveU/Z/U2jE33wb+XvxdXandV1aexNVruYXdHnxaRmbtrg0TYpq+b5yOuaPSumzWOnExcFqNOXP3uzxIaj6rzaeLpyE3hfDUlRXHwgevxZxX8hBCNy12/NeaH4d//b75SJZxX5WLxPW24/NzM5TtGH/2HKIeNFVayC0EZOfrEm78WepNbeZDXbM6vn+6QFMTA17ZWEFlWhTIrDZqGzVnTQnIKH1CfEd414eM9e1SHt+3T5it2kaZVCm8xkKFMhoaejxvBx9JTzSn/9/r9SZmrcfJ7ZQ3+n9PiIgjCF+F+V8621gjBH7rxN05KM9SLy19+UjQBw5CPdpU2Jdq29WX48IgXPV7vXTq5jtnA4IsXietbKDlo2B95sE5Cno6XWv26MkXnhh/e0Ze0UjqdpYjopHd9Z3Ju/dvK5bZLgJlJHw77BcIrm9airqhNLZ8hbpjhFp8dBg9NR1U2vE4tWSWdq7cP5R2F44g39+kfUfvUnzeOZhUMU/uPPlImmisvB35MO06xNCFjgWWx9l7/VNGOWOriPIvfdWV6I179Us/dzatTm8egiNlW0GJ3f6aZFPR4an05Iz2pvwFk2GgVMh7uSR9uGMTI/7MUu6HYXiewMhaEpPnqgtpNPrMI+LbcaqykpSnz/9AX/UvKv4k89SInnnzTNdZm+7UfKSkhynV01sSWLAq/2rt9qXl1LN4RAhW69sezeMnuy0RPP1uTtOFNe62zf4HTx794jhJWj0/y6WAguRLbpqLhH68IYNT+l9oBCYXWJMpwQVSmXqstT254T79POVowg+JPvUGZyzPBjHnvsXoo9eq+yCd9NZesXl13YeKh8k4FUkoI/vF7T+sd6Ef7Tz6Vz0+UIXfAaqZmAFrh0OFITLHiuPE4b+d0Q1ibHVUlosUfbAvBKurCYxFRYfUZqLF1+j5eLV9Q0iYlfNnTxm0r+VSY0SVM/uN7QGbWpA3sp9PPvKfZKbbU8hdbK38/h2NDPvmvoezTx/FMUvvPX5T9H30KKnnSOZu/pdmgrgPFEhuIFldfmINGpFfBUElo/xqj54cSpDm9+ODcUSaneR42kKpeX6/XWFiyJrT1NslKw1yOJbdZ43VHSI4do8jufl7roKPJIfeq92SMPtrdyWcbY4/fR9G9vNuT9mbueX6/Q0d5Ck69+t2beLIeNtT4/GyyxeEVGcUsQqCS0iGm0CHPa8x94PksbVOnVcvZxqoLIdbod0n5tTRPXK94xa0N4LgARvPmbhvJs06NDNPnfn1ecHc3FKawapSPaFCyZI3//vRSeNZTI7t5Kkzd8sWJomxOgkgtXaOeCOLSf+iZD+RnefGyoy+/A5NP8WCsJLWgR+tpdFSeG6rzadEWPodtb22o+3d5NU6+6sqyXNnnjlxV7j3qS2reTJq7/uOTRKlNZZeKoFEm0FYSgw3/5ZS6MbIBoQHzjEzT5rc9KlbPKjm33XApe+hZN31vrsDE36yg8P8veLCo+tbjqgtaCM5P5PN+xTE2nVFeJiqYql5nj8LG1Rq82evK5FDn1/NknuE3P0MTXPybtQzaK6EN/o4lvfIoywUnlHmhAYUu8arxan7ISjlx1aeKbn25cUpkQefasp276akVPNutw0uQVH5k1sqEGZxUlTJUyUWLROq8DuaYQWnn+xbC0DvM68icrPu+nNimK9blS/1lupt3tqX2PKviqq6QiBbN6PIP7aeK6f6PIPX/imHjdxpOFlfeKQz/9blVetc1bfXEKpdgVCnhy+ws0/qUPUuzJB+p6D3KzA16UsGdd8VrxvuzrrqFkia5OteCpsfmFEqG12yzYn20d8vZoLdnicFEWY9Q6xJIZ+uemfC+mzWenZf3qqtNwycUed/nJJCUUectoqGJFqYqrxGiYuv/vy2QfKt+Vxt6/hPxXXE3O1Sfq55ClkhT95x0U/vMvKBuLVPc53NqGjEv+fmL9k5rilYBCD0+Mlf9N7yH7gqX6/U7i+oXvvI2i99wuxk/Z4i748rdT+OxLtPX6efHn09bTjMUztHXfdN7XuBY5l0AFLYMFQguO8NiOSZoIJ/PujnXL/ORQeRyny+UgV4XszcPTMRoK136O0xoOUvePv1ZRbKVFwLI15L3sDeQ68QwiizZhwmwkTNEH/ip5zmrKQXIlJ1ud5t6s0LJUULnY8hi5TjidvJe8jhwrj9PO658co8i9f6bofXdWtSjh413T512uvevhdmieCHVwJEYjE/klI9cva4dHC6GF0LYqB8Zi9PxAfrWiud0uydTAIttVoRJUWtx3W4VXm8rUfrux2Hbd+k1yHNip7N+3dZL7jPPIdfLZZF+2miz26rJAM9NBSm7dKIVY+ayn2trBnKhkq/NGDXu2aeHZZquMptt655H7zAvIddKZZF+0vOqFSnpsWGraHn/ifkpse666xCvxXlOvuooip1+o+XhICXp+F2m5O8u39KZdIan86ZFnwmGll6zr1mp9B5pAaHnWsGOMWgeeEO59YSxP9NibZa9W7bzA4WNHheSS0UiCDoai2tzRyQR1/P775H7h8eq+z+Ek+5JVZF+whGxz5pOtq5csbg9ZuDVfOiXts2aiUUoPH6T00CClBnZJ+7+1ZuhyqNjaqKrimZxnm1V5Csri8UnRAfu8BWTr6ydre9fRMUsmKSO8VPb0pWbzQwcouXu7ENohdQsDl4cm3vhBiq86WZeh8Lvs5HVqO92NB5O0/3D+fb28zyt11wItAy9lbeWEltMk2zFOrcWmA9O0fzR/clg630vtfnWTkBKvlu+87WPTFROoqsH7xD+o7a8/J4tBO9RwUpKUXWyApSw3H8hEjXtPJhesECL7AUp3ztHl50verM+luZe5Y3+46FjPBeu6pNKLoGXgjIgjLWdxvAdILOopdq/GphKqfx7XP05UyCDl+a0/oK1bFznjYhp775c1z0rVZGJ3Edk7jCGyklctHCx7m/h9jDYLWG00ff6rafTdn9dNZKVFmRA+rUWWm3OUOjsLkW1tILRAIuC2U0dBn1quEsXZk2oJJSt7qn6nXaoYpaknJER29Jqv0tQrr5RCj0bwYu3tctKTwfboLE7xu3UqK2xRD+LLj6eRD3ydQhe9UQyYfuLEFco8Tu1XPMMTiRKLWJSPh9AWk8awtCaLS0wIwxPqM4MTwquNpysL9fyARzpfq7VXFDnzYgq+9kqp7i9Z67+mlMLE/pyQWYxcdc8ie7edDdw3Zo9vfheNX/lpqfew3vhcds3XPFwJqrCyGnuy3GsWtByZSkI7jTFqTbhqjceZf0vwoftkSr1XG0xWzrhhkWWx1QMu2cjFIBydmVyVpDpE8FhU2XttqHDVsjDokj3cOqxNuEgHe/uOtjRlurvr8jntNqvm5RYZPs5TmPKydI4HmcatSaiS0EYxRq0JTwhLe/MLVfDEUSocphTOZA4rSHbi8HFNzeFnW1a6fEe8NhYPFj/eJ2UB1HJvkvddJa+wKyccVhNX2uNx4c/i6Mrt4UqfRauxssgLESHoDqGrtraj3n7G5a3L5wu4tA8Zp9JZGgvme7Ocub+gy42JpTXJ09FSd1wcY9S6LOh2046hSJ4XOzaVpL4ul1RCTtXSTni1HuFFVKpxvKDNQ+GxlCZna48sFFy+0qIoV2Lic6XZZO6oC/+ZN04qnTFlz0/yjIVZHbJQNKnXwnu4NmfunELhWEnjlakgqrZjzCEnglkqLIp0hD1ZrVvhMaOTiaIa4Ut6PGgg0LrEKwltEGPUuvDEsLjHTTsPH63YwxPI0Hic+nvVrc7ZK55KpKizgsfKIeSFbV7aMxnW0KP1KhPNol+6QHAtco2GFp43S46VrC3SWGULxqnKscrqLLS80PPr5M0WRn1mniPQsuTpaKmlXQxj1NosLrESHxMr9lr2amPpjGSVaBMTYa0N4vOE1ulRV26x0BuztrbIlhunI2Nll4VY5VjpHTpmkbXqsGHKi9BCb3Zht1t1CVPQFMQqCS32aFscbhnGSRx5k6CYRw6P1barEBRerZKCSvMCbvJpmKxSj5Ak0OA6uX263tN6JEDx4pMXoYXeLFeCAi1NtJLQTmKMwNI53qIVOZeWiyfUe7Vc33hKQRYy+xyL272a7W9BaE0itE59xImd2Da3PuerePGZKZFp7IQ32+pMQmhBRXi/dPmc4gzkwdHadha4ObySEDInrGgVQq5XNiswpkcbcDl0CRlzMZfxEpnGhZn7oCWZqCS0ExgjwHBZRrcj/xaZmk5RSGVj+CM/I5GSvNtKuDTKDoXQmkRodYg8cLhYj5Axc2A4WrQVslx4s2qz8wE8WtCCcOh2ZYmOI9xrs5bmNdzwfTJeWaxTmYwmn0PPvT9gXKHl+zfg0idkzBWgpqP558O5ChTKLQIILagaPnDf4c2frGKJDI1MJmr6udxwgJOjyt6psZQmnwF7tGYRWu0iD+xTtnsculRl4oXiwZHixMC1/T6cmwUQWqCOdQv8RV/jJJBkqrbCEuEy+7Vj0QSFkxBaCK06Am4H2XWqbz00VnzUrSfgpL52Fy4iUCy0hzFG4FjavXbpXGDepJjJ0sBQ7SfBJuJJmhQ2nUwLYU1LVaRGYwmKCo9XqwQW7NGaRGg1CvFzI3e99mW5DV5how2+Tdf1+3EBQd56rJLQjmCMQCGr5vnIUZDkwW30JkK1N1iPCq+WBZYbELDgJoWIcxszDv3Bo20RkeXCIhpUBOFjNXpUf2I4L2H/4eL8hCW9HvK50W8W5DEMjxaomsBWzy9etR8cjkkl6PSAj/hocf4RHq0JhFaDxRAfSWt369eSjj1Z9miPhROgVs7FQg6U19HZ2uShOhQogsPHPQW9NVlkDwzrV7WTQ4C1eihZeLQmENraFkMcAenwOnVrSccJgKUqo52wKIAEKFBIlArazc6WLXAIYwVKcfzC4omFjzoUHtzXEt5zY89B9SSO4z3GF9oarpGFtxmEyFp1UlkOFe87VHxmlhee3X4HLh4o682WE9ohjBUoBTeGXz2/eFJkrzaezOj2vnweUm2Ci1FCx5lsFjeQxlEH1tYOj0MKG+vF4EisKGTMhVzWzEcCFCjJsFKhPYCxArPB3X0KV/KchVxq1a8lvF+rRmyNkgz1m02D4olDDVytrhFLa4fHqUt/2Rk44a/UmXGO7KACFJiF/UqFdj/GCpTjxMVtRU0HIrF0zbWQlYity16d2BrFo/2vh3aQ7bL3GE5s05bGC0a110gqSOHVV2T5nPj+w8XpKpxl3NvmxCQAZmMAHi3QBA6dnbgoUPT1kYmEVA9ZV7H1VOfZZm0OyRpNNJWhzKozyPvqDxhGbDPedto8b72phJbXBSyyTh1FNrcvGynKqG/z2Etm3wOgRmjh0YKKzBGr+sW9xbVd9wkvIJbQb7/WInu2nirE1ggJUT6njXbuGyDX6ZeQ74pPEtnsjf2FxPtHXvkhitncjRdahdeHE546PfqKLMP1vAtrGXMS4MlL2ghJxkAroR3AWAElrJnvo4AnXzB4v3bPYITSGX2Tf7jMns+pTKyMsE/b53PRjh07pD87jz+HAu+6jqyBzsb8MkKwHJd/gBaefBaFRxuf+6jk+kgiKzxZu84iOz6VpNES+7LHLfCTz4XCFKAiivdo92GsgFIP49SlbUVVo7hBPCdH6e4luuyS4JpBaOcIoX3qqaeO/Ld9yToKfPA7ZF+0ts4XzUreV7+f/KdfLP1nYrjxO0WVrg/XLe7yOXU/sxqOpWlguPi+5a48/V1uPPBAU6Hl9OQgxgsoweu0SSG1wimQMzb5aITecAg5V6zAUmYib3xC1Pw2N9133335D2CgiwJXX0/ul1wh/kN/b8ni8pD/LZ8h1xmX5YQlHCb7xKABhHb268PJb506npOdgRsF7B2MFGXOd/octBa1jIEyQlTieGy5GMxujBlQCleMKpUkMjyRqLmlnhJ4z67LO7vHYwShXdXtp2effZZ27y54tITAei5+G7V94NvCu12j2/vb+ldSQLyHY91ZR7724IMPUo+r8YlZs3m0XKxEr3Z3x8LbHLsORIo6UnHS3ylLsS8LFLOr1BfLPWHbMWagGpbO8dD8zuJWYYPDMZqcTur+/iyyXV5XyeM/RkiGWtmdW4jceuutpX//ecso8L5vkO8tnybbnEXaebHis3te8W5qu+abZOtZkPd3t912G/W3GSAZqkBopcxiIbB6NQg4FvZgdx+MFCXw5bZF2sX9hLPPQDE7qhXaXRgzUC18kL/Dl79nyj7C/kNRChdkcerBbBO0Eeodr+sNSOH1733vexSLzR5S50Spto/8D/nf8UVyrF6vOjvZ2tZNnpe9ndqvvZnc57ym6EjR1NQU3XPHn6jb0/gzocdGHOxlFkx6wFnype5NPr7GLSIBqNWjtUNogdZe5WlL2+ixHZMUPqZsHScg7x6M0MoFPnLXIVTJIUcuZhCMJaWwoBGSodqE+LNXu314mG644Qa69tpry64YWGTZsuEpSm57kpI7N1JqYCtlJoY4tbv4WxwusvUtIvvSE6Tv49dyMddvfetbtMAA+T1Zq42yjlwkhPfb/W4H1StSy6VDJ0u0euTyivM60cgdVM3OaoV2G8YMqIFb6p2+vJ0e3T5J8dRRQUins7TzQJhW1ElsHdK+rYtC8aRhqkOdtbCTto9N03XXXUdvfetbqb+/v7KX7msn56kXSZYbyBRlpkYoG4tQNhkni9NDFn+7lFillL1790pC++Y1PY0XWrEI4jBtQKr6Vb8wLbd4LHWMhys/8TYIACooqZvl7urNGDOgFu62s16IbWFyUkoWWz0LWhQ4hrkayYE2Q4zLOYu6pddgMEhXXnklZdUUh7bZydo1j2zzl5N98TqyzVtalchmhDd81VVXSRnHZy7obPiYZN1e6ehOPUX20Gi8ZJLe3A4XrUGGMVDP5mqFdpzQLg/UAJerO21ZabHlDE89u/0UYvcFDDEmFy3rPXJM5Z577qFPfvKTdf8dPvrRj9L9998v/fnsBV0NHxOLJ6D70Z1CkR0aL+4ty40yTlocICQYA5UclnWzKqGFVwtqhicv6YxtwezFZxZ3DgjPNl4nsTVIT9oO4V2fdYwX+Y1vfIP+4z/+o27v/5nPfIZuvPFG6c+re/w0L2CATVp3/cL6fK57NpHlRaHVApkF2nqzEFpQF7gm8qlL2kuIbZZ2HAhLXX/0Jus2Tjjwtevm5/33pz/9aSkxKpPRb9ERjUbpHe94B11//fVHvvbylX2GGI96XZuBoah0rrsQLkhRKvICAIQWmEts20uLrZQgNRChUETfjj/19JoqCu3aeeQqqNfLnu3FF19M+/dr38/joYceovXr19PPfvazvK9fvnquMQZE52gDb4PvPRSlsani7GI+vrMeIgsaLLQbMXZAS7E9pUQYOSNmQi4YoGdRi6xBQsfS5O520KvXzCv6+j//+U867rjj6Otf/7p0xrVWXnjhBbriiivo/PPPpy1btuT93Ql9bXTi3HaDeLT6XRtucCHdWyWO8LAne8byDjRwB1qxUa3QPsdOB8YPaEVfu4tOL+FBSF7HYLTk/pk2iPdzGcer/eCZy0p+nTOBP/vZz9LSpUulpCVuQlBNZvK+ffvopptuonPOOYdOPPFEqfJTqe+/6pRFxrkpdBLaRCpDO2aJlnDjdj6CBpEFWq3pygmtRcFDzEvhNRhHoCWTkSQ9tTsoJUUV0tXmoIV9Hs3r27puvIYsk8OGGYM33vYk3bN7pOK/6+npkYRz7dq1tGTJEvL7/eTz+WhyclIS5oGBAdq+fTs9/fTTikLP3EXo2WsuILfdGC3fki9/L6VPfZmmP5P3/blVY2HtYoYLUZy4CPWLgaZsFTZrGy4l9cWehdACrenwOujMFe301K4pihUc8xkPJqWjP0vnezX1OLgwgpHm1v93/mq6VwhtpaXu6Ogo3X777ZJpwUfOWmYYkc15tNomQ3GYeP/hKJVqh8zt7tYt8OMID9CaDeX+UskJ8WcwhkAPAm47nbWyUzpvWwjXnt2+X+OMZAMlRDG8T/rmExfU9T2XdHjpSiOFjUm7PVrW1cHRmJT4VEpkV8/3Sc3bIbJAB56pVWg3YAyBXnicViG2HdIRoEISSd5jC9PolDZt9ox0xGeGL1ywhnp99aup+41LjjeWN6vRAohDxLvEvTI8XnyvcD7AqUvbaNkcLx44oBfP1iq0T1JuoxcAXchNhO0l68tyCsGBoZjUYSWjplxh3oTuM9xn7/E66b8vPb4u7/X2kxfSS5b2GG4Mal0ATUdStH3/NE2X6MDD/WR5IcdJeADoREbWyZqEls8ZbMFYAj3hxCfumHLCwtLl+CaCSdq+L0zRuPpQctaAQstcurKPPjRLFrJWcJj6+ouOM+bFV3ldeNl1eCxesmE7w3kAL1pVemsCAA3ZIutkTULLPIaxBPVgQbdb8kC4KUEh3IiA921VHwEyqNAy/++C1XTJijm6/OzFHV76xevXG7aBuZoFUFzcCzvEvcBCWyrOsbjXQ2eK+8jlQNN2oDtPVvoHVq1+EABawdV6zlndKRW4KJqUs7mi8Lx3W21TgqyBhdYmvPif/MupdKnGYruo3UO/e9MZNN8INY1LwX1ordXtGXNru237SifK8TYE19Ze1+/H8R1QLyo6ovBogTHnXxs3kG+XMkVLnaflrGSebEu1OpvdozV2+zOnzUo/FmL75hO0yUQ+vb+T/vGOc2hpp3GTgKpZ/HByHIeJuVl7qf16zmLnBdq8DuzHAmMJrdLNixeEBYW1YUxBPeFM0W6/kzbuC1K4YH+Wy+tx827ev13Y5yaPy1ZhUjd+1imL7Y2vOJHOECL5+X9uoVA8pepn/Ps5K+jDZy0nu9HdOgWLH9bU4Yk4DY3FSx7bYbhZ++p5PrLCjQX1JSjroyYeLc9wD2NMQSOYCSUv7vGU/HsOIfLe7cGRmCS+ZvVoj4UzhJ+8+nzpVeneKgsse8NPvvd8+tiLVhhfZBV4tLnIxbS0XVDq0nJW8RkrOmgth4ohsqD+PEwKyhRXk473gLDLMK6gEfDeG1f04X3b5/aHivZn2esZmUjQZChF83tc1NnmqHpSNxp8vvbbl55An79gDf1+8yA9uG+MNh6eouFwgmKpNLW57NLeKzcHOHdRN71y9Vzpa6ZilmvCWcSHRmNSlbDZmN/plu4JB+oVg8bxgJJ/ZKmiYPnZwh7BuIJGk0pnaduhMO0fjc76b7xuG83vdZPfczScbAmNk+s778EAGoj0CedT8tUfPvLfHJHgnrFceGK2c9Nc5GTdgkDJIicA1JlzlOhiNcvfp4RFeA7D2IJGwvWPuZRef6eLXhiYplCseB+Tw8k7B8LU7rfTvB43ucXkbDaPtiWQrwlL6sRUkg6NxUqeiZUWSpbcXuzKuT70jwVGICLrYuU5q4ofyjGcR4VdiPEFRqDD55D2bveMRGjn4QilS2ziTU2nhE1TZ8BBfd0ucvNRkgw6PxoFXvxweJgTncod1+J9+uMXBlB8AhgJ1kNFxx6qvWvvgdACI8FeDmcm837d9kNhOjgeK/nvJkJJmggm6HSX8IaiQQycQRiKOGjg8OxbAJzstGqej+Z3udEMABiNe5X+w2rLpvwDYwuMCE/IJy4KSCX3uvyO0v9mYpCSFpyxbKwLK/6XEiY7rzFb6UxyDg2zwJ63tov6IbLAmCjWw2o9Wm4FNC6sC2MMjAiHGM9c0UFDU3HJw50+tnqQcH8zGbs00fMS04LqfPUVWBbXguhw2uEtilAsEMLK+7AonwgMDOvg03oJLT8mdwt7I8YZGBnu1jJH2OGJOO0cyglu1uYQE7s7l3mTzk38Fk5Khrukr8amadb+XymnL09gl/f5pKxiAAzO3VRFVzu7yjeA0ALDw/o5r9NFcztzgrt3V4gydle+l3WsdwvB1VZgM1TxKH/G6aWF3RBYYEqhVYwaof0bxhiYUXD71vbS+DMBouHC2V4WBavs4QLdBXaG9ev6ydMbwKABs1GVDqpZQu4X9jzGGZhOcO0OctnKKCkLbvJoog6oXmClCEEVp6fcbRBZYDqel3VQV6Fl7sBYA7OR3LONSw9V/odpCK5qgc1W8Y0WC1lcqH8DTEfV+gehBS1D9D5x27qq6MsKwdVHYGd01unBIAIIbRm4IsYwxhuYhfT4CMU3PEYWr4pOj+n8s58Q2NwCRK3Ays4sUSaLwQRmY0zWv7oILT9if8WYA7MQufM2KWxs6+5Vd9dnW9zDzeaO6RwRWLVYeK8895qJxaQFEAAm4i9qnoBa8un/hDEHpvBmhwcp+nCuiAuHK6XM4lqyi2cEtwaPzlQCm5JDxLUuMGxHRVZCeLTh22/FDQrMhCrdq0Vo7xIWxrgDoxP6xU1CHFOy0Ob2aPncbN6krwYhPJlUE4aVZ7zXGYGtdTEhe7GFlbi4C17s0XsouWMTblJgBsKy7tVVaCNq3xSAehH9518osfnZo184NgFnJoxZw1NgkYXJ9F5u9mhy0xHvVYvPYSuzoJEXJ8GffJuyUazZgeG5S9a9ugot81uMPTAqyV1baPo3/5svjM7irGPLjBhowYxYmUF0jxHXTA3ZwyV+bK74h6NCPWn5vdIjhyl48zeVHb0CoHGo1rtahZbTnOMYf2A4kd3xAk1+5wtCRAqawlvtQlSdJV1TFgbSsgrgsaI7E15upPDOCGv66O80I66aVZ+0SEOsqMJW9pixiG98gqZ+9J/F1wsAYxCnGo611jqthAjhY2AwYk8+QJP//XnKxkpHeSwe3+w6YdNg73Y27y1dILxpHcX3WFFNFQirHo7jzD5sNWNX8LnjTz9EUzd8gTLhEG5iYDTukvWuIULL/BLXABiBzNQ4BX/8bQqyZ5RMzK4Jbp/2oqFGeDMF4ps8ukcqCaQsxGUtfYzJPydTKKp6etGWGhYnJQQ/sXUjjX/pAxR/5uF8lxeAxlKTzmmxM/VnWelRtBTUSVEzlNy7nTITo9Kea1q8JrdtpPizjwmBSVbWBre/Ki9tJgu3LmHfbGlvr0rt0x8tOh7N8hkzk+M09f2vk23uAnKfeg7ZFy4T19klrkGKHMtWk7WtE88AqCchWecaKrQcn/ujsH/F9QC6aI8Qz9SBvVJyU3LrBkpse2HWsLAiIfL4qvfaZgQ3Q/qEXs2Chi0FKzms6cMHKHznr4snrfmLyLn2ZHKsOoEcS1eRtaMbDwnQkz+SymxjLYWW+QWEFmjirE6NU0pMsOlDA5Q6uE94rjsofXCPpkkyFUPH5QTXlhObrLzn2iriKgmsHvvWKkgN7peM7snVDrC2d5FjyQqyL15J9nkLyda3QHjD/VK3JgA00rea0EpouQku1z6eg2sClClqmpL7dlFy5ybJU+UjHunRId3PU1o93uo92hKCa3W5KZuINa+XaznGey31107589d0D2i3OOOsZbajv6CFbF1zyNrVK4WenSvWCg/4eISdQbUMU5VN3vUUWnY3eLP4I7guQJni2aSwHxtd9BoxWU5QemxI2DBlxoeF6A5LdXAz8teyidpOkVnsdvK/4d1kX7Scklv8Nf/6lkAXZccGj3q5NjoqulkyZ9EKOSRsUZAiafH4axZaLXKdLA6nJKa2zh6ydnbLr+K/u8SrEFpbTx9ZqunYBEA+v5T1zRBCy9wMoQXqZksLWTu6JHMsX1vaa5kOyqI7IgmvJL6S95ulTChIqYN7peSoUgLrPOlM8l3+NimsKH3N7av5V7YKocmU8AKPnB/NykKSNbC3OyOsFqp6z9XaOUcsjkZruubuMy+g+NMPl84Qt9nJsXiFJKIspmS1kq2986iIdsrmQw4m0JUfa/FDtBTa54Q9Lew0XBuguSb42yTjfbjZ4P3c+JP3Swpn4X+7YKkk3IWTcc2hY/4Z3goTvOWYPU1bgfBmj3p0dckQthzzqlJYiz3a2gSOFztt7/w4Zd/8Pkru2U6pgd1iwTRF2ViU7EtWkHv9ueLfoCk8aCjPCNtoNKGdUX8ILWgIjiUrJas8ydceOmaPrlqxK0wmshzr+RIVH+3JKv/ZpV61EFQ9hXZm0eNcd4pkABiMmzVzFDT+xTiejZKMwNBo4tF6/Br9MnInIatc+MF2tFiGVCtYic38+5nv1/AIzqwTR1uXMcYPAH2Ik4bFmLQW2nFhv8c1AoYW2hr3aC0OF5GttY+OWAOdDb0GAOjM72U9M6TQMjfhGoFm9mjZG5PEtqXH0N/QawCAznxf04WpDr/gg8LQyRkY2KOtUSS8AbLY7C08gJbahRYeLTAurF8PGF1oNV8NAKDpTe+u3aNt6YWKy1vzGFjd2KMFreHN6im0PxM2jesFDIndUbonbTVCa7Wpfm/DUINXXnNUAKFjYExYt241i9BOEdrnASN7ZTVM9NIerZpqQzUKvOZj4HCJz+FpiFeP0DEwKKxbk2YRWua/yZyF6EArCG0NE71VpchYpSQqp7HGQcVn4ZZ11pqToRA6BoYjK+uW5ugptJuF/R3XDhhTaNVP9GpFQvo+Ix0LYg9bzYLDas99bw2Z1/BogQH5u6xbphJa5tu4dsCQQltj6Jic1YdcjSYuHMauxbOs6XshtMB46KZXegstrxC24/oB43m0Ne7RqkiGsjRJ6JhsttqFFqFjYCy2ko4RWL2FlmPe38U1BE3n0aoSd7+hso4lj9atZo/WDY8WNBs3ko45RdY6fID/EzaC6wiM5dHW6I3Z7eq+z0g4HDUlNdXm0UJogWFgfbpZzzeoh9BGhd2AawmMJbQ1ho7tLhXf51P1fcb17FV28OHKUi60wAOG4QZZp0wttDNuOQpYgKYQGLVVjdR6wrqNgcpkqBmRtKoOocObBYZhWtYnXamX0PIB4B/gmgLjeLQNOt5jJPiIjprfSW6sa4HQAvPzA9KhQEWjhJbh1OkErisws0crJQLZ7Kq+n2ssWxxuY42DuwFJYcg4BsYgQXU6glpPoT1IOm84A6C3wNR8pKUZQsdyGUnVixV4tMAY/FjWpaYSWuZ6eLXA1B5tLR6g0QTGoe54D8lngdUvViC0wBDe7PX1erN6C+0+YT/BNQaN92jVhj19eWJTrUdrtIbxtZ2FxR4tMC2sQ3ubVWiZrwtL4jqDRqK2J+2MuFhU1CzO1To2Wui4lj1an8qxxx4taChJWYfqN9804EPyKuIWXGvQUFS2rGuq0PFMY4AqxX/mcyB0DEzKLfX0ZhsltMxXhcVxvUFDPToVE/6R76my1vFMiNZooWPpo9Q5exihY9BA4rL+1PcZa9CH5b3a7+Oag4YKrYoJ/0jouMqG6UdEyUih4yNJTSoFk486qWyuAECD+L6sPy0htMx1wkK47qBxQqviaEszeXHyPnO1n+lYr1xVVAAeLWgMIVl36k4jhXaY0K8WNFJoawkdqxTomc43ph6HY7xydVEBCC1oCN+WdaelhJb5prBRXH/QGI9WXXUnNYJpNWLo2OmqyUuvd1QAgBoYlfWmITRaaIPCvoJ7AJjGo3XXlgxlKGZCx1UuOI5tem9F6BiYgy/LetOSQsvcJGw77gNQf4+2/nu0M16ksRYcVX6mYxLBVIWOcbwH1BfWl4Ym3xpBaPnw8LW4F0D9hbZGb6yKMPCRPVqrkQpWqEuGqkmk0YsW1J9PUoOLJFkNMhC3C7sf9wOorydXmzdWzZlYI4aOjzQHqGMRDoSNQZ1hXfljo38Jq4EG5OPCMrgvQP08Wn9dvidPYFScO9V/wVHl8Z4aQscQWlBHMrKuNBwjCe3ThDZ6wOgCIzc9V/teFpfxjvdUWxnKYrGqjgog4xjUkZtlXYHQFvAZqkO3ewBUiUSBN2Zxe3V7r3p+/noe74FHC+rEpKwnxljMGmxwRoR9AfcIqIvQuGv1xiw1fG+ND26gq2HjQHaH+qgAMo5BffiCrCcQ2ln4nrCNuE+A7jd/HfcXj3h+To8mv7tt/nINPdtqSzA6NYsKAKADL8g6Ypy5xoCDlBL2IWFZ3C9AV4/WU1vY01JF83frkeM9tSdDcbazfflJtQ9AA7KO0YsW6AzrxvtlHYHQVuBBQs9aoDc2e1ViWSTMdmXN39X0fC37a/cvJ/vCVbUL9kw/Xj7bqra3rBuhY2AobpH1w1BYDTxg/5+9M4GSq6zy+O2q6u6EbBgIBLIAMQsJsoVACAJHDItBBmUZRgGHiMwcWUVBHIE5es4gzpyDCOoMcWSVRYRhHYcgIODAGEmAACELSYAQEhIwQDpLb1XVPfd+7wt2d7o79apedVe99/ud8z8dIFTXu/Xe96/7LfdeLtRBhnJntSGMouiqUB3NJV16RpsZNVHSe4wregd0qdfWMWZMHUMFYX7x3Up8Y5VstB9KhZyBghgbbQij2M4kalIF/o4OxlRb+vGe9KjxrqlBesSYfjHaUrJ1jvdAEpOzVIUH7k7VM9w/UL6MNoTRdjHlQpu/10S8LmlG636WOH3c8dr7ap0Wo4UyYT7x60p9c5VutLawfb6qmfsIypPRDin87xZZozdKc7H3kN51lPtzxhtun2e0Xda1Q5WijGjXNUAHmr1PVOwG2lQVBPEN4WwtlIO2vOTfXxXCJIqb9u2UOdaXZjQum/Vrs+kIjTbMUaeadG2vmX5vhIk3QIH8wPtExZKqkkBaw9753E8Q6dfgZ34rbRsLP9OeGrZrUcbbKVtMlfbIdcxi0yPHlVY7udN52OKz7tTQXQv+u00W8wb2OEJkzJd+bOgeN6PNq85VtXBfQel3U06aHrtFmv5wT4gnJbV9kYgCNwFFeaQlPWrCX19XjTI9cu+iX6um2ApPXb4shDlq1L5lo2z+5RWSW72M+xBKpcX7Qh6jjY7Fqmu4t6Bo2tslu+TPsunGC6X5+YfCZZJj9g21FtlzRlvaedrM6Ak9ZrilEGr3dZfp78y4cMUz2jZ+IJv/8wppfOjnZLdQCtd6X6h4MlUW2H9Tnaw6lHsMCiKXleybr6rBzpPWpS+4jKoY6qbO3N5wCpy27dgdp6auvuhLMcNODR/ZOcPd04z298W+YnEZbddBZK/JktplD2n7cF0It22TlgW/l5YXn3BfYmr3myF1U2a41wEogAWqH1fLm602o82q/l71sorti9B94tq0RbLLX3LZa3b5i9Le0lTS66WG7yH13RitFLpGG9Hxnu6y164Zbiib7dB9qKT3WFMjA2eeJVvvu66oWYbc6qVOTXNvlfTue0mtGm7t5OnB9UZYlANiQ5P3gSxGWz5sced7qp9xv8G2wTq/7i3JvrFAjfVlN2jbv4uEdEYGnf7tkkooRnW8J92Nqbo1Wntv+dJKu4aqDNXNEZ26gz4nrYv/T7KL55X0PvLvv+PU/My9UjNomNROPCTQhKlSs9MQ7nUQP/5X1SJ/pkoD/QvVSarjueeSmrVuluyKV1zGmtPstW1LGdoYm8mecblk9p4SmYmF6WG7fUY7odv3mB65j+TXrijtPYY43tPe3tbtv7dYbb3zGsmuXBjNZ7y1QVoXPu1kmW1m9CSpnXSIZCZOI9tNLk/68b+qqFajtXTFdpu9phrOvZcANGOznarZla9IbsVLklu7MrqstTuP1Uxx0GmX9npWte2jwtYkO5lYTfH7D9OjJvRgwOOLMtqOm7vCZLRtH63/pGhG19cbfM4PpOnZ+6T5j/e79fEoZy1y7y5zkqfudoVGascfKBnNdGvHHyypnUfwjMSfj1Rflyrs7Jap4qCvVZ2nepD7L6beumGtmurLmrkulNxbr0l7a3kLhJkh1k44WOoOOkZq9z2s14zJzt8WekQliilPm0btyUxcKcb5c4t4+v96vCcVwmhbX/2jm87taRZg4Mwzpf6wWdK64HFpXTxP8uvfjvxLkc1otC563sn92l1Hq+ke7D6/zLgDii4uAhXNeX7crzoyVR54O6NhDX4v4B6MEX7N1cwsNWyE1E873qk87hq0iEt9avdQWVHj737pds7uCHvNToN+kWu9vW16yoyaEMFIUOs2fRWSpbe++qwa6Rcks1fPU+qpIZ+SAZ//qlN7tkXa/rJG2ho36f9c5qPw+pnk3n5dMmMnhSqvCRXPTX68r0oyMfgArGPDUar9uRdjgpqfFYfYrkBEhXwJsN2xtqO5EGonH9750oo8i9vbFHZ6tzGut2x7rjV0nDtSN+Xwws4Xq5ltuesaGXLujyS9xz47/jV6ze7z5M6G4lgkVd7JLRWDD8G2en/FkgzuRyhrsvThe7L5lisLL3aRSkn99BOj+UbcW9aaSgf9acN+n+nSJKF++qyCS0S2b90km+dcprF4uKDMHqBIGv343lTNF5GKyYexRHUJ9ySUAztu0vjAjdJwwwWSe2tRwf/fgCO+5LLNKEjv4LxsenTp08epXfaUAUefXnhyn22VpsduloafflNaXpjrpogBIuYSP75XNZkYfSC3qD4rwa40gKJpb2mU/Lq33Sas7JI/qdGuDv0atllo4AnndJ9J1taHMqXU0OGSGtL75npbw43C5gYee7bk16+S7LLCe3hYpt/4yL87083oddsUdHrMJEmrcXMEB0rgdj+uVz2ZmH0wF6mmqg7kHoWCTGLjB5J/7y23Mza37i1nsHZ8pRTqDjlWBn35om43PlkWGDbzC8oslv53tnsvzVu3Pz+bSsngs66UxkdvciUSQ72eXld28Z+c3BeKugGS3n1vfW/7uE5D7qf+MzuCoQBeVV0Yl4uJm9HafP7fSlAHcxj3KnxCLiv5D1Y7Iw0MNTBVM5uosGnigSfMduUDe8IddQn7kBYwLZweMdoZWJgjUPn173RfjEO/IOx0ysWuFGLT3Fs0bu8WNzOg7+WTs6+fpPM1LtO1TVS2rhxoH83ad+EehW00qM6QGO27ycTwQ7KT+99Q3S8dq6ZDYrCNOs5M1dS2ZavOLNqi76blzt5OnBqcvZ106A6nSlsXhG8AkB5dQBs6a+M3arw72lIoLQse77XqVe2kaW4KPLviJWld+KwrcVnyFxM7urVhrZP4M7AujjsNcaab8cbrDFi/PJRS+hKq8/H14/fyOF1UTXt7e1w/MGupdxX3bQKezGyr5N9f5TJUN/W7qTyt12xt1bJGawBv526dGey+V8HrkLk3X5XNt14dqniD7QweduVdrvfsjrDd0NZnNwyDZ/9QzXRa4SapX1jy696Uto/fd+ecLWst1yaomnStxnesKzFpx4Oo/pQIro3juB1no7Vje4+qTuTehf7GSkduvftat9EqDAOOOk0Gzipsf19742ZpuO68UFmnGfigs64s3GwBysdjErRBzcftwuJstIat09r2yYncw9Av2XZLkzQ//Zvg7G3IZ82mU4ddfnOogv/Nzz0gTXNvCzkK1Ej9ESe70olhfhdAhNiSn/UZb4jjxcXdaI3JqnnC5ijoQ9o2fyyt8+dK87z/dplmMQw++2qpnXJ4yF+cl82/+r7k3gl/9NBKFtbPOMnVKbYjRQB9hJnrDNXSuF5gEoxW/HSENR+gChyUDdcEwRrOv/Fi0CquhGfLpott2rioLHrLRtk057sFdxfqLsOt/fSBrrFCZuJUV7AfoFyPjepUCZb5YktSjNb4luoG7muIApsSzr/3puTeW+l2NudWLXYbhEp/ImvUZM+VAUeeUlpG3bBBttzxQ1d8olRSO+/mdifbWV1ryWe7gplihoi4VHVj3C8ySUZrWKef87m3IbRxbf5Ycm8vciUYzVTtTG7UWPWnnU69xB2rieTLQGuzND46R1pffiry9+ra0o3bP9Den2GqGYrBOvIkovNa0ozWpo7tIONM7nHo1Vg/XCe51UvdudTcqiWS37CmfA9hpk7qDz/RtZQrR6Zox4oaH79N8mtXlu0arMVerTPd/SQ9dt9uG8MDdOBplfW+zCfhYpNmtIZtinpOaKsH2zI/O4e77k1nqM5cVy9z65xl/9anZlQ3dabUTTteUoN3LvNFtms2/pq0zH9csstecNdc1oFl0DDJqOFmxk52fWvToz5ddItAiB3WmcNamzYk5YKTaLSG7e6Y539ColzVVyZ69w3JmdYsd0UuylE1qrPxDHVN7G1901reZcYf1G9Zn/WtdVPg+qXCslyLh63pWpnK8qW8KVfnODNmklN6zERJjxhD04HkYVNDM/zPxJBUoxWf0T4nHPtJFvlc37dzy9S66eGK/w4SYd3nggYfy3ApsZgkGnwmuyhpF55kozU+r5qrquMZAAAoG7ZWMUuCtdnEkUr4h28f+rmSkAV5AIB+IO/H2aeTGoAU94DcrbqYMAAAlIWL/TibWDDaADvPdSVhAACIlKv8+Jpokr5G25XrVJcRBgCAkvmJ6nLCgNFuFw/VzRKsJwAAQHFYCylr4I7BYLTdkvY3ydcIBQBAaO5UWRNlNplitDs023tUZxAKAICCuU91JiaL0RaKnaS/V3UaoQAA2CEPqL6iyhGKzrDruGdy/pvZI4QCAKBXHvbjJSaL0YbGqpnY9PGDhAIAoFtsfPw7P14CRlu02dpNdC+hAADoxG8xWYw2Kmw65GzVXYQCAMBh4+FZwnQxRhshtotutgTnbAEAkszNfjxkdzFGWxaz/UfV9YQCABLK9X4cxGQx2rJh56GsTONVhAIAEsbVfvzjXGgIOEdbGuerfsEXFgCIOW2qi4QGARhtP2EHtO8QmscDQDyxHcWzVb8hFBhtf3KMBGfJdiYUABAjGlSnqJ4hFBhtJbC/6jHVaEIBADFgrepE1WuEojRYW4yORaojVK8TCgCocharZmCyGG0l8q7qSNUThAIAqpQnVUf58Qww2orE1jS+qJpDKACgyrBxy6aLPyYUGG2lYyXJ7OjPpcKhbgCofGyc+o4ftyipGDFshio/syRoSDCUUABABbJJgmOKcwkFRlvNTJagX+NEQgEAFcRy1ZdVSwlF+WDquG+wm3i66n8IBQBUCI/5cQmTxWhjw0bVyaofC3VCAaD/aPfj0N/4cQnKDFPH/cNpqluFdVsA6FtsPfYbqv8iFBhtEpigul91IKEAgD7Aik+crlpBKPoWpo77D7vZrZLU7YQCAMqMjTMzMFmMNok0qr4uwVROI+EAgDKMMef5cYYxpp9g6rhy2E+C87afIRQAEAFWd93Oxy4mFGS0EGAPw6FCY2UAKJ2b/HiCyZLRQg9Y/8ebVcMJBQCEwGoU21Txg4QCo4UdY31tb1fNJBQAUAB/kGAtlq47FQZTx5XLGtVxqstUzYQDAHqg2Y8Tx2OyZLRQPFNUd6imEQoA6MCLqnNUSwgFGS2Uhj1Edgbun1WthAMg8bT68WAGJktGC9Fjx4CsfONhhAIgkcxXnSvsKCajhbJhD5dVlLpC1UQ4ABJDk3/uP4vJktFC32H9beeojiEUALHmGdX5qjcIBRkt9C3WtNmO/9hmiA2EAyB2bPDP90xMFqOF/sOmJH6t2leCc7dMUQDE47m253myf755rqsYpo7jx9Gqn6sOIBQAVcki1UWq/yUUZLRQmdjDeYjqYtVGwgFQNdjzeolqKiZLRgvVw66qf5WgLBtfqgAqkzYJpom/J+y1wGihajlYdb3qc4QCoKJ4VvUd1UJCEV/IcpKBPcR2BOhU1QrCAdDvrPTP4zGYLEYL8eIhCeomXyhMUQH0Bxv887effx4hATB1nFyGSjBlZV0/BhMOgLKyRYLlm5+oNhEOjBaShW2YukqCqjP1hAMgUlpUN6l+JMwiYbSQeMaqrpagCk0d4QAoCeuuY4Um/kW1mnBgtEQBOrK36vuq2RguQFEGa72jr1WtIhyA0UJv7KX6JwnacWG4ADs2WGtfaefW3yEcgNFCGEarvq36B9UQwgHQic2qX6l+qlpDOACjhVIYrrpAgtKOuxEOSDgfSFBT/D9UHxEOwGghSnaSYMPUpRL0wwVIEtaa8kYJSiY2Eg7AaKGcWLGTL3jDPdbuJUICMcUGyadUN6gel6A2MQBGC32KVbn5lupM1SDCATFhq+oe1c9UrxMOwGihEhim+prqm958AaqRxao5qjtVDYQDMFqoVI6SoNqUFU6n4hRUOlbB6UFvsPSCBYwWqgrbrWxTyrMlaEgPUEm8JMHGJpsiZvcwYLRQ9ewvQRP6s4QjQtB/2NGcu1W3qRYRDsBoIY5kVMepvqo6RegeBOXHuuc87DPXJ1U5QgIYLSSFgaovedM9XjWAkEBE2LrrE95cH1E1ERLAaCHpWInHE1Wn+Z8cFYKwWBGJuRJsbPqd0PsVMFqAXjPdEySYWp6lGkFIoAf+4s31Uf+Tik2A0QKEJK2arjpJ9UXVAYQk8SzyGavpBVWekABGCxAd1sLvOC8r/zickMQeO3pjZRCf9KIVHWC0AH2E1Vw+xBuu6XAJGh9AdWPTv3/25mqy867UGAaMFqACqFUdqjpagupUR6qGEpaKx/q6Pi9BVSbTAlWWsABGC1D52Prufj7Tne5/7uszYegfLDNd5jPWF7ysaD/rrIDRAsQEa34wTYIp54O8JmG+ZTNV6+G6UPWK6mWfrVKsHzBagIRh1akO8LIMeIrXSEJTMOtVS1RLfYb6mtcWQgMYLQD0xHBvvJbxTvAarxonySyoYaa5souWe4P9kNsFAKMFiJLdJThqNFo1RjXW/9m0pwSNE6ppB7Tt9LWC+++p1nitVr3r/7zK/3cAwGgBKgabkh7pTdeqW+3is2TTzhLsiDYN9H/Xdk3bGnLG/9xGWrrfPW0lBvNdMk7brWt1fZtVH/s/b/LaKMGZ1G36wGu9MMULgNECAABUG+yyBAAAwGgBAAAwWgAAAOjC/wswAAQgadd4RqTbAAAAAElFTkSuQmCC;" vertex="1" parent="1">
          <mxGeometry x="516" y="310.75" width="137.91" height="138.5" as="geometry" />
        </mxCell>
        <mxCell id="5Cmd87jd1j1dDl44HN59-48" value="" style="shape=image;verticalLabelPosition=bottom;labelBackgroundColor=default;verticalAlign=top;aspect=fixed;imageAspect=0;image=data:image/png,iVBORw0KGgoAAAANSUhEUgAAAOAAAADhCAMAAADmr0l2AAAAw1BMVEXaTzIAAADhUjOtPSdRHRCvQCfiUzcAAwndUDLaTzPiUjPcTzNxKhl0KBngUTIAAAXRTTPXUDROIBu7RS9sKyDmUjbITDSqPyyNNiYWCACkPizLSzKXOSd/Lh1nKSDCSDFFHhh2MCMACAo7GRYeDxBeIxo1GhSfPCpWJBunPykoFRIjDg1lKhwUDQ94KiUOEA4pDhJ/MSU8GBJOGRdoJSA4FhdVJxp6MyRvJyGSOihAFhcWChCHMSVhLCRAHBo3GxglGRWAI4wYAAAQAklEQVR4nNVdaWPaOBO2xUaRpa6NAwZecEIuAiTNtqTtbrKbbff//6rXBzY+ZFujkSl9voWArMc6ZjSXLPs4ePrx59XVx98vI+yurq42d0/ecR5s9dv888Uf4Xw0dCjnnLjEZZQx4rok+pOKxWge3nz51G8P+iN492E98jl3GWNWA6J/ER74y/Uf1711oxeC56tw5MTUmphVeboBG72tzvvoi3mCF29LwlW5HSAY58vZxnh3zBL0xlNHg9xhKLkzHZvdfQwS9F5HLNAml5PkdDA2OFmNEdwMKBEOll4ExxKETVem+mWG4P1syF1hgF0Gxodv90a6ZoLg5ixwDZLLONKpiS0HT/B1wtELr4Ein7z+bILeu8+FyblZhuD+7mcSjOhB56YAjrZg4v2nEdz5BEqPD0fg8SaoUdQnuBpSaF/5ZGOv4QtWkIW+1NAl+LCEby18Fh2bAp0VK/jo4agEvTWBDwQdR7+caQoUFqz11BstgmNHQ6oHV/FPF9pbLrX+PRLB+xGHd88hs/i3txwhU/j0+RgE/6I6s4wtkx9fQ/fdciPipneCz6NAq2s01SyvUASjeX522y/BFVRQ7+HupfUHJEGLWUAFFUZwrqt2+vsGNliC0Upc90bw80Jzjxdupou8UDRBy51ADlIAght9W4STN2KAoMMoYJqqE5xp7S4J3Le8lYmRo0egroArE5xqCL+8P3d5MxqqqAx8apjgp4mrb28Ri0NDY/wuk8CdKMoLNYIPPubFs/DQkmdgEaaNDv8zR/AL7tDOi3vCyBBBS4i7xg4DCW6Qb50WTbnj5rXMgK+RX5ghuNLfPtN+T4qteY2Tnc+HwJapwjm4m+AYu2pYecfbNjB05xvwRs2v8AT/QIiHPcG3UoMX8gbZyJ7CdzLeOYZdBFcB2hzvVmxG8jPv0LN9eNtO0MWwgyB2/cVwb8ptvstEYaQLPOrMFYd3qG3tBOGrQoIqwXMJwfi8/1VLlRekfS9tJXhNTShWVYKStcbi49Sl3llF0G+6BJ/A4j06b9R/Q8aVduvbDI+/8qbrwfHbTDUtBM+H0PFj0zPJnK4RtIfVt5BIyqkuQbZocQq3EIQb2cXA/jGpdtOpKxzvle8kA9goIDvhRCJGg+CcwwUEjQeisoc4vKYzPpe/IobJpwP9Bc/D6iO6Ce50NtBksEbljgpSXyJlLjwVlGuEFzWoLYMugg36RgcSme5VVEpeb31Vmh0kNcrPMFs2eQES1NNfRFh/OWwoab6otGS66iXmLCyGDQfgBoIjvbfJtsmvS4Jub9MuIyxsYJk++SdKq3AbNho5Qa0FGJMZJD+/Lx5AmMx8cld4QGZy+4xTm/hf6gSvdR+VkSmalthM9ohl/o39qNu6yyKDQ36oEqzuEgCC2/pgkI+y5x7myEEP0FwX+cMXsgfJCGqrFIejX6GvdTEY4z7fUWju2ERtoxFcmTSUENxoSPjsEZlB9uBFYtSWKlLZKyjsQXqiqQAuCTutE/Q0zp0ZSH78zN+RkE6caI7uX4FbWKLYs7WQSKQ6QYxCwR+zVnJJIeZygs8klRTFA6uGzaLy/Lfac2oEtXfQGH7ezE3mxScf5ASzOUoLH11h56jgtWCMGkH9KIHEcJThNjsrkybzbDpHS2qAh7b/1LWKKsEdJkqAFZw+k/1njt2Al2S4WGnnm6N9T7yqdVcIeuDopVLrhZNfmI6gVI9JkQyXW+oQan2k8Ct7doXgHLXM/UJLr+kuWbUZFpAcqCtScokewqowLBO8Q73B0mh9S5vize7mZLum5c9aPBeqnaDlJ5YJ4pSlsvElmYFy9SnFzpVsCgghnDHclhosEbzGmXlLXqRUnZZr2ilW0SRmVSl5g3eQBiVRUSK4RA2gqDhZkiX2uZlgPIndy+qnYFNeDfszm4QgUhck5QDrWHUWssNuhtjZS2quBbSwj4awaL4oEsQNYOFYkCCebKw1VteRHjWQhyarstkVCCIHkJYXt/2FV1dlFdELpfVPcTt5guJrKxBEvrqqmyfqqPSAVnqgzCCFk8UxikN4IIh9c36ln7fcCtpjruZMapK+xwdi8CcJQeSLY7XRojUZUEHIxFb2+RtaVBQ6kxO8RbbK/67202cdQXM7l0vF5DmWX7R954s/J1h1iAAhUVmcFiGfYOzyG+k/ZughpPn2nRPUtqSlkCjVLS6fFBvufpX+4xx/LsxDVzKCK+wM/afWzc4I8hcSNCQnY+1rhZNbRlDbOZeizUPXiOegsNuVcIveSPMNbk/wHNli3YurAqdREcDLwmyb2RPcIWeo0MosHoqm/+DVGf6xRBAZA8ik8qwTk+bTIlIvPpwpUoJPKFOMUsyYDKNmgrr+rQP20z8liBSCmjPUXjefpmTRQjCQmwJB5IRoMZ214rLld+hTkzg7EPwHGZFGNHOJxy1LF7vtZefThOANcoZSaELRHnctBJ/QYYDkKic4RVojdaR8DK9NW0XqjpmsTwgiVT/5mUAFbSmPaFmfhnfEBLGOR5nfUQ1t1YB26OoKif0wJjhDzlCJYcUAvqN3meSEExNc4trRUrS74WH8XGnHBnuCSDXG1V6C7VigFW4/JYiNW+6OfNcD2qGdmA8jgu/IhlocSCiEaIJxMLWFf1ONZx4kNGO4iwTXCUGkRJUG25mAAV/hIib4jDzM62ranfgNb8OnMUHsHlO3+BrCdwNOiu8RQazG0OKFx+EHnmB0JrTQOp/7e08EnwxM0beIINb6UfdhGsL/8AQjXcZCu/2J+XqEe4L4xLBoG7U87Hs6ZYLCsi30UpZH9J4GQYs/WVinRH+bzD8Gcvv4tfUBqxD1Jia0EiYrIFfWDJ2D3JegvzBQNMG9tPCmj75UtY8GRpDNLPSpqzdlG3uMSzq3tvClFxpDXpHAu9Di6WXhIzQDacYJHviexfYia2Lk3NwHTGSAs6WFD9B0YVWkVIFOE0kw6f5KN6oxTmZgYo8xRFCenYQF2sebAD9BrfawXm3gAy3MQZYyhAbWpWcU+t6XZsCz+KUw00oP2to3I3uoKYKWJFUeidDQDDVE0K2nteFwbqp2t6F2BNH00jcBH423hwORhC1XgHREZ0Phtb14xgDTd2ItlL/rjNfLgDbU0KFGXUxNjiUmXOJM1mP1iTex1BWGOKzeu7icDjmvl3gzupHeS87yghEuRuvXWGtSz8KLlG31Iic5h+fVbGQRt/xDk27QYpSTE89Jwv1ROM6PZeppxmxgASJhS9Gdd7v5Iiiuympmoj5uDvZCxjj3B+HVY+kL6gom21qAgp+kWi3iefU2csh+whqbpHt/Xjwnh4PZqr64/1UPT2ChBQg0lKfE/72bRkNJo3ctr5YBxpIxwThdrscNGxcgTo+9g+yijVb629VsOqSBESP+PKCT7a5Fu4V4ndwbawX4evss9P40YQJ+nHUV1YRU0SUr6wFiXg1aa7QdB7cQ7Ys/WKCatF3ZSMcA6EIHCvUPtqWsHgeeA1FTfaiHV54udkzMIOWi2RLso29KxjkWnkEeGTGPCF6Cjkzlgr3HBywFib1HBIEe0IaMuCPhDub1jc4Hln0PtH6Ini/tbAXQXxF80ohV680fqIC/gIMxTILxoCkYfcWHdgMaVsfOtOJFBTNsgFEGdCjiImE6Eb9NZQT7BjhhKz4cWDoXCAR9BVa04ge4n/EJPYm6B9vo+nLqtgIcuJtED8QEQ7B1VAyPdJN1AfBoiSTAJSaoEezkDuQF/frDDhzYJZLzeUzQgxMUBHevIxg6NemTjJwkOUsnGTFQuc3CGO4I3MmQZuQkBLWimsVje59M4l4nPy4tY5cQ1HLGseNtNOe+jpMorUKQ5vBqpQmxxeBI0OqeSA92KcE3LW8VOxZ0OpcVc00J3qFT2U4P+/Jq+0oI6k60XwX7GZoR1L1c9XTB30sE7/F315wYsqS/rJ4MvlzbaSHPu80IGiiaeFLIK8XmNZ2MRK2dDEQeAZkT1EgoFeRI0OhaWCMIz1Jgs9+OBHg1mENe8aEy3hn0PblNFbSN43foBuEeTJsHgpsAarM6XYKFctGF6pTQ6N/TJVhM5SgQfAU2c7oEi6bpYoXY2oVWvyjBUgRykSCwvO7JEiyVgy9VaYZZHk+VYDmEvEQQVnvgVAmWnUPlSumgm6pPlGAlHqtMEOSHOU2ConJZXuW2Akgw/2kSrNYnqhB8gMSBnSRBXjHXVm8MAQSCnSTBWvB47c4X9Tl6kgSdqjW6RnCsbJ05RYL1OqD1e5eUrTMnSHBfkbKIOsHHX5ggqdeKltx9dqm4k7pahYt18EGRoCwKS3Z7naLPni0HZ8eBonQWsugPGcFHxXCGozlfFBcNleXASW+QvDGUvHdUiNqlWc0EDVTdOz5ceQydnCDmDsKfhCaHc8M1td8NVOM5LmhDrnvTRcP4Qt5HhdMYp9t4F/b0l2IYNOY7NN9mrlm/lCKh9dCWmjbNBD85WrEb/3nnCHj/aUwcp/Ei7FaC9otOaVz+pblBFWx0/JS0JfixhaC90pgv2HhnnSpotC3rrY2gjkaDLUKmcW+CXINRImi/w52GyNwfuA7VEX7cTtAOoQK/6eJkVYDDeoOOIgwdBO0QOoZVqxYM4DvpeVe9pS6CYIHPUJGy0BQH3lmBoZMglCGueg5whnaOnwpB6DrECApIQrEaPxWC9huIISYBD+T8sQKVWlIqBIHSol0utQEmd7mSyFUiCHQc1qzLirgFHbOJ2l1PagTtjQBMHjHoblAGSECgcBVzbRUJ2j8gFwCrTZ4qIAuBDVXFrSpB+3YJ8WFpFH2A7KB8pLwKlAna9hqwmRJw2sgmUF8EHFAjS52gZ48B6SetRxgZP64ccswo5Co5wAjGC1H5MCP2d6spYqc+fmQC0nZBBG1vrj5Nm+1A9WbV1UHRrX1iCMbyQnkQ6UJxJ79QnxjMh25fUIL2OeRtq9SOvZ8qZ6UIPj3vbhBJ0Lav1Au3MRF29Og2bCjUJoHra+jxGgTjQVR954yx9UtzS9dz9Xhswec6KqAOwXjVKHdMsGAxk3J8mS24unrEF3oGST2CkV4FqFvDGPG375vCpcKfN+9TP6jX12tuwtG11ukStG/XgA4Ki7mU0OEywZACUwUYWWsnY2oTtO2HqaTGYUdPRQSoYTDaOxGGLATBaI8Y9Z93yPigdtP90QgmFKGjCKWHLOKNJGjbd1Pu9kSRUT5H15RAE4xUkdDRyC7qpkdEaKA2sgGCkbJ8s4SmzXTBpSPN24srMEIwwl3oc2Npsoz7oakig6YIRsO4mkZTFT+QjFtTg0WVzBGM4I23DsdwZCwYzs2WjDJKMMbF24QQDed3XDSVLGfGC+8ZJxjB+xpGJKODhKNmZxExN7oMV+DDngL6IBjjPFKnFwF3O0IFo3+7hC6mu4u+Kn/0RTCBd30TTpc+5TwaT9ctxEdSHs1jTv3ldPbacl40gF4JZni8Xo0vZ7Ptdhpju93OZrvx6vooBWn+D02wJzwYsk+AAAAAAElFTkSuQmCC;" vertex="1" parent="1">
          <mxGeometry x="827.64" y="390" width="81.31" height="81.67" as="geometry" />
        </mxCell>
        <mxCell id="5Cmd87jd1j1dDl44HN59-93" style="edgeStyle=orthogonalEdgeStyle;rounded=0;orthogonalLoop=1;jettySize=auto;html=1;entryX=1;entryY=0.5;entryDx=0;entryDy=0;sketch=1;curveFitting=1;jiggle=2;" edge="1" parent="1" source="5Cmd87jd1j1dDl44HN59-49" target="5Cmd87jd1j1dDl44HN59-25">
          <mxGeometry relative="1" as="geometry">
            <Array as="points">
              <mxPoint x="1060" y="323" />
              <mxPoint x="1060" y="54" />
            </Array>
          </mxGeometry>
        </mxCell>
        <mxCell id="5Cmd87jd1j1dDl44HN59-49" value="" style="image;aspect=fixed;html=1;points=[];align=center;fontSize=12;image=img/lib/azure2/other/Grafana.svg;" vertex="1" parent="1">
          <mxGeometry x="820" y="285.75" width="96.6" height="75" as="geometry" />
        </mxCell>
        <mxCell id="5Cmd87jd1j1dDl44HN59-54" value="&lt;font style=&quot;font-size: 16px;&quot;&gt;Kubernetes Ingress&lt;/font&gt;" style="text;strokeColor=none;align=center;fillColor=none;html=1;verticalAlign=middle;whiteSpace=wrap;rounded=0;" vertex="1" parent="1">
          <mxGeometry x="620" y="156" width="141" height="30" as="geometry" />
        </mxCell>
        <mxCell id="5Cmd87jd1j1dDl44HN59-56" value="Virtual&#xa;Private Cloud" style="sketch=0;html=1;verticalAlign=top;labelPosition=center;verticalLabelPosition=bottom;align=center;spacingTop=-6;fontSize=11;fontStyle=1;fontColor=#999999;shape=image;aspect=fixed;imageAspect=0;image=data:image/svg+xml,PHN2ZyB4bWxucz0iaHR0cDovL3d3dy53My5vcmcvMjAwMC9zdmciIHhtbG5zOnY9Imh0dHBzOi8vdmVjdGEuaW8vbmFubyIgd2lkdGg9IjIwIiBoZWlnaHQ9IjIwIiB2aWV3Qm94PSIwIDAgMjAgMjAiPiYjeGE7CTxzdHlsZSB0eXBlPSJ0ZXh0L2NzcyI+JiN4YTsJLnN0MHtmaWxsOiM0Mjg1ZjQ7fSYjeGE7CS5zdDF7ZmlsbDojNjY5ZGY2O30mI3hhOwkuc3Qye2ZpbGw6I2FlY2JmYTt9JiN4YTsJPC9zdHlsZT4mI3hhOwk8cGF0aCBjbGFzcz0ic3QyIiBkPSJNMTQgMGg2djZoLTZ6Ii8+JiN4YTsJPHBhdGggY2xhc3M9InN0MSIgZD0iTTE3IDBoM3Y2aC0zeiIvPiYjeGE7CTxwYXRoIGNsYXNzPSJzdDIiIGQ9Ik0xNCAxNGg2djZoLTZ6Ii8+JiN4YTsJPHBhdGggY2xhc3M9InN0MSIgZD0iTTE3IDE0aDN2NmgtM3oiLz4mI3hhOwk8cGF0aCBjbGFzcz0ic3QyIiBkPSJNMCAwaDZ2NkgweiIvPiYjeGE7CTxwYXRoIGNsYXNzPSJzdDEiIGQ9Ik0zIDBoM3Y2SDN6Ii8+JiN4YTsJPHBhdGggY2xhc3M9InN0MiIgZD0iTTAgMTRoNnY2SDB6Ii8+JiN4YTsJPGcgY2xhc3M9InN0MSI+JiN4YTsJCTxwYXRoIGQ9Ik0zIDE0aDN2Nkgzek02IDJoOHYySDZ6Ii8+JiN4YTsJCTxwYXRoIGQ9Ik02IDE2aDh2Mkg2ek0xNiA2aDJ2OGgtMnpNMiA2aDJ2OEgyeiIvPiYjeGE7CTwvZz4mI3hhOwk8cGF0aCBjbGFzcz0ic3QwIiBkPSJNMiA2aDJ2Mkgyem0xNCAwaDJ2MmgtMnpNNiAyaDJ2Mkg2em0wIDE0aDJ2Mkg2eiIvPiYjeGE7PC9zdmc+;" vertex="1" parent="1">
          <mxGeometry x="30" y="106" width="86" height="86" as="geometry" />
        </mxCell>
        <mxCell id="5Cmd87jd1j1dDl44HN59-57" style="edgeStyle=orthogonalEdgeStyle;orthogonalLoop=1;jettySize=auto;html=1;entryX=0.001;entryY=0.558;entryDx=0;entryDy=0;entryPerimeter=0;strokeWidth=1;sketch=1;curveFitting=1;jiggle=2;shadow=0;rounded=1;" edge="1" parent="1" source="5Cmd87jd1j1dDl44HN59-26" target="5Cmd87jd1j1dDl44HN59-43">
          <mxGeometry relative="1" as="geometry">
            <Array as="points">
              <mxPoint x="120" y="171" />
              <mxPoint x="120" y="451" />
            </Array>
          </mxGeometry>
        </mxCell>
        <mxCell id="5Cmd87jd1j1dDl44HN59-59" style="edgeStyle=orthogonalEdgeStyle;orthogonalLoop=1;jettySize=auto;html=1;entryX=-0.003;entryY=0.611;entryDx=0;entryDy=0;entryPerimeter=0;strokeWidth=1;sketch=1;curveFitting=1;jiggle=2;shadow=0;rounded=1;" edge="1" parent="1" source="5Cmd87jd1j1dDl44HN59-26" target="5Cmd87jd1j1dDl44HN59-42">
          <mxGeometry relative="1" as="geometry">
            <Array as="points">
              <mxPoint x="120" y="171" />
              <mxPoint x="120" y="339" />
            </Array>
          </mxGeometry>
        </mxCell>
        <mxCell id="5Cmd87jd1j1dDl44HN59-60" value="" style="whiteSpace=wrap;html=1;fillColor=#5e5c64;" vertex="1" parent="1">
          <mxGeometry x="60.01" y="550" width="118.45" height="110" as="geometry" />
        </mxCell>
        <mxCell id="5Cmd87jd1j1dDl44HN59-61" value="Cloud&#xa;SQL" style="sketch=0;html=1;verticalAlign=top;labelPosition=center;verticalLabelPosition=bottom;align=center;spacingTop=-6;fontSize=11;fontStyle=1;fontColor=#999999;shape=image;aspect=fixed;imageAspect=0;image=data:image/svg+xml,PHN2ZyB4bWxucz0iaHR0cDovL3d3dy53My5vcmcvMjAwMC9zdmciIHhtbG5zOnY9Imh0dHBzOi8vdmVjdGEuaW8vbmFubyIgd2lkdGg9IjE0LjY1OTk5OTg0NzQxMjExIiBoZWlnaHQ9IjIwIiB2aWV3Qm94PSIwIDAgMTQuNjU5OTk5ODQ3NDEyMTEgMjAiPiYjeGE7CTxzdHlsZSB0eXBlPSJ0ZXh0L2NzcyI+JiN4YTsJLnN0MHtmaWxsOiM0Mjg1ZjQ7fSYjeGE7CS5zdDF7ZmlsbDojNjY5ZGY2O30mI3hhOwkuc3Qye2ZpbGw6I2FlY2JmYTt9JiN4YTsJPC9zdHlsZT4mI3hhOwk8c3R5bGU+JiN4YTsJCS5Ee2ZpbGwtcnVsZTpldmVub2RkfSYjeGE7CTwvc3R5bGU+JiN4YTsJPHBhdGggZD0iTTcuMzMgMTUuMzV2LTMuMDFMMCA4LjQ0djMuMDF6bTAgNC42NXYtMy4wMUwwIDEzLjA5djMuMDF6IiBjbGFzcz0ic3QyIEQiLz4mI3hhOwk8cGF0aCBkPSJNMTQuNjYgOC40NGwtNy4zMyAzLjl2My4wMWw3LjMzLTMuOXptMCA0LjY1bC03LjMzIDMuOVYyMGw3LjMzLTMuOXoiIGNsYXNzPSJzdDEgRCIvPiYjeGE7CTxwYXRoIGQ9Ik03LjMzIDB2My4wMWw3LjMzIDMuOVYzLjl6IiBjbGFzcz0ic3QwIEQiLz4mI3hhOwk8cGF0aCBkPSJNMCA2LjkxbDcuMzMtMy45VjBMMCAzLjl6IiBjbGFzcz0iRCBzdDEiLz4mI3hhOwk8cGF0aCBkPSJNNy4zMyAxMC43OVY3Ljc3TDAgMy44N3YzLjAyeiIgY2xhc3M9IkQgc3QyIi8+JiN4YTsJPHBhdGggZD0iTTE0LjY2IDMuODdsLTcuMzMgMy45djMuMDJsNy4zMy0zLjl6IiBjbGFzcz0iRCBzdDEiLz4mI3hhOzwvc3ZnPg==;" vertex="1" parent="1">
          <mxGeometry x="91.8" y="560" width="54.86" height="72" as="geometry" />
        </mxCell>
        <mxCell id="5Cmd87jd1j1dDl44HN59-63" style="edgeStyle=orthogonalEdgeStyle;orthogonalLoop=1;jettySize=auto;html=1;entryX=0.5;entryY=0;entryDx=0;entryDy=0;exitX=-0.006;exitY=0.82;exitDx=0;exitDy=0;exitPerimeter=0;strokeWidth=1;sketch=1;curveFitting=1;jiggle=2;shadow=0;rounded=1;" edge="1" parent="1" source="5Cmd87jd1j1dDl44HN59-43" target="5Cmd87jd1j1dDl44HN59-60">
          <mxGeometry relative="1" as="geometry">
            <Array as="points">
              <mxPoint x="119" y="480" />
            </Array>
          </mxGeometry>
        </mxCell>
        <mxCell id="5Cmd87jd1j1dDl44HN59-64" value="ArgoCD" style="text;strokeColor=none;align=center;fillColor=none;html=1;verticalAlign=middle;whiteSpace=wrap;rounded=0;fontSize=16;" vertex="1" parent="1">
          <mxGeometry x="488" y="280.75" width="192.81" height="30" as="geometry" />
        </mxCell>
        <mxCell id="5Cmd87jd1j1dDl44HN59-65" value="Prometheus" style="text;strokeColor=none;align=center;fillColor=none;html=1;verticalAlign=middle;whiteSpace=wrap;rounded=0;fontSize=16;" vertex="1" parent="1">
          <mxGeometry x="771.9000000000001" y="471.67" width="192.81" height="30" as="geometry" />
        </mxCell>
        <mxCell id="5Cmd87jd1j1dDl44HN59-66" value="Grafana" style="text;strokeColor=none;align=center;fillColor=none;html=1;verticalAlign=middle;whiteSpace=wrap;rounded=0;fontSize=16;" vertex="1" parent="1">
          <mxGeometry x="771.8900000000001" y="360.75" width="192.81" height="30" as="geometry" />
        </mxCell>
        <mxCell id="5Cmd87jd1j1dDl44HN59-74" style="edgeStyle=orthogonalEdgeStyle;rounded=0;orthogonalLoop=1;jettySize=auto;html=1;entryX=0.5;entryY=1;entryDx=0;entryDy=0;sketch=1;curveFitting=1;jiggle=2;strokeWidth=1;" edge="1" parent="1" source="5Cmd87jd1j1dDl44HN59-67" target="5Cmd87jd1j1dDl44HN59-47">
          <mxGeometry relative="1" as="geometry" />
        </mxCell>
        <mxCell id="5Cmd87jd1j1dDl44HN59-67" value="" style="whiteSpace=wrap;html=1;fillColor=#5e5c64;" vertex="1" parent="1">
          <mxGeometry x="360" y="550" width="216.4" height="110" as="geometry" />
        </mxCell>
        <mxCell id="5Cmd87jd1j1dDl44HN59-75" style="edgeStyle=orthogonalEdgeStyle;rounded=0;orthogonalLoop=1;jettySize=auto;html=1;entryX=0.5;entryY=1;entryDx=0;entryDy=0;sketch=1;curveFitting=1;jiggle=2;strokeWidth=1;" edge="1" parent="1" source="5Cmd87jd1j1dDl44HN59-68" target="5Cmd87jd1j1dDl44HN59-47">
          <mxGeometry relative="1" as="geometry" />
        </mxCell>
        <mxCell id="5Cmd87jd1j1dDl44HN59-68" value="" style="whiteSpace=wrap;html=1;fillColor=#5e5c64;" vertex="1" parent="1">
          <mxGeometry x="590" y="550" width="216.4" height="110" as="geometry" />
        </mxCell>
        <mxCell id="5Cmd87jd1j1dDl44HN59-70" value="Artifact&#xa;Registry" style="sketch=0;html=1;verticalAlign=top;labelPosition=center;verticalLabelPosition=bottom;align=center;spacingTop=-6;fontSize=11;fontStyle=1;fontColor=#999999;shape=image;aspect=fixed;imageAspect=0;image=data:image/svg+xml,PHN2ZyB4bWxucz0iaHR0cDovL3d3dy53My5vcmcvMjAwMC9zdmciIGlkPSJzdmc4MjciIHZlcnNpb249IjEuMSIgdmlld0JveD0iMCAwIDIwNS41MTIyOCAxODAuNTE4MjUiIGhlaWdodD0iMTgwLjUxODI1bW0iIHdpZHRoPSIyMDUuNTEyMjhtbSI+JiN4YTsgICYjeGE7ICA8ZGVmcyBpZD0iZGVmczgyNCIvPiYjeGE7ICA8ZyB0cmFuc2Zvcm09InRyYW5zbGF0ZSgtNC42MDIwNzI4LC01Ni43NjcxMjYpIiBpZD0ibGF5ZXIxIj4mI3hhOyAgICA8cGF0aCBkPSJtIDE0Mi4zMDMzMiwyMDIuNTM2NzUgMjYuNjMwNzgsLTE0Ljc0MDkzIHYgLTI5LjExOTQ4IGwgLTI2LjYzMDc4LDE0Ljg2ODYzIHogbSAtNC44MzQ4OSwwIC0yNi42MzA3OCwtMTQuNzQwOTMgdiAtMjkuMTE5NDggbCAyNi42MzA3OCwxNC44Njg2MyB6IG0gLTI3LjM3NTc4LC01My4zNDI2NCAyNi42MzA3NywtMTQuNzQwOTMgViAxMDUuMzMzNyBsIC0yNi42MzA3NywxNC44Njg2MyB6IG0gLTQuODM0OSwwIC0yNi42MzA3NzcsLTE0Ljc0MDkzIFYgMTA1LjMzMzcgbCAyNi42MzA3NzcsMTQuODY4NjMgeiBtIC0yNy4zNzU3ODgsNTMuMzQyNjQgMjYuNjMwNzc4LC0xNC43NDA5MyB2IC0yOS4xMTk0OCBsIC0yNi42MzA3NzgsMTQuODY4NjMgeiBtIC00LjgzNDg5MywwIC0yNi42MzA3NzksLTE0Ljc0MDkzIHYgLTI5LjExOTQ4IGwgMjYuNjMwNzc5LDE0Ljg2ODYzIHogTSAyMTAuMTE0MzYsMTg1LjQ1NzQzIFYgMTA4LjU1NzM1IEwgMTg5LjY4MTczLDk2LjcxMDk4MSBWIDE5Ny4zMjgwMiBaIG0gLTIwNS41MTIyODcyLDAgViAxMDguNTU3MzUgTCAyNS4wMzQ2OTYsOTYuNzEwOTgxIFYgMTk3LjMyODAyIFoiIHN0eWxlPSJvcGFjaXR5OjE7ZmlsbDojMzM2N2Q2O2ZpbGwtb3BhY2l0eToxO3N0cm9rZTpub25lO3N0cm9rZS13aWR0aDowLjI2NDU4M3B4O3N0cm9rZS1saW5lY2FwOmJ1dHQ7c3Ryb2tlLWxpbmVqb2luOm1pdGVyO3N0cm9rZS1vcGFjaXR5OjEiIGlkPSJwYXRoOTY3LTAtNiIvPiYjeGE7ICAgIDxwYXRoIGQ9Im0gMTM5Ljc5MjI1LDE2OC4yODM3OSAtMjYuMDI5NjQsLTE0LjUxMjkzIDI2LjAyOTY0LC0xNC40MTkzIDI2LjIxNjg5LDE0LjQxOTMgeiBNIDEwNy41ODE1NywxMTQuOTQxMTUgODEuNTUxOTM0LDEwMC40MjgyMiAxMDcuNTgxNTcsODYuMDA4OTE4IDEzMy43OTg0NiwxMDAuNDI4MjIgWiBtIC0zMi4yMTA2ODUsNTMuMzQyNjQgLTI2LjAyOTYzNCwtMTQuNTEyOTMgMjYuMDI5NjM0LC0xNC40MTkzIDI2LjIxNjg5NSwxNC40MTkzIHogbSA4Ni43OTQ3MDUsNjkuMDAxNTkgNDcuOTQ4NzcsLTI3Ljc4NzQ2IHYgLTI0LjA0MDQ5IGwgLTQ3Ljk0ODc3LDI3Ljg1ODIyIHogTSAyMTAuMTE0MzYsODQuNTUyNTU3IDE2Mi4xNjU1OSw1Ni43NjcxMjYgdiAyMy45NjU5MjEgbCA0Ny45NDg3NywyNy44MjQzMDMgeiBNIDUyLjU1MDgzNSwyMzcuMjg1MzggNC42MDIwNzI4LDIwOS40OTc5MiBWIDE4NS40NTc0MyBMIDUyLjU1MDgzNSwyMTMuMzE1NjUgWiBNIDQuNjAyMDcyOCw4NC41NTI1NTcgNTIuNTUwODM1LDU2Ljc2NzEyNiBWIDgwLjczMzA0NyBMIDQuNjAyMDcyOCwxMDguNTU3MzUgWiIgc3R5bGU9Im9wYWNpdHk6MTtmaWxsOiM1Yzg1ZGU7ZmlsbC1vcGFjaXR5OjE7c3Ryb2tlOm5vbmU7c3Ryb2tlLXdpZHRoOjAuMjY0NTgzcHg7c3Ryb2tlLWxpbmVjYXA6YnV0dDtzdHJva2UtbGluZWpvaW46bWl0ZXI7c3Ryb2tlLW9wYWNpdHk6MSIgaWQ9InBhdGg5NjktOCIvPiYjeGE7ICA8L2c+JiN4YTs8L3N2Zz4=;" vertex="1" parent="1">
          <mxGeometry x="378.01" y="560" width="79.46" height="70" as="geometry" />
        </mxCell>
        <mxCell id="5Cmd87jd1j1dDl44HN59-71" value="Artifact&#xa;Registry" style="sketch=0;html=1;verticalAlign=top;labelPosition=center;verticalLabelPosition=bottom;align=center;spacingTop=-6;fontSize=11;fontStyle=1;fontColor=#999999;shape=image;aspect=fixed;imageAspect=0;image=data:image/svg+xml,PHN2ZyB4bWxucz0iaHR0cDovL3d3dy53My5vcmcvMjAwMC9zdmciIGlkPSJzdmc4MjciIHZlcnNpb249IjEuMSIgdmlld0JveD0iMCAwIDIwNS41MTIyOCAxODAuNTE4MjUiIGhlaWdodD0iMTgwLjUxODI1bW0iIHdpZHRoPSIyMDUuNTEyMjhtbSI+JiN4YTsgICYjeGE7ICA8ZGVmcyBpZD0iZGVmczgyNCIvPiYjeGE7ICA8ZyB0cmFuc2Zvcm09InRyYW5zbGF0ZSgtNC42MDIwNzI4LC01Ni43NjcxMjYpIiBpZD0ibGF5ZXIxIj4mI3hhOyAgICA8cGF0aCBkPSJtIDE0Mi4zMDMzMiwyMDIuNTM2NzUgMjYuNjMwNzgsLTE0Ljc0MDkzIHYgLTI5LjExOTQ4IGwgLTI2LjYzMDc4LDE0Ljg2ODYzIHogbSAtNC44MzQ4OSwwIC0yNi42MzA3OCwtMTQuNzQwOTMgdiAtMjkuMTE5NDggbCAyNi42MzA3OCwxNC44Njg2MyB6IG0gLTI3LjM3NTc4LC01My4zNDI2NCAyNi42MzA3NywtMTQuNzQwOTMgViAxMDUuMzMzNyBsIC0yNi42MzA3NywxNC44Njg2MyB6IG0gLTQuODM0OSwwIC0yNi42MzA3NzcsLTE0Ljc0MDkzIFYgMTA1LjMzMzcgbCAyNi42MzA3NzcsMTQuODY4NjMgeiBtIC0yNy4zNzU3ODgsNTMuMzQyNjQgMjYuNjMwNzc4LC0xNC43NDA5MyB2IC0yOS4xMTk0OCBsIC0yNi42MzA3NzgsMTQuODY4NjMgeiBtIC00LjgzNDg5MywwIC0yNi42MzA3NzksLTE0Ljc0MDkzIHYgLTI5LjExOTQ4IGwgMjYuNjMwNzc5LDE0Ljg2ODYzIHogTSAyMTAuMTE0MzYsMTg1LjQ1NzQzIFYgMTA4LjU1NzM1IEwgMTg5LjY4MTczLDk2LjcxMDk4MSBWIDE5Ny4zMjgwMiBaIG0gLTIwNS41MTIyODcyLDAgViAxMDguNTU3MzUgTCAyNS4wMzQ2OTYsOTYuNzEwOTgxIFYgMTk3LjMyODAyIFoiIHN0eWxlPSJvcGFjaXR5OjE7ZmlsbDojMzM2N2Q2O2ZpbGwtb3BhY2l0eToxO3N0cm9rZTpub25lO3N0cm9rZS13aWR0aDowLjI2NDU4M3B4O3N0cm9rZS1saW5lY2FwOmJ1dHQ7c3Ryb2tlLWxpbmVqb2luOm1pdGVyO3N0cm9rZS1vcGFjaXR5OjEiIGlkPSJwYXRoOTY3LTAtNiIvPiYjeGE7ICAgIDxwYXRoIGQ9Im0gMTM5Ljc5MjI1LDE2OC4yODM3OSAtMjYuMDI5NjQsLTE0LjUxMjkzIDI2LjAyOTY0LC0xNC40MTkzIDI2LjIxNjg5LDE0LjQxOTMgeiBNIDEwNy41ODE1NywxMTQuOTQxMTUgODEuNTUxOTM0LDEwMC40MjgyMiAxMDcuNTgxNTcsODYuMDA4OTE4IDEzMy43OTg0NiwxMDAuNDI4MjIgWiBtIC0zMi4yMTA2ODUsNTMuMzQyNjQgLTI2LjAyOTYzNCwtMTQuNTEyOTMgMjYuMDI5NjM0LC0xNC40MTkzIDI2LjIxNjg5NSwxNC40MTkzIHogbSA4Ni43OTQ3MDUsNjkuMDAxNTkgNDcuOTQ4NzcsLTI3Ljc4NzQ2IHYgLTI0LjA0MDQ5IGwgLTQ3Ljk0ODc3LDI3Ljg1ODIyIHogTSAyMTAuMTE0MzYsODQuNTUyNTU3IDE2Mi4xNjU1OSw1Ni43NjcxMjYgdiAyMy45NjU5MjEgbCA0Ny45NDg3NywyNy44MjQzMDMgeiBNIDUyLjU1MDgzNSwyMzcuMjg1MzggNC42MDIwNzI4LDIwOS40OTc5MiBWIDE4NS40NTc0MyBMIDUyLjU1MDgzNSwyMTMuMzE1NjUgWiBNIDQuNjAyMDcyOCw4NC41NTI1NTcgNTIuNTUwODM1LDU2Ljc2NzEyNiBWIDgwLjczMzA0NyBMIDQuNjAyMDcyOCwxMDguNTU3MzUgWiIgc3R5bGU9Im9wYWNpdHk6MTtmaWxsOiM1Yzg1ZGU7ZmlsbC1vcGFjaXR5OjE7c3Ryb2tlOm5vbmU7c3Ryb2tlLXdpZHRoOjAuMjY0NTgzcHg7c3Ryb2tlLWxpbmVjYXA6YnV0dDtzdHJva2UtbGluZWpvaW46bWl0ZXI7c3Ryb2tlLW9wYWNpdHk6MSIgaWQ9InBhdGg5NjktOCIvPiYjeGE7ICA8L2c+JiN4YTs8L3N2Zz4=;" vertex="1" parent="1">
          <mxGeometry x="610" y="562" width="79.46" height="70" as="geometry" />
        </mxCell>
        <mxCell id="5Cmd87jd1j1dDl44HN59-72" value="Front End" style="text;strokeColor=none;align=center;fillColor=none;html=1;verticalAlign=middle;whiteSpace=wrap;rounded=0;fontSize=16;" vertex="1" parent="1">
          <mxGeometry x="417.19000000000005" y="590" width="192.81" height="30" as="geometry" />
        </mxCell>
        <mxCell id="5Cmd87jd1j1dDl44HN59-73" value="Back End" style="text;strokeColor=none;align=center;fillColor=none;html=1;verticalAlign=middle;whiteSpace=wrap;rounded=0;fontSize=16;" vertex="1" parent="1">
          <mxGeometry x="640" y="590" width="192.81" height="30" as="geometry" />
        </mxCell>
        <mxCell id="5Cmd87jd1j1dDl44HN59-88" style="edgeStyle=orthogonalEdgeStyle;rounded=0;orthogonalLoop=1;jettySize=auto;html=1;entryX=-0.001;entryY=0.394;entryDx=0;entryDy=0;entryPerimeter=0;sketch=1;curveFitting=1;jiggle=2;" edge="1" parent="1" source="5Cmd87jd1j1dDl44HN59-76" target="5Cmd87jd1j1dDl44HN59-82">
          <mxGeometry relative="1" as="geometry" />
        </mxCell>
        <mxCell id="5Cmd87jd1j1dDl44HN59-76" value="" style="whiteSpace=wrap;html=1;" vertex="1" parent="1">
          <mxGeometry x="20" y="680" width="170" height="130" as="geometry" />
        </mxCell>
        <mxCell id="5Cmd87jd1j1dDl44HN59-77" value="" style="verticalLabelPosition=bottom;html=1;verticalAlign=top;align=center;strokeColor=none;fillColor=#00BEF2;shape=mxgraph.azure.visual_studio_online;" vertex="1" parent="1">
          <mxGeometry x="10.009999999999991" y="670" width="50" height="37.5" as="geometry" />
        </mxCell>
        <mxCell id="5Cmd87jd1j1dDl44HN59-78" value="" style="whiteSpace=wrap;html=1;fillColor=#3d3846;" vertex="1" parent="1">
          <mxGeometry x="30" y="707.5" width="70" height="92.5" as="geometry" />
        </mxCell>
        <mxCell id="5Cmd87jd1j1dDl44HN59-79" value="" style="whiteSpace=wrap;html=1;fillColor=#3d3846;" vertex="1" parent="1">
          <mxGeometry x="110.01" y="707.5" width="70" height="92.5" as="geometry" />
        </mxCell>
        <mxCell id="5Cmd87jd1j1dDl44HN59-80" value="" style="shape=image;verticalLabelPosition=bottom;labelBackgroundColor=default;verticalAlign=top;aspect=fixed;imageAspect=0;image=data:image/png,iVBORw0KGgoAAAANSUhEUgAAAjoAAAIACAMAAAC8dzY5AAAABGdBTUEAALGPC/xhBQAAAAFzUkdCAK7OHOkAAALHUExURUdwTPz8/P////z8/Pz8/P7+/v////////////z8/Pz8/P////z8/P////39/f////z8/Pz8/P////////////////z8/Pz8/P////////////////z8/Pz8/Pz8/P////39/fz8/P////z8/P////39/f////////////z8/P////z8/P////39/f////39/f39/f////////z8/P39/fz8/Pz8/Pz8/P////z8/P////39/f////////7+/v////39/f////////////39/f////39/fz8/Pz8/Pz8/P39/fz8/Pz8/P////////////////////39/f39/f////////////39/f////////z8/P////////39/f39/f////39/f////39/f////////////////z8/Pz8/P////////////////////39/f39/f////////////7+/v////z8/P///1PB3lTB3v7//1bC3/z+/ljD3/r9/l7F4O/5/GfI4lXC3uT1+rrm8vf8/VzE4Nry+OL1+en3+2nJ4nPN5M3t9Zja6/j8/lvE4Nzy+H3Q5pDX6vL6/WvK46ff7vn9/tTv9+H0+avh72DG4XHM5P3+/3fO5crs9cPp87Lk8G/L48fr9GTH4ef2+qXf7mPH4arg78Lp89bw9/T7/bTk8YDS51fC32HG4XvQ5q/j8O75/PH6/ILS51rE39Du9obT6IjU6Ob2+oTT5+v4+1nD393z+XnP5XTN5Nfx97zn8qLd7YzW6cjr9a3i7/X7/W3K46Pe7Z/c7bfl8fv+/pLY6o7W6Zrb7Jzb7JbZ67/o87Xk8ZTZ63/R5l/F4JTY6uz4+77n8qHd7bjl8YvV6Z7c7PP7/cTq9M7t9mXI4XXN5WjJ4nbO5d/z+ZHX6svs9YrV6Or3+8bq9Kng7tLv9tjx94nU6IzV6ZzBoCcAAAB2dFJOUwDyCev6ogcBAv71FvYLkCPl9xogHQ3T3xA5NXDp+/0YlsI+/HmzW2lX0HLOBJ4TpahtSe6M2dbhf+dNvHwqiV65BnbwtkacxsjEk+/LD0A7Qi6DmSZkdK0SUeIwJ76xMYZjj0ssYETd+WZTHyXAhLBPM1WrzOPBbLv2AAAgAElEQVR42uxd+VdVxx0XCQqKLAoqIoooKriyVChuuDVqGz2Ke+NJQtRoU2Nt7Nz3Hj7WJwcUV1ZBRTYBWQR97BKkLgUk4BJF0VhrbKs9/SN6rJq4zJ3lrjj3fn5+c+f7nft5M991br9+OnTo+DDR323u7z18fDx2r3L+RF8NOTD1j4EBnztF2H3ru3nZnp277JxCPeeHjfpwF9veOSwgeP2eTY7gDXiN9tsVGbBtuv66pcECH3/v2SPGAyh+vTPCM3CY/Ye1z6z0t5viCBD4i+8Ej6n6mxdJm9DNyEV+CdeP5wW6fxAKDZ7s7ecFSGCzeNJQnQAC4TyHhDavMWaK08a+vdP3D1w+HNDAYem6sToNqOG+dhmghsOsYI+BfVOfoTt8B9ErBLx8N9rrZKCxIZfMcAQC4bJ8RZ9b7KEByxyE6gNCPIfojCDdcOa4AFGwjVjSh4zMkTtE8Ob/CFqtu+0kGDIhCIhHUMTuvrF/Bs50lUId/wE6M3Cm5EJbIBH2rO2v+kEV6iKVNpsm6+RAEsd/NJAQi5ZvUVObbeu9pNQm3FknCC/CQoDUWDZfpZ1+wNpZUuviOkF3tuBw2wXkgO0cFWzM6aGj5dBlqb7xwDDfBsiERd8oHCp0c3KUSZVBa3WivOfBzgQyYlCwglHZYRHbZVTFrr9OlrcwahOQF9u9v1aIONO85NXETz+03jqsXIHs+GiaAms+1Psj2RUJWqET5uewWSRQBNsjR8psHAe7KqLHRJ0zL7HgW6AUgjxlTFAMWLhIITUcFuqseYEhs4GC+GqjTGoMnBiioBrf6Lzp1++T3wFlMU6W5JaHwmrM05njvhQoDYcZblJrMdbOQWktNM+dIeOACnCcI6nJM9XfRgUlJmibOVMXA3Uw3EM6JXxmqaPDF5qmjjdQC2O8JSqDnz7NQSUVxodpmDnrgIpw+ZMUKmy1VU8Dm7maZU7gGKAq1otuVnHerKoCX43UKHPcbIHKsJkkqn3C3nOQygqEa7OAZ8FSoD6Wichrffqx+vKHapI6waAvwEaon2K/0LUPiD9+pQaZ4+MA+gbWbxAi/rBxfUP6EO2ZO0NGCF6t9Ji6psyG0ijJXK1t9OKvFR8ETI+3tlzu6bp+v7a2teP7rIQDdTlCHjNDj+jg0Z5ZfKk+9Xg59wp7K67W99573mAUnZmIpCx9H+wraj5jXXFPfayBexem7K6WOuqnBWqMOR6Ux5WxpCfbxMHR2Nz5sEpkcHkVjfBLRJSst5dklUVzCCR3ZtD9Fza5a4o59n40ixNlTSniMEjuSIgXUz3lSeymLwgWbKUltdU3cnjEFjbQPNVbU9QJoFiZK1nHOTIk95QIP7zCCbsm1kwROEHms9McKUzXmyhyKqs0xJwN5OV0xwqjOQoUpViFms+bRpGIPlFYFDDpzFWOCobrBcQP36mHdN5H6aVDHC2iO0oEHlqTsIL3/42QB1sSKjl6mArNpBP8WTsZCNI+peIiThBO51YLIg+ux2mNn4CHHu66IEwLLjWDcIoRmrl30I5sQaprOcEob7UKMXvQPU6T6YM57d3/EK4EZ0gjDPVM0ghznMcTLUdJPicKyecs9Nz57Ze8Yk91on5adZZIHbgjZNuni0ZaQiOIViPBxIlFdGEMfXhwNU8yejB15uFOb6NoFbhUshihpyaYM5TE0jH2clJgb0oBNXnCoTktD9o7lgpulkuiQnQi0bazQHevXjGng5MIhtYmWu6MgBTf7aC8gSDppkkqDfZ9RzLhVi3kPQliOjlHOQlRk0lbiLHkXTOHMuN2J8UkofwX/kMw5ayB7FNnEsE6pHCSwnA0ie7Ve73tsUynKyMtvdYorfy3SVIsX7JPneH4VXjGSY3yXspAT+QbxvIWqvqQ9tzbkosfS5DdDWeeOT74RTjFyYBDz+hcdd+fr7kOo4rmnEyVQ/pKfHbFYZgeDnzSyMmCijaqUqopr9ol/GnaNjLL5JGd68TP/TnrRjI2e2hJ5uRCcyINd1w+e1EdQmMgW3rjZJP939jZRzOejdiKXYEfOPlguElj8gwK6+dO09h8Kl9G0W/jzR3Gm0GxvkoeJyui2yhSW2NCh5P/uKBMXsnPYyWYyTRzBuMMhytFnMygO7WICxkvC7PQGpObK8uOnEglSK5342RwZLrSFBvU6cQdOVeP9pzNy3j+49O8lrSfKiG14fhTq+uK5Mw5vJ9ajPyatIdNv0hSZc26hY4jVpTipJjPMnVwd781IalwoaP73RPfYs2qraB9a48OSEsccyGleRx7sxsWpCxtOy3Ky1rMMHM24K4UvoX612U94BlVd7aMMtXYUSrllpNNteldPMcfHDaeeowoG8Ql0bcz/Mm1iRjdnyLW7Rmy3NKS13Gc6riQbOOJotlyDCdyMZ7SwU7+jfc+TpaN7FIHEw808v99k/HGbVRerUn5jSe+maLm/hJJMuoUv8GNWwQ7ZpkzENP69lfeNbtFlkWoPttsUHTjMbYRO1aGsjzCaHYJbw9ILWakLbN3pnyG0Zz3D3wkndzwOEpu9qSki2ROdT2xE95J0RGcyOeqG3DlI6NYpc5CtN5W3uTfQZr3WVVIbPVkZ4pijpU0CMVv4cNxgM98OooZyOytppiofg2fK/uA8pWaE0j7LBsTxNjHhIdj7A3q3e0yn7OAKbaezShz7NH1gUk8byJOQEeesZiUPPeFWst3CNvyHt0T0o56nudpZ9DDXBntjFiFVvsaz2o9E2bAFhN26sYK6xW1kp2KFWfNgh5fxWMq52N46MMmddB3FOTw5J33C72BgJQ8cWfoZzCmER1Wh9IsQo/DBJ5HPkUPY/STNTPQpiGPU2EV4TonkOUoymjbjKuJsuRxXTEiZOdxN/+LHraLTer8Cqn0dfhS1YvygSzX9hIdWnQNN02xJA+99USU6Bk8nWVo22w0k8xxR95oZIZfaWGKB+KQ1EpytOztpnhkNwkdY/PEhht5drYW9CgmK5RXCIkkt4qP+H53gqj4l9QPivqehIqF6aLlLhG0Df+BReqsQ6rM07RXIp46wNhGcrtTJdl1hA9ukVwyEC+B2AB+R0Y5utpoteZynznw5qVmabLbVSSnVj5Jg248QdH97RZppC6GP74YOciXReogv3CYCF+mu1KVRvxI8MpN9/AZgn0EQcYYiWRuPy4gGRHCYtoc2UaTBi9CN0tFHZB+jaAioxOT287Fb15FeZKJDOC3fVSgw1AM3t4+DKnwRUHZPio8ISjmq0eF8HI68Q+4/kBCiQ/D50BHEjzYo04gsjYOviWclJI6IKoQv/Fk899YbMFXWBx/KKnAAN6EfBk5hsHa9gD6eotDZmnfBEjEpyby+f7Td/CbVn2MxPIWCnDPGfwCuhO9qdMKpEZ6L9ZaaYRvdU8eYWM5NyQXF+48RCONnZnsUceXPnJaDKTH88fYStBc2DCsayWybAwekYLn4JAZDj/2qDMLtUTQmJ3hjgzUAaX38YWn70WWT+GqVg0pZjmEhd+LhwwiBLFHHZRvXgfvggDyoG0vraOFdcr3PZRH1LvQ2W4ixzDXjDUSpe1D6Ar9IBN1wBOstfz3ary1+mZNUYFMkjbAp0OOYe4L1nPpPYluuagDDv6EI0PqL429OV24H3eZZZMUWt5hQs63hDXqbENpCy9oLwDy4S7uaomi11ZvO842amyRUc5W6JSHUUO+YI0681HaQhNM+4CciMcdWtEvs6Hp5zG/e9wkp5i59PvxHNaog+rBOgi1Qi/KSh1wpQa3m7wobb2C63soOyarlPCinWuoIZGsUWceymyFu8jyUgdfml6eB45hOsoNPUZ5hSyFyliDGsLcJ4inIZSFXwLXBuTGSUycL+5GtoR1qcIAPctTUSPCWaPOLoSy52QrEBRr8GBM6UT5RYQeqybUXjeFNeqgPgkEv9e/Wv73AiwivtbG7W9QQMIe6NT/QowYwRp1hiOUhVYzXABKwNhjEMqcGosSAsJb+TIQI2xZo04IQlmoRXEaKAOhn2zrNCoiXgZ14e121qhji1AWmvw8rxB1gHWfAOLEnVVIuiTo9FmoIazd2u7Kr6oZHt1XijogM5aaOY0nlRIuKo76MtMNbDHHnjrHl6UYdUAM7VeBKxKVEy6W+mY4N7ao445QtUnh5Of7SP8nFXOS6xSUDdq7egI1wpkt6gxGGRvQ93NAwddD95Xa/TFKilZLXcrEWNXFWISqxYIuepUY54id9EqLooKlUKeGV7FFHTeEqvegbyheWeqAbkInvdasrFzwWibU5Qq72aKOM3UeIkZh6oADRFcgd+QoLFYudaidsSa+NdT/K7PS1EFcdU3oFcsCeHkyylBfyRZ1PkWoCjVR9wLl0YS9P65QeaFOUjcPa2jXgdb+FqlAHRCP/gSjIUsFmazUZQUe2rF1oDXmsWpQh+9Cw9d+TZ0KIiVShy4Yow7qnotWJZuwkPgbrg65SnmZMqGSoD5AzNiHIr6mDXpdVYE5WfiLMEoVF6qAuqeaMeccFdepV7Pm4s3yC4Ko4MV0paVqoK662KKdRASUOtmKM+d/7F33c1TXFRa2RYtDC2YCGGwDNhMDpngISYwZx0ASxYwdgj2BJAaHGcfYSYxTZveprCS00qotoFXv0qouEkhCDdiVIoOQogKsEBEqFNEEYuCPSAgpQO65+8599923uuj8vO/tLd+75TvfOeeUqmp6DaJ5nRpiM6xPjw+L5v6s1TEBJYLVCVPHJp8X3K5kdMaCWXJBZzkWOrmCZyg2XK0PK1Vswy4RG0FTmkmm1wlYjITOsNgJ6lMv91KsfgAdWhoo2QobUXKkNBh/1jmNqTcdkmj8hkUJUpsy6enRJt9DR6nxttBeM8bqDvozdCZIhpyAz5CUoFA22YGN3bstrm0R2GOydEm3lyEnTqQPq8SMtcLTBvM6lPPWHNmg8zHS/RkuDjktDFF8laGiWleMVW4HyQadvUjRhVuca5ophk8YvRNF/HtK7kLpCowEIvcLxf8IncetWlD7DmLz2AfKBp1pWK+joNNEBC2PcgLFN6GcEsRyE//9CvyAdKmZ1sN9rSAOTpyQibE00Xyd+2ke0TqPkBYmYqVeS2SDzlLKMZWh/govo2m7Ci/RdRiRQtQ7d7AJ26VLQ/kFxWVNHJy7IualjIaMfyWLp1X6zBUhvW/Brsk/kA06i+C+kvOAOEV80ZT9KOthIFjwSVr1KwFtrMYG00hXEIuScvsGWpHCyTyUyCu37d8/6kyiYKfVKL6Sst5JV656O5Yv1f/yG0HxlofcUuUaVfRPlmLHsl4TZYMOJcFOGnFW+vWek84mlcIKmiAjRvf4ZqyHT7p8cFT/JzGtlkPvOTmvOlQvg5L3K0VvoXsSssCIhPWwguDeEktcJuk8JT20wHKEr6JW55yChUQXGvz7TfJBZxXc2yoDBDvpIRjfJs1D2q5vQ4nFzimlLbfJB53dcG9HxPs/b2fhFBUUXYaiK40QSgTtWfiB9fJBZz7cW3L98Es6TkhaM1bHddKgo/IJLCnwmnzQ2QH3tpU4PBk6TohDBaHzhLMrF36kTcc8XzZsBN8H8kFnF9zbcqxzWKsVMGw/NBbonn5NdWLH5iX5oPNtrCdCPzrZFcLCD2ccMIJV7kF6P2dOkg86ARvB7haLTYNUU6r+Wv6o5cHXrH26OWv7kS6s70qInIDvwLwucU4G9bqzUFjkqk68J/JhEm69BBiDyNvnJhmhQ1EnRyIZU01GkVHE+yik1EWRhemkc7+OzCCzW0bobEBygjpVNSqHt50YX5c62jVrSCAjSCGTl8oInY+wX7Mue0BUnRY3eE2RYGYwWkGGY7wvI3QoYq9RdKpFVttfqO2aZINTqYTrUZedrGUqgx+YJSN0ZmGJHT1Kz1O4wJOqXnAR3u+addCb3kGmg5sQIKVNRVKmOtzOrZTAGZWp3s7Ar9ChvHYrsn7GMjmhA4edHyIO0Aj3ifDA203WbbV3+yr4uHNZkKgIvggGygkdSgDoESGyi+gUWFCqntM7ehW+onE/7jQh4/HflRM6S5C3c2U/53mgeL8LMB5JeO0a5s3uhCPzLK6REzpfwT22iyiJNQAjx8HrxMSZ3anBtna2nNChJPuvEOAAzYAXi2xkNmSYVVb4Jou7i7ybb5QTOQGT4aAIcg2NszxnIQ1mdMKx8e2WBPi4zZXI7EBmSAmSFDqUKxZ5YeaqbOe6UsTBmVV6ecrczyFFcNtkhc4K5HGQZ2avcr6JkG/BzCDPykdEn5kCU4+fywodijyZHJ3bx20O4mI4R8O0w/d8fqf74ANI0mKerNB5H+7zELrqE06jA7u8I5OZ3pgDh6LHc5MqFyOp0gXPyAodisa0Rd+1X4c1ouYIk9QQZWRh8ij4+zkB0to62EVAHKRGTlOQrvjgAoPTkmuKYz02V31injO/3NtitQ50PLQBq7XFW57vzEusd9k8scV9yfsf7nD1YLY4JZ9Tu0uQ6WMCpUXOC1vg6y5RaV7EZwYOwcEM+6oSUq6Gh+HS3yph4VfbmpPgW1b4CT4NJ1bPoFQbni8pq7N55fOUUcrWUe01aBZtSXxu6MQ90Q2/e858CUNp3t4wg8VFrC1LaHRUvbd6qLvKLN6abn5dcNkVp03B00d+Ne2RxW99+oJMuHlj9V8YHUztTLxxVL019e+VbQfMhpuSldBgby13xTHV7iMnWTzj46mZq9ZMlgM3y3fsfU6NO5oc3IK6gR+7MtB//3qWYvY/C7mW1FXm/StuA25nFU/O2PDrsQ+c2Z+8qG6YOg8T93VVIgZLbF61vTdyn9n/zZ19r9+arhJBvRqyAv/ko2+OZdxM2rxzsTbO3Zfu4qjLOnQ8fixg5glN2LAj0xnr47vIIQZvHFYrCZqwbdeYJQDnr8WszuTIOrDGZUR9j73qgnlMW0jbSOplGEDkaIjriDHdMiaXnl0/msrDP0mIHrZ4WoZ6s8zSWFj2zer6o6pvDmdQo/re7jFWunr5az/GOyjJeZIe+83p9IKb2SFmGa3oeInzCdkQOfDHixzXKZvWjJ3kF8+sXsdyFS2lUqfRd6tPxitmuS28st35PyL6GpJLBm3t0rHhFt3+vWfZCLARSGQa6unoapMdNY8stI2tdx/43smp4C4wje2zX/o/zTx72lQTo5FTbSW1V7nNT53ty7Z7yePRwDi6e1a87d/uhsDnTMxmM4+bb2PPHzblF3/0W+DMe3WKJjmWexwYvk1TDod3/DMPxtadWv3EvePA8E0FpWkb46Df+h1wpq9cqFliUDaODN8eec2j/MrP/OtwvG0BDy3fODJ8WjuHcf7DIv/RVOyeqb0/NS2DMePI8Gm5HTzK6W7a6h+q0Z9P0Bwz4hkdVsZhodKyS2yaNYgLVxpfq2/Sb17U2IvQ+jNXx/GAZA3PJWrNILZn2nZjkTN3i7YOWPK6wg2bACUmsjC3t9FhHyrJLBi4mH8q8a7LdiPjWNyJmoijyYdOP7RDyUcjak7EHcu4YXPdTTyVf3GgILNkyO5o7M0tjIwxbLGM6XZqvGy9OX+5ccB5KVATkZPm7BauAS097hgq6/EmujL6onlIz4OjT2S4bnkrRocctUWC++IevKwtA9Fao+paL39XyyEnNNFhgHY45KBJP6NkYdENPd15mpJBvfOhEchZs1ZDkz1DRwxZ5lNNelqrEV26YHdpWD73fCLcqT77VQ338IJs/UbycEptF3gAaQ7VFTrBYGS7MthUpN+xKLJEQw7DdTvEIudz5r0qLf+4PlLiuoT77S3pt4MpxRYPZ5j0tShwy8p8EONzq+JMrU5C6qoW9hwJOwWm6f7WW8wblZ0/77cvvuGxIIOMEMr86WzglhX2X4VWZ1Re9fkm/vdK93kba6snLBWkI5y0mlGSY/HmcgZN20hq/g2L2l1jOEd36ARfh/78yQxlEekd9irOAMruYS26HiREzDP9FbbWFffzlKKX1n7t9RBpsR7Dtiv6LYsYedd3pdrBU2ztPudha/fM13WPGJ38+vMsLcvJq+V1SlTauqvrI+AzOLgjlplEWCZ4EwJTrFs8LWf5SSGbyjvZFh6dQyd+F8TSquiCa5xQ46hwRbMonP9pCaFCoBMKJjel52YOjvWezeVDDBVlMiUqm6prKa2v3mRoUkQJjy29tLG1/rTvP8sDyUCPSYx5oP1HqfeNO88AFwG/285Uen3vG3oB54fTGJpzzM7jUzquUmqwH0zCVGISZWDyuRR1LsvkxC4OC3Qjy31rhk4C1OkMrk7bCJ8jjtpKI/3QCwotwqBjAYuYjKp8wygfqochiefCL/U4LX+xEd0QVxK3q4O6BfgGuFm4TOIMzFwYpjL8jhfZnuDEuyg+/gZv4Ex8Gb/iVHK8jKtj88Ay1GdMIs0ONaNSHY3Bz2WRfQcNnhkfcHZZLUOfFhu4sl3Nav6zBXTyRAuFzmlQfqGq1lo1V5owD9v6BVyTWc7DSgFjB1m/nPBm8o6j4pycDHGOyi2TWHOC92Y1GCbT4cxLUW49tvmBE7kh509IGvC2g62fSna7KyeC/KyKWmfnoPfeN4m2RqgpKuplxZEHoOLg6HVG+PRiiYkgXgeeJTgt4P5Uput4SGVPHOXA4jsAyQYNbHiEcOicgDjtEN/eEHKsufIgA0aNtYFpbBUHMo7il7/iwuYE4hyAXhaRet2I9xB9q1d8ZbEOboZebjWJtwrwysy4Xw3/58O8080iPgjrxx33JmzmEGSF83baGJzjMY5Tjyq0j7HtWAPsk6WHC30Yak452371yBWzM5ElFuBIC+qyteBTrcj5/WeY/6u5id6N3SedFlW0Rq6PMzKUV/BwrBHQMXn2MZ6Uq9UQW6GJjjo0eIZxBPN6jVlPvo/50nqwQvWQWi9hIFPJO9ZtNi6lxGSMDUEN6qc/R953C//vd2nlDVi1hnLuEqYHP9UiANuKSdAVhU2on1BAPr+SM3eaq2l/fhD6yOMtBkEnGjrzHaYy48B2TdTjJ3dg71xZXsyutYLdK7EL4SgPzcSd/bOGboDvSsGzghCPzLkCMMYuQ12vpT0FpPuABiuqHRn91Yu5a61iDfKb9x7ieIzyuyi1Tpp6hqxLVygeIC/0T4Mm46wWahStaEob8Yk2+IGcPNzG5S5ALDx72bAzV33Ug6Ufs3CWlvhAvgfreI6GPr0DfQZCpzgMv4keZDmw1ZShCJEmRBLUP7PsWYvUIycKseQoTeW+5XopyE8PlMgUmIy0Ubwz92/kB3wRiTnOSsTH6x5Q34eVeOzMVR/2YFWvqw3rUsWJA5FUUNRvHPR5Z4caCh1QuVMH1RcJLlV5vyJ8v3bEdb1WfYmcFVjkfKj6bnXoH8xd+1NV1xW2UzOmk3RqOh2T2olpO2lq2vQRp9qHaeOkvzRtmozt9DnttDP9xem0nWk7OfdcLly4vCpoBEQgPLSAgCAP71UBuWqIEfAZUfCRqKhotBL/iQoXEGSvvb69z94b9q9w9z57nXX2Xo9vfesIHpW6m8DmvKmWAOpaCCgd0dhEHQVUY9mRIBixlj1Z+KsYgTfxIzXNeQyOBH4MI9ZLc3A/uVZsJIkNvDFfC0g+n2lQn4jOibn9fRRpHBmETQf/Enwiv6hE1Q9jSfegdbCHlUBHhJUg/FTClLjyMudddTZSd7k4Np4r/vdChRX3F6NGzyH00lqxUqHYCuUiyChBH1MxvEIExoTHSM7CtJEZS3mXQoxhj9KS7xwAlae9HJzxieWw6qBg0jiY6+wYUxa5OByfFKQtcim6ldrIAlCdjALi6a6JOLnEWG5fte/ywS5MeWLox7UUJTR4BQ0DYoHM0RENkYtBK6LqW8ox98cCvfNIvKJ5bP9Yc0U8mAZuVyiPIJLmQ+qrFnViynMSrBR9DWPhWQUiu3ZAmYfa7VoSj/sggOJOuuk4cji79/JQ1oP1YzdaLw92a9MfUTHl5NyzZBv8vQDuC1aN0gH6vI8gmvNZ0C2HuNWv9eqKfAiEKJ+i3swdrWUTg0fE6I32ksErWjNmt6EOeljsW6f36UlwpBB5QwVgaPlXgIn8R2yqY8BjbXlbn2TzYgjKIJOoUh3qt4xde2UOY1rnVZ00/CXqRn04Orpf/H9HtI/Pi0h+ojIfM5V5lu6XsKc6A0QOTsY9/UH4qVkPnWIU0CNLXWnjA3wX2soGdYc/t5GYrBg7QAOUc5Q1AYH+JLbAaq4D7Zeh7tIRIII8mu8FGoQgZ1eGvKcL45wzejZj+ee208ofBFkeNtsMvCK22toDmek9R3h7OQ2qDvN+Kdec374JHex8ed5wTlBW4k3iiU/Nyvr1U3EkxcX6LrXhebgGxYJAEnDfP0srdmuX30hHeS3vpGOtaFdJVQfqaZXBVgT7JQkv6KgWu/7pM43VDxTj/NS73aFGxVtfp7aVZurLPzvzv6rUQF54mOEoe2v5kBO39CmJ5rwMvdPb3JNkjXgGBmFe7gasiJNKC2Wq1zh/mDBx+YYqZ5xfRP/KQgOS3Mh/69AFL0mi/xyqD97MPcZmMxXeFeJvtYqP8u9TMkc26bB/1ysFHO8kecz9OfZLCTB6ueqb2P+AWT5FN9KCqJe2cUfOmGdoEKVM05dRJlWA0aRyWWmS2fhHVYw5iso5OY1i7BNrV1vCjCzjBzjzH3ltayi86XrEuzrOPEJJnynNoSyZ81N/P23AMS+7HdIdJQpBnreonM15Rq7msNU5TKVTHmJUvUKoDlLnWSf39fJ2eeZGi9hbTU4q507Kmx5UWOJQSH8UK1zMlIMeq5AbyQYLOnaOMncwgOP+hJjH4Dkkqi5X3cJuz+QgrMvjqb9SgI/D+E2SKAwFGTV4aiJMrTTZ8r45BEVAg7laTPHBdeC0/qmwEeNS4NyVxwjOGS6XIyLzKUP5JiEHvxye/0pQ5rVR/NyhoIyTINgSc+kUmUcgj5ef4mdY/DeB6vwCWPqWNFRmnlGCALtMSLtT/hkjBkjwvgMd+HLsRWUAACAASURBVMfSKcMLJsR3s3/HsEA3yi8tAL/z7bma82mg0jNHijn72LjmUNTnJZIwWxrMGFzdFQo+TsE3SjZlmo3HF4m2JHuNSzRD+vWn8aHUFXOPnS/wyx6UAXSqesxrjhcXJ7LTE3TeczM8+bshEwMPBFDxsNowBbcI1VmQ6X9l4IACvj/JnLjgC7/nrSyZodNqh+iROOWPUlUnoX1wZrvOiOaEfDhynqAolXopKGG9lVY622V5CT4Ov/hz6ikIWXvCEks44I8Ix6N6NChMp8dUQ6H2zIDXbyiLSgpa4nfJl4XPeVDnQ3VZS5bxFpZEWa3RElMnOUWF344efuGhkKnRiZo7ZRTy6ozYbov1WJJqt6TUr5G9sj45m9/0L/x6e+nlBjxro0ntNZ6FY6shcwMOg/Yq6qQ1qV7oD3IMvDxLdXhU6VV6sXftaY4XVyIAKUDvzUyTfSQr0chguFZpXovUQHH6SXyWFeDVWVB2tgiijC6cuezZHPesfP9nQiYHLIGPlL6DsEWxZtLnDg+Tm9l07UX2v8/SFrJVzaEiyuIAASrsCrONo2Nwr2gVzrw9VuXak6VvKb+kkvg8QS7UarvGshQXNgwA/zBkdsDQsnxcZ9O32pVr97D2F7jmgeY8s0Lbqqzts6w5VB2oKCuATllhWHNCPnzs3DOvjrqjmYzwsjD3B/2Jv8pGA6nK6Wi37Q16LSjxE86mc8606uDRiWzY7M+3LtlB6ggc5X75Ndy/olge/TrP/kBfNJzwSbQZV51kn+nd1DiQLAkVLmd+uHaah4lFB3a4DgXOSp1h9oFfZP4KxAeMGugBOYJ3OZBshOpGwBWcbpgq51vJbpd4ef1lLlTHw5B89+D5qiyoDn5IHIPma3TC8NJNGAMsInqq+ch3uBWItgX+O040RxaNnPEwFeh02SEbA2ayTkDRyCY3oqViLlwdxvdQU+dwUHxDwHMV4fE5BU/3thXVwSnEkBKM9IQb0YZr9JzVdZOqw5Gyd4unz9vqSHWQRFYM7wl/yIrqtMLr51YuAM98ahSJbRGOSOxnqc4jn9G8r952tT0Kfjlz3IIn6/OtqE4bbvfxbWH9m85kW6Jn9qdAO//iZhcDMaMOu/ie52SdhseXRkJ2Bs7RXNbIzTXkTrTdMa37P2Un/5mbvd4lDkk4bvrmDvhtllTnaHDjVAFvZW6IK5bqmV+lGlqvY/4rLj5TNzrcnscAs9J24lN1WVId3E6XZARTozTsULTNWh7jFydU53lmbjFwttil5tA8oKlxXmGqG5ZUp1bhGRig2QdOZduvc/B9ZUJ1vstM3aDl+Rt2IvtNHToZviXVSVc4KsicYAo6VuZUtg06TtBrE6rDNS8Sk791O90e3U9Y1ZXdGbI1VJhZpFBTx91K83Vk+uYEZSk3tRCU3O52e16ZJBgSU1HjZmuqU6TwFNUSFFK649YWkaRGnGrDRCNzburrgdLUdo9VVQPVWPmVYOxXeYxBep4zrkVbo2O6PYpEBAvmMwkxPTLJsKCv1Mi815rq7PCMHDt+tmvRCqOCjcyPxnPny7mZhbVu21zvjwaX3DZnNAUag56RY6fLuWSFufwo86Nv3led1znnxg8YADMV9qRYRg4qTbPbmuqoEX1UU07WmHPJCoOkbcyPnrmvOm9wM8fmN4E1NXK3GEkyH7emOmpdQFrygkelDQ0hb8MW4NRhLyzhK7vsfIMktm9AaZoca6qjhusjoReNGa4lu1nHhR63ddZzMzcuiBs5Qgbv81pU5rlqTXWUejnkRhdILPn+EJIlFDA/egHxsIQseKWu9yfxZu+qzLPfmurkqzyGBG9WUO1YtPUaYK+nJzgEuZmFHDd+wvH+JIBiJfhHhTXVUckH5w6b8vKDj406wbLvTyQiHmemPr0Q9ic9LFRs9lxbmuNHzBw6Zrj9A0e6GA6K5ydU50mtSMgRt/uTko0Pqxw7lZZU54apQ0cxLh14dOpEqVKVWK8yU4uzPslcl9vLlue7VY6dIUuq02nq0FHBORsYW8Vhegbi+q0J1fkG94nE5t8RYFqaVCro8WVLqtNg7NBRjXLaCHqkM62IU9U0z3KTjwaGNgX+Mri6c4Vjx5Z3vt3YoWOdeAaIanPo6OcmVOd33OyXxPurc7e/o5ysFaydHkuqg7ucfSwDZlqPM9EO6n2Ln59QnT9oejdVzhC0Eb5zbhM+W6kVzVFwiwBg/SVXoj1RoBekSjXkW/Jj7s1FTSRtAgzgjoniIeXL82zqbAUqh51VKhE1YdeYY+HJyerPtdz8RJlXe4uj/R0y+urK5zmWDLHEO4J+xwk15lKU/55UnX9wC2yaXzxbEYJEz4Ntjep2C5qDc0ZmJs3OF2hQlUVcv49nJ1VnFStsgi/AdxO7Ogm9PNw8OGZBdXDo2/vYhE6cECoxWMX98PWppjQbuP+kgMHXrjjYXwIjM0rCFQkWWFLwgsY7IDVThwPJ7szTvC4fnyZs/zvr0KbNIxryKPj6cIox8wFlPJSMEsI5CAtmHNaFsayb5hJkg4Jks0TL5L7jI5wFCrsN/vI3GVedcvjEg2ko7fOk3NK++x90j2XRXt5NapXYiO0Nvge/P5goJVxoWHMOwUYtzthsnZ2J5GppY6/+9Q+Ik1drm+KhqO3aj1ZY2DGYE267YdWBoehFCmXLTXbletXXvvlXz2BrZ91z7z/kQjfiVnfYrSBs2PIKdxjVnL1h899BKFRvlYlyjDTXt7DVpzM7YvE3lsRDrrIaGVTxpH24/ehBk6QFOBmdGrrVJpouf0sAvO7yma1plmnHHcdv+rcsegHDKsLGPdrTBlVnAF71cMjObtQ1h87AZrFvc82sflh8axoZA16xPVaPQUtVCblZxjSnFN79Lspe9B375xLNAcAjv56lOk89wf5A1jW2w1q2jkhfUc9SC1sd5aaurBicvSJZdY4Xu030jOUFsRcXPza7+ecjgKpKuhzXWLJ3iMZVyQsUlTKezW8wpDp4tSZVs1wQIeg3knakWicJaA/zTs9vHuo4/E9gyQGJAKvs+FlEwuccyTpwDb49Iq1GNKcLPuf6KED9oBcucJg/PytrdH6V//0bDzc657t/ehmy5go3bMR3MqKUEUAe/jjUNGEC81WLHwwDkkuWqIrutxCcl8KVAKqinzysOXz6fDy4I8MLRC1QNBBGco3EfsbBF1538LqaRrxuj2xJM54jb9kXMMEBH33SqqRSwGZdOUd1AP+c4TVKyzGuOsXUCX//66kKnAX1ioL2HY5W4ItRgbFUTxui5MN0tVu2lM4zHSCJX/3oXNX5a5D9p+6R04bjn0QkeThDlkxIU7g5m4PpTjQfX4oMQo7J/IE2s4msOvl+L3pah86iJV9HjI9ReRDLLINigxT9eMgAECQ/GkBz2lU6OVBAj6lyvY6g/hs/TrwvD0gcA+ZYtkSgOpC1412Q9zeobza41bDYA58i22umaL5UDITsAm3N6VfhJ9jOwXII6L5BRpHu6/L9HEAYNn6wSDi+BH2ncmhtWpM5UC0Bq5nmie8knqFQ5RESxbo5TxWEZKSUc2mopl/GnI/eLfL9FCJh3bVizVn0pxXQ98OEYYsvmNosgW2ZZs+qiAWOC46/s0taiNIGJRac3Tw87a62uwx9IbeZDRUgtsbTPyRUZ9H/2bv2p6iuO37AKFrTKKkaraZOMmrSSaI1amNs0sRXZ9TomDFtmiYzrXY68Yd02qRT9rIu6y6PFV0MQURgWVx2XUR5LO/XoiKCCLoCigRF1ER84OOPaCZJR5Hz3fv9nnv2AeHzK8u953zv5zy+7y2oUahV4+vulzPbffzGwMZHBdOgXkcumj/2Wj6ZOSaa1nwVulI9lrRSxo8fNEgJ/3aqZYGUoHolPAMxhy3cgBqHWlM8JU2KAb1LVdo90OFJLJV/ldr43NdCe8F5jBHqAf83XRK2nHNqDrtu1I1/6kaQOuwlbXbRR8v+lgTq8CMUhrSHhfxQ3jvEdx2hhEPYLcSngwHJQ0zfQI83m2ZBdqqaPo04H/0KmDks6gVtq+ixjUezQQKwdAzpCg220SSb0nIKsG6JvH6yIlCHcrhBjqxUbXKsVffVGXGvWMT84YNo3HjU87azOzVSB8ivTcAcajqFbiTYUYAJdrf304tEggkYT4ioWbN5fDgy3Op5X0j71JyFfqnDVsVIOrO+U7V2aZkzYNR5opgYqPTuEbARxN6/VOl3RkkdFoHH7jiNHONO/rlmbBeXYj8ios2Ea+wz6XX/zGET1yEHhegWru/VEAEGhPE+mZ0EptqIOdQynGlQRGvJwCmxYthQrfDhadeAAn1XVIYNmOh9rGVzG1PDLyKQ40owIxzLXwsbCAeQrmRIOtmiWl5OauG5vKH3LHNeWluD6Ex2Qn6juuFWAv4Pq8Ve3HMB8YV0HqTy/8pKVeqwBdihncJkT98Q9Exk8G2fw2uIg5lNmq4IcbVVnY79rWda9zs6qw61a3kUpPjrh5/nQKKrXsQzmNiKqqjxELmTLpnCEBiPHZ0FU21EqRGKAQMiwAfR25NOnxkTDrBQqA3U+3LQV14pLhbJjdxLf7UWwxwWOQM7wGQbZnj6DgHXBN8/pXBsnqBd0BMW1LFDCjHPepHM5xm1BveONheKOF603X8Vw+Gz1ehdsQ41RMMZqpXnajGeDWCPl4IwYA4YHMffSYrUzaCqaL+M7MdtQifrLGJYrJiE1mfduJyUylYaeRIIalMGpIC6EkPOnBbIPZa+g3JOtxJuaV3YDLOKfdhn/nMCmjpsOX6op5CBdl+epFz2+IFRhhaKvHGxS4EFaDoFEuUy+NI0YdW7lmasK1fBR8f8diYjYBHB0G1DDtZ7Hl0NuIyvVj4Efn4sXG/KmZDzCqxo3cH/PU5PLTuJDpjNx9fymzqNwhw2YR1hi0zBjlc/gPyWhaSlCmsxob4pQ2FkZtD0D7RhxzR4bhgoRntwq/H3h3FvMxomf0qQ0EE02ZUKFNv520g3GDV/FuklCjLAhHk/Nie+DzRbLWEgNvciPhPa0Iafw4aPGRVT5hBklEyoV2NLULVC1SvEpQdabINW2pmrf0L3jm4/FlxAX7T6V0hLKSHWdoKlLWIWo+Pj1QQpxTbr8UPv7k0W8vr4OfDBMhwpIaQOeEf2F70FJBD5K3ZnueQlEEeflRNg5jD2YjRFTg02wvCVOmss+bzyV3we9E4rlvC7I9ty6DbEJGirbmmjCF6nu0HJAFryORPD69spktoxqKdMwXQY1Ld6FLqqXaUIfadA4phYLFEbRUW4l+YlEcfroIhjzvtMFCtI3Im5SStaZa67207Rr/zvHw9oZtvAA2yorhLBWM5fgZwWWcmHqUlkFZTUsZjnPmEsWNzJcXxJm0q3j8cHD9JpPgR3oOVXWR8S5pRni46nDnViXb3soRaXMtGaB7wyl2nBv2nciamvoaalnD785ErYaRYyxoN5GtUhoQ6U6KOeCtypfmLtPVhTTBW0vpWWYvTuz5k2rP0ZUWS3yFVrFHthGWKnV/PVxYEvvhsC5kBZzbp01eCfRIP/+MgMZ5NXR0Z1LW0CW15lWjFrA1FocVn0iSmerjKVDXu36out0NdytQSdOWDhRQVR3Z5/bTN+bxVsOXilks4bnY3YQ+j5xUwC3p9DlVt9mkCJR8VeWutv0SGcx7fDx7gDRm7XIP4ZqFxQFdNzuaJYgDe6/MtENXPJZiYFU5aRJWcRq4aed/JEbMxd4Wyk+kp5qTXaUAvF3noxKk4Gf9v+9rhY0dWkw9TgkxlTmCQsXEcXnlOwUF92Gp9132BeCtqUT7cHlzpg1hyu0uFDnTwUnycnU46PZNIQ+R+B0z7BJFEAqs0of3gnaFh1B5U5oNszHUdhea3Y9R13qIOP/iOTiajfCwgwzpEtjzq4IwfUa/Q3g8gc0KSDbXi51ytHaOYLyeTBL/uYScaCaAEZJjbLIk8JMqQNLFlxIzZ41EkTtCMjTOOko6rjEH3sWyKZdHw+NSaE5MGWvN8Hvq40aMwB3WlJ6LLkjdol5u0TyENZ8hELBOauExJkouO6BOp0ar5mGGqDxJwM0LGEq71e2+nbo9cqr263SKWRNc+ywODVbWKybG+UUBbddKX5HipsC2wJ6wnSkXUGGoB6BYWyXHeFUcJC290l0mZq9VYWOHwUISbNWOcxGaeWkt5UWqW2mkCTSmAaLgw3aUGJ3v472CQ791fny7kXevqF4kzWTGOBxJRfC0v0ilmOYJTr1e7++BwBQ27loSAwB7YPQPHIGZbGvq+MktQJXfFZsUpO495hAcaEbZNEhZrcK00+391c9qQ15x6KpX28r4JAHTAVlZNPGJfZv/92usxWkqYswZrnry1kgcfaN8UvkI2Sm0R7bU2DBalPfpP7ikhMsBxkFqPc9+UnGltr0vVypaFU5wpGRC57kQUFk+drEO2JAYNONpR8z6WsfsujNFhfyI6snG9VgobKLQWDaXajTj6uu+8IDjpi1UoWLGyN0CDdo4U2XWCQtOdBX2Fuw1E/fT0DrWWBTjR9bm5hX43tywBNvfjKNdEQ7Enj57IgYtq7mgR8vyNJF0BU5sHes8AGKscbdKHA8ULxcrHvzWJBxksRmmScUVCkhETKhvgAMif2WAhmZGrVUO3zjQVRLOiYNl+jnOubbaHgzg3r/V09sounJJbtum8t6Dob9Nl0dxzQcARv+NMEFhJ88aZWiWe6v9GFBmajKc9edPtsSu9gaVtjwalrRywN8Yfqy4/ubYc/xY69R8t7kuMbLAeuOQsSHFnuvktNdZ49u4360Ewi6axVS+u6p5f+mYUKG7dM0rzFW86YdGEGc7E3yZhdku9yua6brrtc+SXZxqRKg1kJq1EaB3LjtEh++/q5LJT45XsSLgiW1nTdGEhwpVRpa5X5/B+msRAjaus4KYa0LLsyRggkbG6LRhPD9i1TWBhg5vrnpdw0yxJqKsdogUCfVklHr5/GwgSfzJekp8RdGiOGOuzahByxdC4LI2x6RQ53isaIoQ59hgYJT121kYUXot55Q0a8gneMGAiI95Gd8Y+VLPywcvEczdSxjNECgywx6U5aszaKhSci523QSJ3SMVoMCQhI5yczVghdcdZ/wMIYM5drIw+/vsrFG/qfHm2SitzW8ph6/t/oqvmy2dNZmGPjW0s02Ab5eTC1MXGWwrTTPxm7j8Hu64z/kR18Pw2xjvhTv9nERgKmzxO2EdZy5ZT/fw/jAUdannl0s8Zr9zU2PG4m5vtTSf0Fn5s3mY0URC7+VIw6/AyqpqER4Ak+T9IoJI3iqms9GD/sJOIXqepAi/TpRZuj2EjCxJeF7Dz8dgGccOI71tKB46NGkTd6UtqOAD1idvE9Edgorpc2spGHzfPpTnV++A5UBi422eq44Mke0TtNka/tnt8MhlhuELOCCTf6y9/eZiMUn60nxhEmKiLqxFVL5/5z9u6RxZkSz9ms/gZMgmYF9wGqVT9Wv7Ypio1gTJ9NuvTwW7IUIWPlG5ylKXV5YX6KefPqfA7nTUKMIj+ry3+AdfSHX0SykY6otf/Cu9X5fSGIJZXKU52FvU3HTGFlCjK77Ff6HHctAtl1/O7VfvpFbJ+/YDobHXh2+X+RUjrHlZJV0Ea0s8GaMJhSY98dso3InL+n4pK7zWmp1xCVVa7Q7slvzWSjCBNXfPgURkrcUEFlX4xWJB66nxt8l7xilZPxxS24ogdDSxewUYbJs9WrHBzlrq90OdEcO0sCwQ5DUgADsn5EE0ntjFnKRh/++oyKZ/0AV0bnJH0BK+zHKN3XU5tpOVJ1y1nwdUKXozRr0O0+2dvX5/Ol/ACfr6+vt9U9mNXs6Er4usBprTqSuit5Z2IOnKCss8VJGjjfJdwI/fx3bDRi4trx/tT1QgFdggD4KxtSRZ/pBPlokFb0soq2p41joxSRLz8HyuiCmAUDHbwK5wvuFuzxmAwXHZBXt7CcaLJ4drRyh80A53xc2G6KQzysaol1rmkHi1roLkosisCt9OUCf/730cqcCaCZJ8cQwFuyH1fi92gWeR7Y2FPXXSZx2Hx78v/Iu/bnqqorfHgHKCXtKCh1gBJRiFAE28ECYlVaLdQ6SqetVka0xbZO7YxDe87NzYM8gZBEExIIeZEEyIvcBPK+5EHkEXkHEsSQNBAIEAvkj6hIUwLstfZe5+59bmff/fO556yz9nfPXo9vrQV+KF/WFTqfwB8FpoYGJe4B4Kx8G4KplWnouKTOUOpiPuMgdPkYXaHzPqihXpk0XPY6Ck87zCIP6tsNGzodMoUGqCggZecfukJnJTFZc13qLmyE0xO5xPEjkXBnu7YUqUJ/xnxIF3T5hHGaQgdu2s2exTIgdRcw3nw77U7t4I08TXJlTmEejPXg9ZM1hc4rNLJOlCl51cHYifP9FJEbiRpaTH5yAXj5Ej2R8wj4wjnMxp/NsrdhK9yRJWKj+G36YUe/WrbIbBfLkxNgLtbPiZT2dun7cAs2d3YJu9RlsL1dVCVdZHYQABxWtFpP6ITCOSZnPv4QK+juN07QVA7zwhnRWvkSH2c+CaweXqMndOYTM1iX5G+EicxhF/Sq/w3fQcWsv1paAjRYT+i8RsxOblawE8hpI9bMHUnCV+YoEHg3DaTjR2oJnVVEW1BJf+wmuLexW6CJRAMcC8y6oELecKZ5lgZe/6aOyJkI6yed5oGqSmZlcQcBxBcgxEA18jI/k5Xg5W/rCJ03YMvTTYt7+baQ5mEFvFQ9MpTzc0XiMmfDRYOXh+oInXXg6+5n7sUxRXuBZBEsL35IFlvOGjogk8kNyrlSR+ishcMt9q1WySQtnFScB5vIWftVScv26MDKnNk6Qmc9qJ2dTO3kqdoMzEtyIRmJzASpvA3B1Upjts/VETrPEPOSmcp2Azt43CAItiJ+fbE6WZNopIJXdITOc8Rge7y67cAig1HA8JrwVNsmkk+rnxYTNB/TDzmPwtrpZnYqUIgcM74NxkFiFZFoYV3ZqlDUKiIp9gX9oPMmrJ1mB8M6/12xSP1dcyQt+0XJutMXO3IBm/Mf6gedJUROSrVS6GDekjX48PmTFyOJ60Nfu2jh5Bf1g85CWDnM3MCXajcEM5UfJnD2I1M7VQuaTftjacjYWQ4bHo6loe9bN5B68uMPxCyRqV1XIxXLyWy20Ade/l39oDMGDtExt2SvauikIBMkY+4LKm3rg6+sOKBazkO0ErX1+kFnDfiy7A7/O1VvibkZaUXYOMz0DUM4ze5S5WIy+3NmgZdrSPb6CTHodVP5npilHiSL3sBhEynOltxbe5iQBS+foh904D4X7AKDfvWbYrYiblbiBr5brtxEhmPtYLnXT7VDziRYN+eYujngwK4gleOWteVuOLsXgRe19M/Wush8NEigH60ddCbDutnheB7inhnjRbCTesd32g6zCglVFL6sEiL79nXdoDMN1k0X7TCXm5FA3CzrRpiZGSVmSitch5kP3wRer10B6CKiCxHlDHTMgSIEO+0HLiPBnxJnJGTXRMCwfU836LwI6yaNRqGUvDZi/XGRb476mOWQH0hseDZLN+iEEsO6BU5BB7WDkXXbMWwTYxfalZ3D9FKTaarmOgYd84gd5LRsc0q8JubzYVqids2TZ8K6SaWVi8hf7XTk7LrgmHSZxD72T+sGnQWwbnL9wLm4b+VUU5FT0+ScdLFE5rZ2qfPZsG765PUVteuibyEOgMgz/Q2dw+D1z+sGnY9h3TD37YaT0EFZFc704JD31VmrG3TmErlM3Y5Cx4yNIiDntOl/6MC2jnaDIuDEucms4z7kLHTM0ghh5NSFOSoZ1UyeqRt03iFC55TD0DELRUdh921zVrAmYvOh+bpBZxTxwBp0GjrmcbHQYGKVw3LdIoYEtWu7PYJoJt92HDpmhghyhlHAHFrbiTks7aAzmuic1zsPHWDUuj+y5cNXEpEJt0Az5Iwz/49DgkMrrJuHHHeS81KxhyDEBgx05iG66fR3IuJ/6wRnSqir1Q9CtRJJlM9qBp2XTGL686o/oGPGJ6LQ6fCHTGxu9NGAgc5YRDfd/iVdDF/7cC8rIs8PMjGtd1dYwBxYIxHdnGTp5rI/kJPB88/dO50X6jSRRDk/gKDD1M2nfkBOj0DiM85xqQaJJMrVAQQdZo2aK8fpLQr7UiSu49rntFxMOlMLfL1ujSiDyHag00HbyNuCiYgvHBaM2VTaC1//gW4hwelU7zPT2Q2KTxVOf3Y4+0GsYclwEr5+uW7Q+Qv8rnn+qjkftvZTyF71kQ5KVkb99C0LoBwWm/Jf4iRyYq+QqF6V/3JOtH5qC5kfBFDmfICpHCfN0dLzRG5ywWbHZGN/kwvhH7yvG3QWIwaqv6l4JREWdRV95t9gMpKFnaMbdKYg2snyL6+92E4NX41TgeVkWqN/01ykG3ReQ7TT4s9MxIlrtoo/rRiHuO1Mz68R4bg+rht0liLaYUZUIpxhAFc1W3ZXsiNOegXr0dnID/6mG3R+R04AOGKJ9kdb9lf1UfUCbrCo9SLadfr/BfKy52gTNCSuwhrLl1Wgnm1aS+2yETJON+isJavniPqs1R6OgVyQlIVfEFWrWkZ2J8Gz8A9G6YYcrEkKENhJUx6n9fK6WVSZmUV+Npa7aeOwdOxgug779zfSukpLMnMSOchpLvvmqt28OPMptWVZTFssBsmE/Ew76PwR0w+zJsKl1ghtbeRgovxuf9kLBZzrsncrlPKARQ1caFfBZ7yHKaid2H3I97Wtg2cCdw81tq3q41wZpTA6yG5fipXGvqUddCZiCjrOVFCGwnRnNg857feCNvHlPPrX58oiPO3kTht/1Q46GOsC6LSYqgw5X3F98vu838hBbipdVQdltqV1ywygPIRhTMWOD+akuQhFBmj8KS6L9IGhRmGneb+oUFPb18Am12N8oXf1g84PTWoWy1KzHQd5npUV8TClYQcXbcfCHUubf5VCQAAACbtJREFUYy06Q17SDzrzMRWx/9VnFGxGeIabh4LzB1lnHPdnfQpCy5VkdvRU/ZBjLKM7Egrabsde5WYX0tkQqE3g8jAuSk9gxRB765jmUg2hMwfT0X6LSmiyl3nI55O6KqHJ0/27+P2+NsiVl53cc2OTV2ZqCJ1PUCWx425dko1OAYLFNXhO0QU+9T2rV6rAuRa5k8NCDaHzKKqkM2wap8x4Sc4R/ifHtQN1zer50DsksX4s1kXPC/9aQ+hg3QSh/kMyiRdNLQKs0cOcA6+Lf48KeWXpQCEzWqH2Ix2hswJ740h2RskrLZZzzM3f9Sv8ssFWgdvUSRoCkBJFdx6e0BE5yKDzO4t9FrgkOby9l0Wqq0TOmtIK/o0S8qWQY9lGstVjBpiDZRhP4bkBhc2QYssFgGP1iMX0BkTqRFsk+Ibh0TbczuVaQudPOO+KPTja4/v02LIegUPGajwrnHQ/JNIQo8NnczmOfedo9Iv2kZbQCRph48TC6vLF/rvnsoS6IVNGzewT6c4dle9bZmJbtJ1GG49oCR08iwU06rRifJt3/nW6WO/+MtJdb1aI3LTNJx5PMXDXhsCzkg3jx6iqIoG672YfTM7aq0LAidlHfcaFXKEbd9ovL94MkBjxzq6zNYXOR7aiGNY5u9rfLtgyZ1cp/d4nzgjd2tUda1N4yLLHTbLfagqdGbiyMiED1p72b3YKFlN57Rm0hQlCd3eftBVf2AsFHPHWPtM0hQ422OjOgvY6O56e5yzMFQSOx3YMZneL2BPc1+jg2QjlTHDS7YggXaGzGtdXEthFi7i7KRfTBYFjtfkwxDOyR/AhrtvEMA84FNCDE1lX6IocTlDQDAPLVkgeesMx8Yl6ySk++W9JFaLgqSwkwL8MJN0nmwFp6hjGxPH4m5eAqk8TjZFE9naKd8sp8pnBukF8VvGVI6JknirwJHQP4L98QVvoGM9wPjttoOJThfR+K5kywvO2BH5E2LlG4ed5BpNESCSx8Gnbjv/yHX2RY7zFy1IiX4hC3ibe6iI1PDkvqc9l7FXCQ4t6uFbPWdhza+Sk5FdrDJ3HeduP+UVeJL5WVthRROtvUi+NCxpe7KY8OLqnFjl9m8pFi8MY622NoRM0iueU4rZmK6vp7P7CY30xNNxYWVJb6/a30J6eUL83k2U1h1/3YoZaESdIMWGkxtDhuefAlJphdmJuV0nTEH5SGm7GdVUTvzZ3PTbJUwTCd3ioIiSUf1HSPwwL4Zvi0jiGGo9+uF5n5Bgfcr0LkTy3pyIx8UpFhGVzpStoBL+p0o4krvPZnd1pJ9NuVKbzDz3uSMs5WkOHe2IhDrqkFZGhpB45LC5KrdwJvN6K35mkNXT4J5Z5SO0O1CnrhrPhlFLBuVS0Z/VGjvEGP5QarVD/6dQSi1WkjGuBOskHuU9fpDl0eCnQO3E9jyr1R+WfICLn49+HTqeYy/kJqjDPbXEWHKQ7dJ7kb0CrGu3HnCb7VfNfMowlE0inVnKMCtk/3cR98nLdkWPMCOHrv0eF9rvJ1IfxT34r8R/+SfpVZrV82V0CVNV3tYcO2rZ9yFuRbyqX06tbvjfk7M74Fe2Hl1pkSy8wq3ap/sgxZonQNyX/cyttRHKC7zHuRo4hOuq96VLFLxZ45pIAgI4xV4Q7Uedn4Jivzhguc2gI7dfhrYny5N8h8MCpQYEAnXVCupd2ZnltkNa/MZDHPhAGf46am/hK0pfHJdQPPjQQkGPMWyz00d8jQ+/uNFuDi0Menp85eQo5sVWyRcIbRAh17Bk1KSCgYzwtpvqSGl/VnrXHXs+JJ2YxpJ60gH6j2nJfX6FIzLxfFhjIMcYGC5KMffNUWlptzpT+5ffZci8cTb9XZnKjT6etWChqxGMBAh1joaDeT2TYDiwnJNsudfhgHshUC7Zxu7L8NrsvUbNXkAv/90BBjjHvz8LszU47Ko+pPmu70mEERl2YuMbWPUtP2vr01A0I3n/U6wEDHV4J8X3xNaqt6WrO96Hr/tzf4KSR50Ns3Ta+xOumnreXhO8eagTQepUQX7tOsDU95Rd9mtawciw3ohls89ZVcV7C8Zv7tXjd1uKxgQSdadNJtmaPEIs0/fR13yryVonwwieusH3/+N6Oy0I2zrWDlNs+ZQTUmklTek7tf3YL7wjbmvtn7lB8OYynMFFOZ9fKoGQl6onT+JNP39PzpO2xjx1ZKYfB15LkQO+4c2sd5srligebbjX3nyyjGLDYED2WH2hGmVU7D03Z2olt78PMHTNekuoVFtsRlnTwn/uPG9xuO9S87PqZixd7zlyfcePOig5q3QdjVkiC45kUKLewtr27ecq5g5v2PNy7d8+mpz3L9q8ga5+GHcOIAwZlgwkokLiHKdlykDjcjGnkJR0JgcGTcMzTSHZ+xOBI+rJSDCMQuHIOkoTDqSBKjvuLmAeB24MYRiRIGBwpRzyATPdz5w+42z10RmbS4bAeBAlHmY+C9QpZMgPreGMRhhEK9KIGPOVoF1LkAwndAa1pjRhGLIhmHNiEwyVN8brMgPTRhs6AACPZgUw5xdQo75ksMgbI+QbsIznpMIQO4IhIAJX8kOMwME1kJoaRDZwGKOEwSlOxc6JRSn8PpHMzjHSgMhAJRzmYugHPZMFDZx9EZTOMAhv6pxxV6k8ZitB3dFmAfzThAIGhHH0TTgltbuX196CfFyxtR5MNpKlAzz6KWRbNOiaRpvRq54yWOTDgR7fpoHQ1Wu6w1cmky5yupvxokoGDbG36JJxEWs/5MGnRfm7CwXc0wSAHOSvtE46YGj329DM50bgINeEYTS6oQM2ZxiNoBfQafOXVomG1xWM/mlQwKy1FGo7jFPvT0ytsmbSa2dKMGU0oWACHujdtwpsxSZjuftGgRVed08RxNJlgB9z6NAhv7cyBOUFE0oDac7tmSqNJBE94e1J5WYXbAC7eFQqiZqNH0Ga0yMEPrMSoFthy1vYDfGQRh5ULlYbKOQ1GhwEJAvYCd+q0KFUGxfJLERUzKnjGOn40YRAFlPIpbSZoq+QMHu/EJ1FWcXHG+Y+mCaKBvIo42SGd4WA42Ap3Dv8kc/Kba6NznSTWW/585ORVMwWrQbp6rtDCnYzDeTxCRUfTAhmpRzLIg4TQVtZU0BjcS+ckNIJJmlz3UQkZTQXkh3akiSLhCz5kzQy0lIbGWl3uIi8PYpYUyhiEji4EpBjoBKoFFYth3XgjZ57LaqFhO8Q2QXIEppq4iOPstjN68tmPTjhQE4japmlkhgWZmCTxedlZOKmrpQXKD+WNs0y2rqEWbuGxmuICzN6MxgLpYorFChap/qOrcUbB8AYAJ7w9KMvM28IAAAAASUVORK5CYII=;" vertex="1" parent="1">
          <mxGeometry x="37.170000000000016" y="728.75" width="55.66" height="50" as="geometry" />
        </mxCell>
        <mxCell id="5Cmd87jd1j1dDl44HN59-81" value="" style="dashed=0;outlineConnect=0;html=1;align=center;labelPosition=center;verticalLabelPosition=bottom;verticalAlign=top;shape=mxgraph.weblogos.java" vertex="1" parent="1">
          <mxGeometry x="125.63" y="718.75" width="38.75" height="70" as="geometry" />
        </mxCell>
        <mxCell id="5Cmd87jd1j1dDl44HN59-89" style="edgeStyle=orthogonalEdgeStyle;rounded=0;orthogonalLoop=1;jettySize=auto;html=1;entryX=-0.008;entryY=0.568;entryDx=0;entryDy=0;entryPerimeter=0;sketch=1;curveFitting=1;jiggle=2;" edge="1" parent="1" source="5Cmd87jd1j1dDl44HN59-82" target="5Cmd87jd1j1dDl44HN59-86">
          <mxGeometry relative="1" as="geometry" />
        </mxCell>
        <mxCell id="5Cmd87jd1j1dDl44HN59-82" value="" style="whiteSpace=wrap;html=1;" vertex="1" parent="1">
          <mxGeometry x="521.16" y="708.75" width="117.69" height="90" as="geometry" />
        </mxCell>
        <mxCell id="5Cmd87jd1j1dDl44HN59-83" value="" style="dashed=0;outlineConnect=0;html=1;align=center;labelPosition=center;verticalLabelPosition=bottom;verticalAlign=top;shape=mxgraph.weblogos.github" vertex="1" parent="1">
          <mxGeometry x="1018.75" y="710" width="92.5" height="92.5" as="geometry" />
        </mxCell>
        <mxCell id="5Cmd87jd1j1dDl44HN59-84" value="GitHub Actions" style="text;strokeColor=none;align=center;fillColor=none;html=1;verticalAlign=middle;whiteSpace=wrap;rounded=0;fontSize=16;" vertex="1" parent="1">
          <mxGeometry x="968.6" y="680" width="192.81" height="30" as="geometry" />
        </mxCell>
        <mxCell id="5Cmd87jd1j1dDl44HN59-90" style="edgeStyle=orthogonalEdgeStyle;rounded=0;orthogonalLoop=1;jettySize=auto;html=1;entryX=0.5;entryY=1;entryDx=0;entryDy=0;sketch=1;curveFitting=1;jiggle=2;" edge="1" parent="1" source="5Cmd87jd1j1dDl44HN59-86" target="5Cmd87jd1j1dDl44HN59-67">
          <mxGeometry relative="1" as="geometry">
            <Array as="points">
              <mxPoint x="690" y="720" />
              <mxPoint x="690" y="690" />
              <mxPoint x="468" y="690" />
            </Array>
          </mxGeometry>
        </mxCell>
        <mxCell id="5Cmd87jd1j1dDl44HN59-91" style="edgeStyle=orthogonalEdgeStyle;rounded=0;orthogonalLoop=1;jettySize=auto;html=1;entryX=0.472;entryY=0.995;entryDx=0;entryDy=0;entryPerimeter=0;sketch=1;curveFitting=1;jiggle=2;" edge="1" parent="1" source="5Cmd87jd1j1dDl44HN59-86" target="5Cmd87jd1j1dDl44HN59-68">
          <mxGeometry relative="1" as="geometry">
            <Array as="points">
              <mxPoint x="692" y="720" />
            </Array>
          </mxGeometry>
        </mxCell>
        <mxCell id="5Cmd87jd1j1dDl44HN59-87" value="" style="image;sketch=0;aspect=fixed;html=1;points=[];align=center;fontSize=12;image=img/lib/mscae/Docker.svg;" vertex="1" parent="1">
          <mxGeometry x="537.3299999999999" y="721.25" width="85.36" height="70" as="geometry" />
        </mxCell>
        <mxCell id="5Cmd87jd1j1dDl44HN59-92" value="Source Code" style="text;strokeColor=none;align=center;fillColor=none;html=1;verticalAlign=middle;whiteSpace=wrap;rounded=0;fontSize=16;" vertex="1" parent="1">
          <mxGeometry x="22.83000000000004" y="678.75" width="192.81" height="30" as="geometry" />
        </mxCell>
      </root>
    </mxGraphModel>
  </diagram>
</mxfile>
